<ttFont>
    <TTGlyph name=".notdef" xMin="98" yMin="-220" xMax="717" yMax="1030">
      <contour>
        <pt x="98" y="1030" on="1"/>
        <pt x="717" y="1030" on="1"/>
        <pt x="717" y="-220" on="1"/>
        <pt x="98" y="-220" on="1"/>
      </contour>
      <contour>
        <pt x="637" y="-144" on="1"/>
        <pt x="637" y="955" on="1"/>
        <pt x="179" y="955" on="1"/>
        <pt x="179" y="-144" on="1"/>
      </contour>
    </TTGlyph>
    <TTGlyph name="A" xMin="7" yMin="0" xMax="716" yMax="740">
      <contour>
        <pt x="7" y="7" on="1"/>
        <pt x="290" y="740" on="1"/>
        <pt x="433" y="740" on="1"/>
        <pt x="716" y="7" on="1"/>
        <pt x="716" y="0" on="1"/>
        <pt x="623" y="0" on="1"/>
        <pt x="539" y="217" on="1"/>
        <pt x="184" y="217" on="1"/>
        <pt x="100" y="0" on="1"/>
        <pt x="7" y="0" on="1"/>
      </contour>
      <contour>
        <pt x="512" y="297" on="1"/>
        <pt x="418" y="540" on="1"/>
        <pt x="366" y="676" on="1"/>
        <pt x="357" y="676" on="1"/>
        <pt x="306" y="540" on="1"/>
        <pt x="211" y="297" on="1"/>
      </contour>
    </TTGlyph>
    <TTGlyph name="A.sc" xMin="13" yMin="0" xMax="641" yMax="577">
      <contour>
        <pt x="13" y="6" on="1"/>
        <pt x="259" y="577" on="1"/>
        <pt x="396" y="577" on="1"/>
        <pt x="641" y="6" on="1"/>
        <pt x="641" y="0" on="1"/>
        <pt x="552" y="0" on="1"/>
        <pt x="481" y="160" on="1"/>
        <pt x="174" y="160" on="1"/>
        <pt x="102" y="0" on="1"/>
        <pt x="13" y="0" on="1"/>
      </contour>
      <contour>
        <pt x="458" y="226" on="1"/>
        <pt x="376" y="415" on="1"/>
        <pt x="331" y="517" on="1"/>
        <pt x="323" y="517" on="1"/>
        <pt x="279" y="414" on="1"/>
        <pt x="195" y="226" on="1"/>
      </contour>
    </TTGlyph>
    <TTGlyph name="AE" xMin="6" yMin="0" xMax="882" yMax="740">
      <contour>
        <pt x="6" y="8" on="1"/>
        <pt x="327" y="740" on="1"/>
        <pt x="870" y="740" on="1"/>
        <pt x="870" y="664" on="1"/>
        <pt x="523" y="664" on="1"/>
        <pt x="536" y="413" on="1"/>
        <pt x="844" y="413" on="1"/>
        <pt x="844" y="336" on="1"/>
        <pt x="540" y="336" on="1"/>
        <pt x="553" y="76" on="1"/>
        <pt x="882" y="76" on="1"/>
        <pt x="882" y="0" on="1"/>
        <pt x="459" y="0" on="1"/>
        <pt x="450" y="217" on="1"/>
        <pt x="192" y="217" on="1"/>
        <pt x="96" y="0" on="1"/>
        <pt x="6" y="0" on="1"/>
      </contour>
      <contour>
        <pt x="227" y="297" on="1"/>
        <pt x="447" y="297" on="1"/>
        <pt x="432" y="669" on="1"/>
        <pt x="392" y="669" on="1"/>
      </contour>
    </TTGlyph>
    <TTGlyph name="AE.sc" xMin="14" yMin="0" xMax="793" yMax="577">
      <contour>
        <pt x="14" y="7" on="1"/>
        <pt x="296" y="577" on="1"/>
        <pt x="781" y="577" on="1"/>
        <pt x="781" y="508" on="1"/>
        <pt x="479" y="508" on="1"/>
        <pt x="488" y="323" on="1"/>
        <pt x="759" y="323" on="1"/>
        <pt x="759" y="261" on="1"/>
        <pt x="494" y="261" on="1"/>
        <pt x="505" y="69" on="1"/>
        <pt x="793" y="69" on="1"/>
        <pt x="793" y="0" on="1"/>
        <pt x="415" y="0" on="1"/>
        <pt x="408" y="160" on="1"/>
        <pt x="181" y="160" on="1"/>
        <pt x="101" y="0" on="1"/>
        <pt x="14" y="0" on="1"/>
      </contour>
      <contour>
        <pt x="214" y="224" on="1"/>
        <pt x="404" y="224" on="1"/>
        <pt x="392" y="511" on="1"/>
        <pt x="358" y="511" on="1"/>
      </contour>
    </TTGlyph>
    <TTGlyph name="AEacute" xMin="6" yMin="0" xMax="882" yMax="953">
      <contour>
        <pt x="501" y="812" on="1"/>
        <pt x="575" y="953" on="1"/>
        <pt x="671" y="953" on="1"/>
        <pt x="572" y="805" on="1"/>
      </contour>
      <contour>
        <pt x="6" y="8" on="1"/>
        <pt x="327" y="740" on="1"/>
        <pt x="870" y="740" on="1"/>
        <pt x="870" y="664" on="1"/>
        <pt x="523" y="664" on="1"/>
        <pt x="536" y="413" on="1"/>
        <pt x="844" y="413" on="1"/>
        <pt x="844" y="336" on="1"/>
        <pt x="540" y="336" on="1"/>
        <pt x="553" y="76" on="1"/>
        <pt x="882" y="76" on="1"/>
        <pt x="882" y="0" on="1"/>
        <pt x="459" y="0" on="1"/>
        <pt x="450" y="217" on="1"/>
        <pt x="192" y="217" on="1"/>
        <pt x="96" y="0" on="1"/>
        <pt x="6" y="0" on="1"/>
      </contour>
      <contour>
        <pt x="227" y="297" on="1"/>
        <pt x="447" y="297" on="1"/>
        <pt x="432" y="669" on="1"/>
        <pt x="392" y="669" on="1"/>
      </contour>
    </TTGlyph>
    <TTGlyph name="AEacute.sc" xMin="14" yMin="0" xMax="793" yMax="751">
      <contour>
        <pt x="14" y="7" on="1"/>
        <pt x="296" y="577" on="1"/>
        <pt x="781" y="577" on="1"/>
        <pt x="781" y="508" on="1"/>
        <pt x="479" y="508" on="1"/>
        <pt x="488" y="323" on="1"/>
        <pt x="759" y="323" on="1"/>
        <pt x="759" y="261" on="1"/>
        <pt x="494" y="261" on="1"/>
        <pt x="505" y="69" on="1"/>
        <pt x="793" y="69" on="1"/>
        <pt x="793" y="0" on="1"/>
        <pt x="415" y="0" on="1"/>
        <pt x="408" y="160" on="1"/>
        <pt x="181" y="160" on="1"/>
        <pt x="101" y="0" on="1"/>
        <pt x="14" y="0" on="1"/>
      </contour>
      <contour>
        <pt x="404" y="224" on="1"/>
        <pt x="392" y="511" on="1"/>
        <pt x="358" y="511" on="1"/>
        <pt x="214" y="224" on="1"/>
      </contour>
      <contour>
        <pt x="446" y="635" on="1"/>
        <pt x="510" y="751" on="1"/>
        <pt x="602" y="751" on="1"/>
        <pt x="514" y="629" on="1"/>
      </contour>
    </TTGlyph>
    <TTGlyph name="Aacute" xMin="7" yMin="0" xMax="716" yMax="953">
      <contour>
        <pt x="7" y="7" on="1"/>
        <pt x="290" y="740" on="1"/>
        <pt x="433" y="740" on="1"/>
        <pt x="716" y="7" on="1"/>
        <pt x="716" y="0" on="1"/>
        <pt x="623" y="0" on="1"/>
        <pt x="539" y="217" on="1"/>
        <pt x="184" y="217" on="1"/>
        <pt x="100" y="0" on="1"/>
        <pt x="7" y="0" on="1"/>
      </contour>
      <contour>
        <pt x="512" y="297" on="1"/>
        <pt x="418" y="540" on="1"/>
        <pt x="366" y="676" on="1"/>
        <pt x="357" y="676" on="1"/>
        <pt x="306" y="540" on="1"/>
        <pt x="211" y="297" on="1"/>
      </contour>
      <contour>
        <pt x="321" y="812" on="1"/>
        <pt x="395" y="953" on="1"/>
        <pt x="491" y="953" on="1"/>
        <pt x="392" y="805" on="1"/>
      </contour>
    </TTGlyph>
    <TTGlyph name="Aacute.sc" xMin="13" yMin="0" xMax="641" yMax="751">
      <contour>
        <pt x="13" y="6" on="1"/>
        <pt x="259" y="577" on="1"/>
        <pt x="396" y="577" on="1"/>
        <pt x="641" y="6" on="1"/>
        <pt x="641" y="0" on="1"/>
        <pt x="552" y="0" on="1"/>
        <pt x="481" y="160" on="1"/>
        <pt x="174" y="160" on="1"/>
        <pt x="102" y="0" on="1"/>
        <pt x="13" y="0" on="1"/>
      </contour>
      <contour>
        <pt x="458" y="229" on="1"/>
        <pt x="376" y="415" on="1"/>
        <pt x="331" y="517" on="1"/>
        <pt x="323" y="517" on="1"/>
        <pt x="279" y="414" on="1"/>
        <pt x="196" y="229" on="1"/>
      </contour>
      <contour>
        <pt x="289" y="635" on="1"/>
        <pt x="352" y="751" on="1"/>
        <pt x="444" y="751" on="1"/>
        <pt x="356" y="629" on="1"/>
      </contour>
    </TTGlyph>
    <TTGlyph name="Abreve" xMin="7" yMin="0" xMax="716" yMax="965">
      <contour>
        <pt x="7" y="7" on="1"/>
        <pt x="290" y="740" on="1"/>
        <pt x="433" y="740" on="1"/>
        <pt x="716" y="7" on="1"/>
        <pt x="716" y="0" on="1"/>
        <pt x="623" y="0" on="1"/>
        <pt x="539" y="217" on="1"/>
        <pt x="184" y="217" on="1"/>
        <pt x="100" y="0" on="1"/>
        <pt x="7" y="0" on="1"/>
      </contour>
      <contour>
        <pt x="512" y="297" on="1"/>
        <pt x="418" y="540" on="1"/>
        <pt x="366" y="676" on="1"/>
        <pt x="357" y="676" on="1"/>
        <pt x="306" y="540" on="1"/>
        <pt x="211" y="297" on="1"/>
      </contour>
      <contour>
        <pt x="362" y="815" on="1"/>
        <pt x="263" y="815" on="0"/>
        <pt x="170" y="898" on="0"/>
        <pt x="170" y="965" on="1"/>
        <pt x="239" y="965" on="1"/>
        <pt x="239" y="920" on="0"/>
        <pt x="300" y="870" on="0"/>
        <pt x="362" y="870" on="1"/>
        <pt x="425" y="870" on="0"/>
        <pt x="486" y="920" on="0"/>
        <pt x="486" y="965" on="1"/>
        <pt x="554" y="965" on="1"/>
        <pt x="554" y="897" on="0"/>
        <pt x="460" y="815" on="0"/>
      </contour>
    </TTGlyph>
    <TTGlyph name="Abreve.sc" xMin="13" yMin="0" xMax="641" yMax="759">
      <contour>
        <pt x="328" y="635" on="1"/>
        <pt x="238" y="635" on="0"/>
        <pt x="155" y="705" on="0"/>
        <pt x="155" y="759" on="1"/>
        <pt x="220" y="759" on="1"/>
        <pt x="220" y="724" on="0"/>
        <pt x="273" y="685" on="0"/>
        <pt x="328" y="685" on="1"/>
        <pt x="383" y="685" on="0"/>
        <pt x="436" y="724" on="0"/>
        <pt x="436" y="759" on="1"/>
        <pt x="499" y="759" on="1"/>
        <pt x="499" y="704" on="0"/>
        <pt x="417" y="635" on="0"/>
      </contour>
      <contour>
        <pt x="13" y="6" on="1"/>
        <pt x="259" y="577" on="1"/>
        <pt x="396" y="577" on="1"/>
        <pt x="641" y="6" on="1"/>
        <pt x="641" y="0" on="1"/>
        <pt x="552" y="0" on="1"/>
        <pt x="481" y="160" on="1"/>
        <pt x="174" y="160" on="1"/>
        <pt x="102" y="0" on="1"/>
        <pt x="13" y="0" on="1"/>
      </contour>
      <contour>
        <pt x="458" y="229" on="1"/>
        <pt x="376" y="415" on="1"/>
        <pt x="331" y="517" on="1"/>
        <pt x="323" y="517" on="1"/>
        <pt x="279" y="414" on="1"/>
        <pt x="196" y="229" on="1"/>
      </contour>
    </TTGlyph>
    <TTGlyph name="Acircumflex" xMin="7" yMin="0" xMax="716" yMax="961">
      <contour>
        <pt x="7" y="7" on="1"/>
        <pt x="290" y="740" on="1"/>
        <pt x="433" y="740" on="1"/>
        <pt x="716" y="7" on="1"/>
        <pt x="716" y="0" on="1"/>
        <pt x="623" y="0" on="1"/>
        <pt x="539" y="217" on="1"/>
        <pt x="184" y="217" on="1"/>
        <pt x="100" y="0" on="1"/>
        <pt x="7" y="0" on="1"/>
      </contour>
      <contour>
        <pt x="512" y="297" on="1"/>
        <pt x="418" y="540" on="1"/>
        <pt x="366" y="676" on="1"/>
        <pt x="357" y="676" on="1"/>
        <pt x="306" y="540" on="1"/>
        <pt x="211" y="297" on="1"/>
      </contour>
      <contour>
        <pt x="187" y="886" on="1"/>
        <pt x="363" y="961" on="1"/>
        <pt x="539" y="886" on="1"/>
        <pt x="539" y="812" on="1"/>
        <pt x="363" y="887" on="1"/>
        <pt x="187" y="812" on="1"/>
      </contour>
    </TTGlyph>
    <TTGlyph name="Acircumflex.sc" xMin="13" yMin="0" xMax="641" yMax="758">
      <contour>
        <pt x="13" y="6" on="1"/>
        <pt x="259" y="577" on="1"/>
        <pt x="396" y="577" on="1"/>
        <pt x="641" y="6" on="1"/>
        <pt x="641" y="0" on="1"/>
        <pt x="552" y="0" on="1"/>
        <pt x="481" y="160" on="1"/>
        <pt x="174" y="160" on="1"/>
        <pt x="102" y="0" on="1"/>
        <pt x="13" y="0" on="1"/>
      </contour>
      <contour>
        <pt x="458" y="229" on="1"/>
        <pt x="376" y="415" on="1"/>
        <pt x="331" y="517" on="1"/>
        <pt x="323" y="517" on="1"/>
        <pt x="279" y="414" on="1"/>
        <pt x="196" y="229" on="1"/>
      </contour>
      <contour>
        <pt x="171" y="698" on="1"/>
        <pt x="328" y="758" on="1"/>
        <pt x="486" y="698" on="1"/>
        <pt x="486" y="632" on="1"/>
        <pt x="329" y="691" on="1"/>
        <pt x="171" y="632" on="1"/>
      </contour>
    </TTGlyph>
    <TTGlyph name="Adblgrave" xMin="7" yMin="0" xMax="716" yMax="946">
      <contour>
        <pt x="7" y="7" on="1"/>
        <pt x="290" y="740" on="1"/>
        <pt x="433" y="740" on="1"/>
        <pt x="716" y="7" on="1"/>
        <pt x="716" y="0" on="1"/>
        <pt x="623" y="0" on="1"/>
        <pt x="539" y="217" on="1"/>
        <pt x="184" y="217" on="1"/>
        <pt x="100" y="0" on="1"/>
        <pt x="7" y="0" on="1"/>
      </contour>
      <contour>
        <pt x="512" y="297" on="1"/>
        <pt x="418" y="540" on="1"/>
        <pt x="366" y="676" on="1"/>
        <pt x="357" y="676" on="1"/>
        <pt x="306" y="540" on="1"/>
        <pt x="211" y="297" on="1"/>
      </contour>
      <contour>
        <pt x="241" y="798" on="1"/>
        <pt x="142" y="946" on="1"/>
        <pt x="238" y="946" on="1"/>
        <pt x="311" y="811" on="1"/>
      </contour>
      <contour>
        <pt x="406" y="798" on="1"/>
        <pt x="306" y="946" on="1"/>
        <pt x="401" y="946" on="1"/>
        <pt x="475" y="811" on="1"/>
      </contour>
    </TTGlyph>
    <TTGlyph name="Adblgrave.sc" xMin="13" yMin="0" xMax="641" yMax="746">
      <contour>
        <pt x="13" y="6" on="1"/>
        <pt x="259" y="577" on="1"/>
        <pt x="396" y="577" on="1"/>
        <pt x="641" y="6" on="1"/>
        <pt x="641" y="0" on="1"/>
        <pt x="552" y="0" on="1"/>
        <pt x="481" y="160" on="1"/>
        <pt x="174" y="160" on="1"/>
        <pt x="102" y="0" on="1"/>
        <pt x="13" y="0" on="1"/>
      </contour>
      <contour>
        <pt x="458" y="229" on="1"/>
        <pt x="376" y="415" on="1"/>
        <pt x="331" y="517" on="1"/>
        <pt x="323" y="517" on="1"/>
        <pt x="279" y="414" on="1"/>
        <pt x="196" y="229" on="1"/>
      </contour>
      <contour>
        <pt x="127" y="746" on="1"/>
        <pt x="220" y="746" on="1"/>
        <pt x="282" y="634" on="1"/>
        <pt x="215" y="624" on="1"/>
      </contour>
      <contour>
        <pt x="276" y="746" on="1"/>
        <pt x="367" y="746" on="1"/>
        <pt x="430" y="634" on="1"/>
        <pt x="364" y="624" on="1"/>
      </contour>
    </TTGlyph>
    <TTGlyph name="Adieresis" xMin="7" yMin="0" xMax="716" yMax="938">
      <contour>
        <pt x="7" y="7" on="1"/>
        <pt x="290" y="740" on="1"/>
        <pt x="433" y="740" on="1"/>
        <pt x="716" y="7" on="1"/>
        <pt x="716" y="0" on="1"/>
        <pt x="623" y="0" on="1"/>
        <pt x="539" y="217" on="1"/>
        <pt x="184" y="217" on="1"/>
        <pt x="100" y="0" on="1"/>
        <pt x="7" y="0" on="1"/>
      </contour>
      <contour>
        <pt x="512" y="297" on="1"/>
        <pt x="418" y="540" on="1"/>
        <pt x="366" y="676" on="1"/>
        <pt x="357" y="676" on="1"/>
        <pt x="306" y="540" on="1"/>
        <pt x="211" y="297" on="1"/>
      </contour>
      <contour>
        <pt x="221" y="822" on="1"/>
        <pt x="162" y="822" on="0"/>
        <pt x="162" y="881" on="1"/>
        <pt x="162" y="911" on="0"/>
        <pt x="192" y="938" on="0"/>
        <pt x="221" y="938" on="1"/>
        <pt x="250" y="938" on="0"/>
        <pt x="280" y="911" on="0"/>
        <pt x="280" y="881" on="1"/>
        <pt x="280" y="822" on="0"/>
      </contour>
      <contour>
        <pt x="503" y="822" on="1"/>
        <pt x="444" y="822" on="0"/>
        <pt x="444" y="881" on="1"/>
        <pt x="444" y="911" on="0"/>
        <pt x="474" y="938" on="0"/>
        <pt x="503" y="938" on="1"/>
        <pt x="532" y="938" on="0"/>
        <pt x="563" y="911" on="0"/>
        <pt x="563" y="881" on="1"/>
        <pt x="563" y="822" on="0"/>
      </contour>
    </TTGlyph>
    <TTGlyph name="Adieresis.sc" xMin="13" yMin="0" xMax="641" yMax="744">
      <contour>
        <pt x="202" y="639" on="1"/>
        <pt x="147" y="639" on="0"/>
        <pt x="147" y="692" on="1"/>
        <pt x="147" y="744" on="0"/>
        <pt x="202" y="744" on="1"/>
        <pt x="258" y="744" on="0"/>
        <pt x="258" y="692" on="1"/>
        <pt x="258" y="639" on="0"/>
      </contour>
      <contour>
        <pt x="453" y="639" on="1"/>
        <pt x="397" y="639" on="0"/>
        <pt x="397" y="692" on="1"/>
        <pt x="397" y="744" on="0"/>
        <pt x="453" y="744" on="1"/>
        <pt x="508" y="744" on="0"/>
        <pt x="508" y="692" on="1"/>
        <pt x="508" y="639" on="0"/>
      </contour>
      <contour>
        <pt x="13" y="6" on="1"/>
        <pt x="259" y="577" on="1"/>
        <pt x="396" y="577" on="1"/>
        <pt x="641" y="6" on="1"/>
        <pt x="641" y="0" on="1"/>
        <pt x="552" y="0" on="1"/>
        <pt x="481" y="160" on="1"/>
        <pt x="174" y="160" on="1"/>
        <pt x="102" y="0" on="1"/>
        <pt x="13" y="0" on="1"/>
      </contour>
      <contour>
        <pt x="458" y="229" on="1"/>
        <pt x="376" y="415" on="1"/>
        <pt x="331" y="517" on="1"/>
        <pt x="323" y="517" on="1"/>
        <pt x="279" y="414" on="1"/>
        <pt x="196" y="229" on="1"/>
      </contour>
    </TTGlyph>
    <TTGlyph name="Agrave" xMin="7" yMin="0" xMax="716" yMax="953">
      <contour>
        <pt x="7" y="7" on="1"/>
        <pt x="290" y="740" on="1"/>
        <pt x="433" y="740" on="1"/>
        <pt x="716" y="7" on="1"/>
        <pt x="716" y="0" on="1"/>
        <pt x="623" y="0" on="1"/>
        <pt x="539" y="217" on="1"/>
        <pt x="184" y="217" on="1"/>
        <pt x="100" y="0" on="1"/>
        <pt x="7" y="0" on="1"/>
      </contour>
      <contour>
        <pt x="512" y="297" on="1"/>
        <pt x="418" y="540" on="1"/>
        <pt x="366" y="676" on="1"/>
        <pt x="357" y="676" on="1"/>
        <pt x="306" y="540" on="1"/>
        <pt x="211" y="297" on="1"/>
      </contour>
      <contour>
        <pt x="323" y="805" on="1"/>
        <pt x="224" y="953" on="1"/>
        <pt x="320" y="953" on="1"/>
        <pt x="395" y="818" on="1"/>
      </contour>
    </TTGlyph>
    <TTGlyph name="Agrave.sc" xMin="13" yMin="0" xMax="641" yMax="751">
      <contour>
        <pt x="13" y="6" on="1"/>
        <pt x="259" y="577" on="1"/>
        <pt x="396" y="577" on="1"/>
        <pt x="641" y="6" on="1"/>
        <pt x="641" y="0" on="1"/>
        <pt x="552" y="0" on="1"/>
        <pt x="481" y="160" on="1"/>
        <pt x="174" y="160" on="1"/>
        <pt x="102" y="0" on="1"/>
        <pt x="13" y="0" on="1"/>
      </contour>
      <contour>
        <pt x="458" y="229" on="1"/>
        <pt x="376" y="415" on="1"/>
        <pt x="331" y="517" on="1"/>
        <pt x="323" y="517" on="1"/>
        <pt x="279" y="414" on="1"/>
        <pt x="196" y="229" on="1"/>
      </contour>
      <contour>
        <pt x="290" y="629" on="1"/>
        <pt x="201" y="751" on="1"/>
        <pt x="294" y="751" on="1"/>
        <pt x="357" y="639" on="1"/>
      </contour>
    </TTGlyph>
    <TTGlyph name="Ainvertedbreve" xMin="7" yMin="0" xMax="716" yMax="968">
      <contour>
        <pt x="7" y="7" on="1"/>
        <pt x="290" y="740" on="1"/>
        <pt x="433" y="740" on="1"/>
        <pt x="716" y="7" on="1"/>
        <pt x="716" y="0" on="1"/>
        <pt x="623" y="0" on="1"/>
        <pt x="539" y="217" on="1"/>
        <pt x="184" y="217" on="1"/>
        <pt x="100" y="0" on="1"/>
        <pt x="7" y="0" on="1"/>
      </contour>
      <contour>
        <pt x="512" y="297" on="1"/>
        <pt x="418" y="540" on="1"/>
        <pt x="366" y="676" on="1"/>
        <pt x="357" y="676" on="1"/>
        <pt x="306" y="540" on="1"/>
        <pt x="211" y="297" on="1"/>
      </contour>
      <contour>
        <pt x="486" y="818" on="1"/>
        <pt x="486" y="863" on="0"/>
        <pt x="425" y="913" on="0"/>
        <pt x="362" y="913" on="1"/>
        <pt x="300" y="913" on="0"/>
        <pt x="238" y="863" on="0"/>
        <pt x="238" y="818" on="1"/>
        <pt x="170" y="818" on="1"/>
        <pt x="170" y="885" on="0"/>
        <pt x="263" y="968" on="0"/>
        <pt x="362" y="968" on="1"/>
        <pt x="460" y="968" on="0"/>
        <pt x="554" y="886" on="0"/>
        <pt x="554" y="818" on="1"/>
      </contour>
    </TTGlyph>
    <TTGlyph name="Ainvertedbreve.sc" xMin="13" yMin="0" xMax="641" yMax="762">
      <contour>
        <pt x="155" y="638" on="1"/>
        <pt x="155" y="691" on="0"/>
        <pt x="238" y="762" on="0"/>
        <pt x="328" y="762" on="1"/>
        <pt x="417" y="762" on="0"/>
        <pt x="499" y="693" on="0"/>
        <pt x="499" y="638" on="1"/>
        <pt x="436" y="638" on="1"/>
        <pt x="436" y="673" on="0"/>
        <pt x="383" y="711" on="0"/>
        <pt x="328" y="711" on="1"/>
        <pt x="273" y="711" on="0"/>
        <pt x="220" y="673" on="0"/>
        <pt x="220" y="638" on="1"/>
      </contour>
      <contour>
        <pt x="13" y="6" on="1"/>
        <pt x="259" y="577" on="1"/>
        <pt x="396" y="577" on="1"/>
        <pt x="641" y="6" on="1"/>
        <pt x="641" y="0" on="1"/>
        <pt x="552" y="0" on="1"/>
        <pt x="481" y="160" on="1"/>
        <pt x="174" y="160" on="1"/>
        <pt x="102" y="0" on="1"/>
        <pt x="13" y="0" on="1"/>
      </contour>
      <contour>
        <pt x="458" y="229" on="1"/>
        <pt x="376" y="415" on="1"/>
        <pt x="331" y="517" on="1"/>
        <pt x="323" y="517" on="1"/>
        <pt x="279" y="414" on="1"/>
        <pt x="196" y="229" on="1"/>
      </contour>
    </TTGlyph>
    <TTGlyph name="Amacron" xMin="7" yMin="0" xMax="716" yMax="911">
      <contour>
        <pt x="7" y="7" on="1"/>
        <pt x="290" y="740" on="1"/>
        <pt x="433" y="740" on="1"/>
        <pt x="716" y="7" on="1"/>
        <pt x="716" y="0" on="1"/>
        <pt x="623" y="0" on="1"/>
        <pt x="539" y="217" on="1"/>
        <pt x="184" y="217" on="1"/>
        <pt x="100" y="0" on="1"/>
        <pt x="7" y="0" on="1"/>
      </contour>
      <contour>
        <pt x="512" y="297" on="1"/>
        <pt x="418" y="540" on="1"/>
        <pt x="366" y="676" on="1"/>
        <pt x="357" y="676" on="1"/>
        <pt x="306" y="540" on="1"/>
        <pt x="211" y="297" on="1"/>
      </contour>
      <contour>
        <pt x="189" y="911" on="1"/>
        <pt x="536" y="911" on="1"/>
        <pt x="536" y="842" on="1"/>
        <pt x="189" y="842" on="1"/>
      </contour>
    </TTGlyph>
    <TTGlyph name="Amacron.sc" xMin="13" yMin="0" xMax="641" yMax="720">
      <contour>
        <pt x="13" y="6" on="1"/>
        <pt x="259" y="577" on="1"/>
        <pt x="396" y="577" on="1"/>
        <pt x="641" y="6" on="1"/>
        <pt x="641" y="0" on="1"/>
        <pt x="552" y="0" on="1"/>
        <pt x="481" y="160" on="1"/>
        <pt x="174" y="160" on="1"/>
        <pt x="102" y="0" on="1"/>
        <pt x="13" y="0" on="1"/>
      </contour>
      <contour>
        <pt x="458" y="229" on="1"/>
        <pt x="376" y="415" on="1"/>
        <pt x="331" y="517" on="1"/>
        <pt x="323" y="517" on="1"/>
        <pt x="279" y="414" on="1"/>
        <pt x="196" y="229" on="1"/>
      </contour>
      <contour>
        <pt x="172" y="720" on="1"/>
        <pt x="484" y="720" on="1"/>
        <pt x="484" y="657" on="1"/>
        <pt x="172" y="657" on="1"/>
      </contour>
    </TTGlyph>
    <TTGlyph name="Aogonek" xMin="7" yMin="-220" xMax="716" yMax="740">
      <contour>
        <pt x="637" y="-220" on="1"/>
        <pt x="526" y="-220" on="0"/>
        <pt x="526" y="-137" on="1"/>
        <pt x="526" y="-99" on="0"/>
        <pt x="577" y="-37" on="0"/>
        <pt x="639" y="0" on="1"/>
        <pt x="623" y="0" on="1"/>
        <pt x="539" y="217" on="1"/>
        <pt x="184" y="217" on="1"/>
        <pt x="100" y="0" on="1"/>
        <pt x="7" y="0" on="1"/>
        <pt x="7" y="7" on="1"/>
        <pt x="290" y="740" on="1"/>
        <pt x="433" y="740" on="1"/>
        <pt x="716" y="7" on="1"/>
        <pt x="716" y="-18" on="1"/>
        <pt x="650" y="-50" on="0"/>
        <pt x="592" y="-105" on="0"/>
        <pt x="592" y="-132" on="1"/>
        <pt x="592" y="-164" on="0"/>
        <pt x="637" y="-164" on="1"/>
        <pt x="652" y="-164" on="0"/>
        <pt x="695" y="-158" on="0"/>
        <pt x="715" y="-153" on="1"/>
        <pt x="715" y="-208" on="1"/>
        <pt x="700" y="-214" on="0"/>
        <pt x="659" y="-220" on="0"/>
      </contour>
      <contour>
        <pt x="512" y="297" on="1"/>
        <pt x="418" y="540" on="1"/>
        <pt x="366" y="676" on="1"/>
        <pt x="357" y="676" on="1"/>
        <pt x="306" y="540" on="1"/>
        <pt x="211" y="297" on="1"/>
      </contour>
    </TTGlyph>
    <TTGlyph name="Aogonek.sc" xMin="12" yMin="-170" xMax="640" yMax="577">
      <contour>
        <pt x="568" y="-170" on="1"/>
        <pt x="470" y="-170" on="0"/>
        <pt x="470" y="-104" on="1"/>
        <pt x="470" y="-76" on="0"/>
        <pt x="511" y="-27" on="0"/>
        <pt x="561" y="0" on="1"/>
        <pt x="550" y="0" on="1"/>
        <pt x="480" y="160" on="1"/>
        <pt x="173" y="160" on="1"/>
        <pt x="101" y="0" on="1"/>
        <pt x="12" y="0" on="1"/>
        <pt x="12" y="6" on="1"/>
        <pt x="258" y="577" on="1"/>
        <pt x="395" y="577" on="1"/>
        <pt x="640" y="6" on="1"/>
        <pt x="640" y="-10" on="1"/>
        <pt x="581" y="-33" on="0"/>
        <pt x="532" y="-70" on="0"/>
        <pt x="532" y="-92" on="1"/>
        <pt x="532" y="-108" on="0"/>
        <pt x="552" y="-118" on="0"/>
        <pt x="570" y="-118" on="1"/>
        <pt x="584" y="-118" on="0"/>
        <pt x="625" y="-114" on="0"/>
        <pt x="640" y="-109" on="1"/>
        <pt x="640" y="-160" on="1"/>
        <pt x="624" y="-165" on="0"/>
        <pt x="586" y="-170" on="0"/>
      </contour>
      <contour>
        <pt x="456" y="229" on="1"/>
        <pt x="375" y="417" on="1"/>
        <pt x="330" y="517" on="1"/>
        <pt x="322" y="517" on="1"/>
        <pt x="278" y="416" on="1"/>
        <pt x="194" y="229" on="1"/>
      </contour>
    </TTGlyph>
    <TTGlyph name="Aring" xMin="7" yMin="0" xMax="716" yMax="1018">
      <contour>
        <pt x="7" y="7" on="1"/>
        <pt x="290" y="740" on="1"/>
        <pt x="433" y="740" on="1"/>
        <pt x="716" y="7" on="1"/>
        <pt x="716" y="0" on="1"/>
        <pt x="623" y="0" on="1"/>
        <pt x="539" y="217" on="1"/>
        <pt x="184" y="217" on="1"/>
        <pt x="100" y="0" on="1"/>
        <pt x="7" y="0" on="1"/>
      </contour>
      <contour>
        <pt x="512" y="297" on="1"/>
        <pt x="418" y="540" on="1"/>
        <pt x="366" y="676" on="1"/>
        <pt x="357" y="676" on="1"/>
        <pt x="306" y="540" on="1"/>
        <pt x="211" y="297" on="1"/>
      </contour>
      <contour>
        <pt x="363" y="798" on="1"/>
        <pt x="336" y="798" on="0"/>
        <pt x="289" y="814" on="0"/>
        <pt x="254" y="843" on="0"/>
        <pt x="235" y="883" on="0"/>
        <pt x="235" y="907" on="1"/>
        <pt x="235" y="931" on="0"/>
        <pt x="254" y="972" on="0"/>
        <pt x="289" y="1001" on="0"/>
        <pt x="336" y="1018" on="0"/>
        <pt x="363" y="1018" on="1"/>
        <pt x="390" y="1018" on="0"/>
        <pt x="436" y="1001" on="0"/>
        <pt x="471" y="972" on="0"/>
        <pt x="490" y="931" on="0"/>
        <pt x="490" y="907" on="1"/>
        <pt x="490" y="883" on="0"/>
        <pt x="471" y="843" on="0"/>
        <pt x="436" y="814" on="0"/>
        <pt x="390" y="798" on="0"/>
      </contour>
      <contour>
        <pt x="363" y="843" on="1"/>
        <pt x="440" y="843" on="0"/>
        <pt x="440" y="907" on="1"/>
        <pt x="440" y="939" on="0"/>
        <pt x="401" y="973" on="0"/>
        <pt x="363" y="973" on="1"/>
        <pt x="325" y="973" on="0"/>
        <pt x="285" y="939" on="0"/>
        <pt x="285" y="907" on="1"/>
        <pt x="285" y="843" on="0"/>
      </contour>
    </TTGlyph>
    <TTGlyph name="Aring.sc" xMin="13" yMin="0" xMax="641" yMax="798">
      <contour>
        <pt x="13" y="6" on="1"/>
        <pt x="259" y="577" on="1"/>
        <pt x="396" y="577" on="1"/>
        <pt x="641" y="6" on="1"/>
        <pt x="641" y="0" on="1"/>
        <pt x="552" y="0" on="1"/>
        <pt x="481" y="160" on="1"/>
        <pt x="174" y="160" on="1"/>
        <pt x="102" y="0" on="1"/>
        <pt x="13" y="0" on="1"/>
      </contour>
      <contour>
        <pt x="458" y="229" on="1"/>
        <pt x="376" y="415" on="1"/>
        <pt x="331" y="517" on="1"/>
        <pt x="323" y="517" on="1"/>
        <pt x="279" y="414" on="1"/>
        <pt x="196" y="229" on="1"/>
      </contour>
      <contour>
        <pt x="330" y="624" on="1"/>
        <pt x="281" y="624" on="0"/>
        <pt x="216" y="672" on="0"/>
        <pt x="216" y="710" on="1"/>
        <pt x="216" y="748" on="0"/>
        <pt x="281" y="798" on="0"/>
        <pt x="330" y="798" on="1"/>
        <pt x="378" y="798" on="0"/>
        <pt x="442" y="748" on="0"/>
        <pt x="442" y="710" on="1"/>
        <pt x="442" y="672" on="0"/>
        <pt x="378" y="624" on="0"/>
      </contour>
      <contour>
        <pt x="330" y="662" on="1"/>
        <pt x="396" y="662" on="0"/>
        <pt x="396" y="710" on="1"/>
        <pt x="396" y="759" on="0"/>
        <pt x="330" y="759" on="1"/>
        <pt x="262" y="759" on="0"/>
        <pt x="262" y="710" on="1"/>
        <pt x="262" y="662" on="0"/>
      </contour>
    </TTGlyph>
    <TTGlyph name="Aringacute" xMin="8" yMin="0" xMax="716" yMax="981">
      <contour>
        <pt x="8" y="7" on="1"/>
        <pt x="262" y="668" on="1"/>
        <pt x="239" y="682" on="0"/>
        <pt x="212" y="727" on="0"/>
        <pt x="212" y="756" on="1"/>
        <pt x="212" y="803" on="0"/>
        <pt x="277" y="867" on="0"/>
        <pt x="330" y="875" on="1"/>
        <pt x="391" y="981" on="1"/>
        <pt x="487" y="981" on="1"/>
        <pt x="413" y="870" on="1"/>
        <pt x="457" y="859" on="0"/>
        <pt x="510" y="798" on="0"/>
        <pt x="510" y="756" on="1"/>
        <pt x="510" y="728" on="0"/>
        <pt x="484" y="682" on="0"/>
        <pt x="462" y="667" on="1"/>
        <pt x="716" y="7" on="1"/>
        <pt x="716" y="0" on="1"/>
        <pt x="624" y="0" on="1"/>
        <pt x="540" y="217" on="1"/>
        <pt x="185" y="217" on="1"/>
        <pt x="100" y="0" on="1"/>
        <pt x="8" y="0" on="1"/>
      </contour>
      <contour>
        <pt x="362" y="689" on="1"/>
        <pt x="400" y="689" on="0"/>
        <pt x="447" y="725" on="0"/>
        <pt x="447" y="756" on="1"/>
        <pt x="447" y="788" on="0"/>
        <pt x="400" y="824" on="0"/>
        <pt x="362" y="824" on="1"/>
        <pt x="323" y="824" on="0"/>
        <pt x="277" y="788" on="0"/>
        <pt x="277" y="756" on="1"/>
        <pt x="277" y="725" on="0"/>
        <pt x="323" y="689" on="0"/>
      </contour>
      <contour>
        <pt x="512" y="297" on="1"/>
        <pt x="419" y="540" on="1"/>
        <pt x="384" y="631" on="1"/>
        <pt x="340" y="631" on="1"/>
        <pt x="304" y="540" on="1"/>
        <pt x="211" y="297" on="1"/>
      </contour>
    </TTGlyph>
    <TTGlyph name="Aringacute.sc" xMin="14" yMin="0" xMax="642" yMax="772">
      <contour>
        <pt x="14" y="6" on="1"/>
        <pt x="235" y="523" on="1"/>
        <pt x="193" y="548" on="0"/>
        <pt x="193" y="591" on="1"/>
        <pt x="193" y="629" on="0"/>
        <pt x="250" y="680" on="0"/>
        <pt x="298" y="687" on="1"/>
        <pt x="350" y="772" on="1"/>
        <pt x="442" y="772" on="1"/>
        <pt x="376" y="683" on="1"/>
        <pt x="415" y="673" on="0"/>
        <pt x="463" y="624" on="0"/>
        <pt x="463" y="591" on="1"/>
        <pt x="463" y="569" on="0"/>
        <pt x="440" y="534" on="0"/>
        <pt x="420" y="522" on="1"/>
        <pt x="642" y="6" on="1"/>
        <pt x="642" y="0" on="1"/>
        <pt x="553" y="0" on="1"/>
        <pt x="482" y="160" on="1"/>
        <pt x="174" y="160" on="1"/>
        <pt x="103" y="0" on="1"/>
        <pt x="14" y="0" on="1"/>
      </contour>
      <contour>
        <pt x="328" y="541" on="1"/>
        <pt x="363" y="541" on="0"/>
        <pt x="402" y="568" on="0"/>
        <pt x="402" y="591" on="1"/>
        <pt x="402" y="615" on="0"/>
        <pt x="363" y="642" on="0"/>
        <pt x="328" y="642" on="1"/>
        <pt x="293" y="642" on="0"/>
        <pt x="253" y="615" on="0"/>
        <pt x="253" y="591" on="1"/>
        <pt x="253" y="568" on="0"/>
        <pt x="294" y="541" on="0"/>
      </contour>
      <contour>
        <pt x="459" y="229" on="1"/>
        <pt x="376" y="415" on="1"/>
        <pt x="346" y="487" on="1"/>
        <pt x="309" y="487" on="1"/>
        <pt x="280" y="414" on="1"/>
        <pt x="197" y="229" on="1"/>
      </contour>
    </TTGlyph>
    <TTGlyph name="Atilde" xMin="7" yMin="0" xMax="716" yMax="943">
      <contour>
        <pt x="7" y="7" on="1"/>
        <pt x="290" y="740" on="1"/>
        <pt x="433" y="740" on="1"/>
        <pt x="716" y="7" on="1"/>
        <pt x="716" y="0" on="1"/>
        <pt x="623" y="0" on="1"/>
        <pt x="539" y="217" on="1"/>
        <pt x="184" y="217" on="1"/>
        <pt x="100" y="0" on="1"/>
        <pt x="7" y="0" on="1"/>
      </contour>
      <contour>
        <pt x="512" y="297" on="1"/>
        <pt x="418" y="540" on="1"/>
        <pt x="366" y="676" on="1"/>
        <pt x="357" y="676" on="1"/>
        <pt x="306" y="540" on="1"/>
        <pt x="211" y="297" on="1"/>
      </contour>
      <contour>
        <pt x="153" y="866" on="1"/>
        <pt x="184" y="905" on="0"/>
        <pt x="254" y="943" on="0"/>
        <pt x="288" y="943" on="1"/>
        <pt x="313" y="943" on="0"/>
        <pt x="359" y="930" on="0"/>
        <pt x="402" y="915" on="0"/>
        <pt x="446" y="902" on="0"/>
        <pt x="470" y="902" on="1"/>
        <pt x="496" y="902" on="0"/>
        <pt x="544" y="920" on="0"/>
        <pt x="570" y="940" on="1"/>
        <pt x="593" y="911" on="1"/>
        <pt x="564" y="873" on="0"/>
        <pt x="489" y="834" on="0"/>
        <pt x="452" y="834" on="1"/>
        <pt x="429" y="834" on="0"/>
        <pt x="384" y="846" on="0"/>
        <pt x="339" y="861" on="0"/>
        <pt x="295" y="874" on="0"/>
        <pt x="273" y="874" on="1"/>
        <pt x="249" y="874" on="0"/>
        <pt x="203" y="858" on="0"/>
        <pt x="177" y="838" on="1"/>
      </contour>
    </TTGlyph>
    <TTGlyph name="Atilde.sc" xMin="13" yMin="0" xMax="641" yMax="745">
      <contour>
        <pt x="13" y="6" on="1"/>
        <pt x="259" y="577" on="1"/>
        <pt x="396" y="577" on="1"/>
        <pt x="641" y="6" on="1"/>
        <pt x="641" y="0" on="1"/>
        <pt x="552" y="0" on="1"/>
        <pt x="481" y="160" on="1"/>
        <pt x="174" y="160" on="1"/>
        <pt x="102" y="0" on="1"/>
        <pt x="13" y="0" on="1"/>
      </contour>
      <contour>
        <pt x="458" y="229" on="1"/>
        <pt x="376" y="415" on="1"/>
        <pt x="331" y="517" on="1"/>
        <pt x="323" y="517" on="1"/>
        <pt x="279" y="414" on="1"/>
        <pt x="196" y="229" on="1"/>
      </contour>
      <contour>
        <pt x="141" y="676" on="1"/>
        <pt x="168" y="711" on="0"/>
        <pt x="231" y="745" on="0"/>
        <pt x="262" y="745" on="1"/>
        <pt x="284" y="745" on="0"/>
        <pt x="325" y="735" on="0"/>
        <pt x="364" y="724" on="0"/>
        <pt x="402" y="714" on="0"/>
        <pt x="423" y="714" on="1"/>
        <pt x="445" y="714" on="0"/>
        <pt x="488" y="727" on="0"/>
        <pt x="512" y="742" on="1"/>
        <pt x="532" y="719" on="1"/>
        <pt x="505" y="685" on="0"/>
        <pt x="439" y="650" on="0"/>
        <pt x="407" y="650" on="1"/>
        <pt x="386" y="650" on="0"/>
        <pt x="346" y="660" on="0"/>
        <pt x="305" y="671" on="0"/>
        <pt x="265" y="681" on="0"/>
        <pt x="246" y="681" on="1"/>
        <pt x="225" y="681" on="0"/>
        <pt x="184" y="669" on="0"/>
        <pt x="161" y="652" on="1"/>
      </contour>
    </TTGlyph>
    <TTGlyph name="B" xMin="94" yMin="-10" xMax="651" yMax="749">
      <contour>
        <pt x="351" y="-10" on="1"/>
        <pt x="291" y="-10" on="0"/>
        <pt x="167" y="-3" on="0"/>
        <pt x="94" y="5" on="1"/>
        <pt x="94" y="735" on="1"/>
        <pt x="169" y="742" on="0"/>
        <pt x="283" y="749" on="0"/>
        <pt x="337" y="749" on="1"/>
        <pt x="414" y="749" on="0"/>
        <pt x="524" y="726" on="0"/>
        <pt x="594" y="678" on="0"/>
        <pt x="626" y="602" on="0"/>
        <pt x="626" y="549" on="1"/>
        <pt x="626" y="483" on="0"/>
        <pt x="556" y="392" on="0"/>
        <pt x="495" y="379" on="1"/>
        <pt x="495" y="375" on="1"/>
        <pt x="572" y="360" on="0"/>
        <pt x="651" y="269" on="0"/>
        <pt x="651" y="195" on="1"/>
        <pt x="651" y="-10" on="0"/>
      </contour>
      <contour>
        <pt x="346" y="61" on="1"/>
        <pt x="455" y="61" on="0"/>
        <pt x="558" y="130" on="0"/>
        <pt x="558" y="202" on="1"/>
        <pt x="558" y="342" on="0"/>
        <pt x="368" y="342" on="1"/>
        <pt x="184" y="342" on="1"/>
        <pt x="184" y="71" on="1"/>
        <pt x="210" y="66" on="0"/>
        <pt x="286" y="61" on="0"/>
      </contour>
      <contour>
        <pt x="361" y="409" on="1"/>
        <pt x="454" y="409" on="0"/>
        <pt x="534" y="471" on="0"/>
        <pt x="534" y="544" on="1"/>
        <pt x="534" y="617" on="0"/>
        <pt x="446" y="678" on="0"/>
        <pt x="340" y="678" on="1"/>
        <pt x="290" y="678" on="0"/>
        <pt x="215" y="674" on="0"/>
        <pt x="184" y="669" on="1"/>
        <pt x="184" y="409" on="1"/>
      </contour>
    </TTGlyph>
    <TTGlyph name="B.sc" xMin="88" yMin="-8" xMax="584" yMax="584">
      <contour>
        <pt x="319" y="-8" on="1"/>
        <pt x="266" y="-8" on="0"/>
        <pt x="155" y="-2" on="0"/>
        <pt x="88" y="4" on="1"/>
        <pt x="88" y="573" on="1"/>
        <pt x="154" y="578" on="0"/>
        <pt x="258" y="584" on="0"/>
        <pt x="306" y="584" on="1"/>
        <pt x="442" y="584" on="0"/>
        <pt x="562" y="510" on="0"/>
        <pt x="562" y="427" on="1"/>
        <pt x="562" y="376" on="0"/>
        <pt x="500" y="307" on="0"/>
        <pt x="446" y="296" on="1"/>
        <pt x="446" y="293" on="1"/>
        <pt x="514" y="281" on="0"/>
        <pt x="584" y="210" on="0"/>
        <pt x="584" y="153" on="1"/>
        <pt x="584" y="-8" on="0"/>
      </contour>
      <contour>
        <pt x="315" y="57" on="1"/>
        <pt x="408" y="57" on="0"/>
        <pt x="494" y="107" on="0"/>
        <pt x="494" y="161" on="1"/>
        <pt x="494" y="213" on="0"/>
        <pt x="416" y="263" on="0"/>
        <pt x="335" y="263" on="1"/>
        <pt x="175" y="263" on="1"/>
        <pt x="175" y="64" on="1"/>
        <pt x="198" y="60" on="0"/>
        <pt x="261" y="57" on="0"/>
      </contour>
      <contour>
        <pt x="327" y="322" on="1"/>
        <pt x="406" y="322" on="0"/>
        <pt x="474" y="367" on="0"/>
        <pt x="474" y="421" on="1"/>
        <pt x="474" y="448" on="0"/>
        <pt x="456" y="486" on="0"/>
        <pt x="417" y="509" on="0"/>
        <pt x="354" y="519" on="0"/>
        <pt x="308" y="519" on="1"/>
        <pt x="266" y="519" on="0"/>
        <pt x="201" y="517" on="0"/>
        <pt x="175" y="513" on="1"/>
        <pt x="175" y="322" on="1"/>
      </contour>
    </TTGlyph>
    <TTGlyph name="C" xMin="54" yMin="-9" xMax="581" yMax="751">
      <contour>
        <pt x="400" y="-9" on="1"/>
        <pt x="228" y="-9" on="0"/>
        <pt x="54" y="181" on="0"/>
        <pt x="54" y="368" on="1"/>
        <pt x="54" y="558" on="0"/>
        <pt x="228" y="751" on="0"/>
        <pt x="399" y="751" on="1"/>
        <pt x="436" y="751" on="0"/>
        <pt x="533" y="740" on="0"/>
        <pt x="581" y="731" on="1"/>
        <pt x="581" y="652" on="1"/>
        <pt x="523" y="662" on="0"/>
        <pt x="440" y="671" on="0"/>
        <pt x="408" y="671" on="1"/>
        <pt x="276" y="671" on="0"/>
        <pt x="149" y="522" on="0"/>
        <pt x="149" y="369" on="1"/>
        <pt x="149" y="217" on="0"/>
        <pt x="272" y="70" on="0"/>
        <pt x="400" y="70" on="1"/>
        <pt x="418" y="70" on="0"/>
        <pt x="467" y="74" on="0"/>
        <pt x="518" y="80" on="0"/>
        <pt x="565" y="88" on="0"/>
        <pt x="581" y="92" on="1"/>
        <pt x="581" y="14" on="1"/>
        <pt x="562" y="9" on="0"/>
        <pt x="515" y="1" on="0"/>
        <pt x="466" y="-5" on="0"/>
        <pt x="419" y="-9" on="0"/>
      </contour>
    </TTGlyph>
    <TTGlyph name="C.sc" xMin="54" yMin="-8" xMax="519" yMax="586">
      <contour>
        <pt x="360" y="-8" on="1"/>
        <pt x="207" y="-8" on="0"/>
        <pt x="54" y="141" on="0"/>
        <pt x="54" y="287" on="1"/>
        <pt x="54" y="436" on="0"/>
        <pt x="207" y="586" on="0"/>
        <pt x="358" y="586" on="1"/>
        <pt x="393" y="586" on="0"/>
        <pt x="478" y="578" on="0"/>
        <pt x="519" y="571" on="1"/>
        <pt x="519" y="496" on="1"/>
        <pt x="472" y="504" on="0"/>
        <pt x="399" y="511" on="0"/>
        <pt x="367" y="511" on="1"/>
        <pt x="252" y="511" on="0"/>
        <pt x="146" y="402" on="0"/>
        <pt x="146" y="288" on="1"/>
        <pt x="146" y="175" on="0"/>
        <pt x="248" y="68" on="0"/>
        <pt x="360" y="68" on="1"/>
        <pt x="376" y="68" on="0"/>
        <pt x="419" y="71" on="0"/>
        <pt x="464" y="75" on="0"/>
        <pt x="505" y="81" on="0"/>
        <pt x="519" y="84" on="1"/>
        <pt x="519" y="10" on="1"/>
        <pt x="502" y="6" on="0"/>
        <pt x="461" y="0" on="0"/>
        <pt x="418" y="-5" on="0"/>
        <pt x="377" y="-8" on="0"/>
      </contour>
    </TTGlyph>
    <TTGlyph name="Cacute" xMin="54" yMin="-9" xMax="581" yMax="953">
      <contour>
        <pt x="400" y="-9" on="1"/>
        <pt x="228" y="-9" on="0"/>
        <pt x="54" y="181" on="0"/>
        <pt x="54" y="368" on="1"/>
        <pt x="54" y="558" on="0"/>
        <pt x="228" y="751" on="0"/>
        <pt x="399" y="751" on="1"/>
        <pt x="436" y="751" on="0"/>
        <pt x="533" y="740" on="0"/>
        <pt x="581" y="731" on="1"/>
        <pt x="581" y="652" on="1"/>
        <pt x="523" y="662" on="0"/>
        <pt x="440" y="671" on="0"/>
        <pt x="408" y="671" on="1"/>
        <pt x="276" y="671" on="0"/>
        <pt x="149" y="522" on="0"/>
        <pt x="149" y="369" on="1"/>
        <pt x="149" y="217" on="0"/>
        <pt x="272" y="70" on="0"/>
        <pt x="400" y="70" on="1"/>
        <pt x="418" y="70" on="0"/>
        <pt x="467" y="74" on="0"/>
        <pt x="518" y="80" on="0"/>
        <pt x="565" y="88" on="0"/>
        <pt x="581" y="92" on="1"/>
        <pt x="581" y="14" on="1"/>
        <pt x="562" y="9" on="0"/>
        <pt x="515" y="1" on="0"/>
        <pt x="466" y="-5" on="0"/>
        <pt x="419" y="-9" on="0"/>
      </contour>
      <contour>
        <pt x="321" y="812" on="1"/>
        <pt x="395" y="953" on="1"/>
        <pt x="491" y="953" on="1"/>
        <pt x="392" y="805" on="1"/>
      </contour>
    </TTGlyph>
    <TTGlyph name="Cacute.sc" xMin="54" yMin="-8" xMax="519" yMax="751">
      <contour>
        <pt x="360" y="-8" on="1"/>
        <pt x="207" y="-8" on="0"/>
        <pt x="54" y="141" on="0"/>
        <pt x="54" y="287" on="1"/>
        <pt x="54" y="436" on="0"/>
        <pt x="207" y="586" on="0"/>
        <pt x="358" y="586" on="1"/>
        <pt x="390" y="586" on="0"/>
        <pt x="474" y="579" on="0"/>
        <pt x="519" y="571" on="1"/>
        <pt x="519" y="496" on="1"/>
        <pt x="465" y="504" on="0"/>
        <pt x="394" y="511" on="0"/>
        <pt x="366" y="511" on="1"/>
        <pt x="253" y="511" on="0"/>
        <pt x="146" y="403" on="0"/>
        <pt x="146" y="288" on="1"/>
        <pt x="146" y="174" on="0"/>
        <pt x="249" y="68" on="0"/>
        <pt x="360" y="68" on="1"/>
        <pt x="375" y="68" on="0"/>
        <pt x="419" y="71" on="0"/>
        <pt x="464" y="75" on="0"/>
        <pt x="505" y="81" on="0"/>
        <pt x="519" y="84" on="1"/>
        <pt x="519" y="10" on="1"/>
        <pt x="502" y="6" on="0"/>
        <pt x="460" y="0" on="0"/>
        <pt x="417" y="-5" on="0"/>
        <pt x="376" y="-8" on="0"/>
      </contour>
      <contour>
        <pt x="284" y="635" on="1"/>
        <pt x="348" y="751" on="1"/>
        <pt x="440" y="751" on="1"/>
        <pt x="353" y="629" on="1"/>
      </contour>
    </TTGlyph>
    <TTGlyph name="Ccaron" xMin="54" yMin="-9" xMax="581" yMax="961">
      <contour>
        <pt x="400" y="-9" on="1"/>
        <pt x="228" y="-9" on="0"/>
        <pt x="54" y="181" on="0"/>
        <pt x="54" y="368" on="1"/>
        <pt x="54" y="558" on="0"/>
        <pt x="228" y="751" on="0"/>
        <pt x="399" y="751" on="1"/>
        <pt x="436" y="751" on="0"/>
        <pt x="533" y="740" on="0"/>
        <pt x="581" y="731" on="1"/>
        <pt x="581" y="652" on="1"/>
        <pt x="523" y="662" on="0"/>
        <pt x="440" y="671" on="0"/>
        <pt x="408" y="671" on="1"/>
        <pt x="276" y="671" on="0"/>
        <pt x="149" y="522" on="0"/>
        <pt x="149" y="369" on="1"/>
        <pt x="149" y="217" on="0"/>
        <pt x="272" y="70" on="0"/>
        <pt x="400" y="70" on="1"/>
        <pt x="418" y="70" on="0"/>
        <pt x="467" y="74" on="0"/>
        <pt x="518" y="80" on="0"/>
        <pt x="565" y="88" on="0"/>
        <pt x="581" y="92" on="1"/>
        <pt x="581" y="14" on="1"/>
        <pt x="562" y="9" on="0"/>
        <pt x="515" y="1" on="0"/>
        <pt x="466" y="-5" on="0"/>
        <pt x="419" y="-9" on="0"/>
      </contour>
      <contour>
        <pt x="187" y="961" on="1"/>
        <pt x="363" y="886" on="1"/>
        <pt x="539" y="961" on="1"/>
        <pt x="539" y="887" on="1"/>
        <pt x="362" y="812" on="1"/>
        <pt x="187" y="887" on="1"/>
      </contour>
    </TTGlyph>
    <TTGlyph name="Ccaron.sc" xMin="54" yMin="-8" xMax="519" yMax="758">
      <contour>
        <pt x="360" y="-8" on="1"/>
        <pt x="207" y="-8" on="0"/>
        <pt x="54" y="141" on="0"/>
        <pt x="54" y="287" on="1"/>
        <pt x="54" y="436" on="0"/>
        <pt x="207" y="586" on="0"/>
        <pt x="358" y="586" on="1"/>
        <pt x="390" y="586" on="0"/>
        <pt x="474" y="579" on="0"/>
        <pt x="519" y="571" on="1"/>
        <pt x="519" y="496" on="1"/>
        <pt x="465" y="504" on="0"/>
        <pt x="394" y="511" on="0"/>
        <pt x="366" y="511" on="1"/>
        <pt x="253" y="511" on="0"/>
        <pt x="146" y="403" on="0"/>
        <pt x="146" y="288" on="1"/>
        <pt x="146" y="174" on="0"/>
        <pt x="249" y="68" on="0"/>
        <pt x="360" y="68" on="1"/>
        <pt x="375" y="68" on="0"/>
        <pt x="419" y="71" on="0"/>
        <pt x="464" y="75" on="0"/>
        <pt x="505" y="81" on="0"/>
        <pt x="519" y="84" on="1"/>
        <pt x="519" y="10" on="1"/>
        <pt x="502" y="6" on="0"/>
        <pt x="460" y="0" on="0"/>
        <pt x="417" y="-5" on="0"/>
        <pt x="376" y="-8" on="0"/>
      </contour>
      <contour>
        <pt x="167" y="758" on="1"/>
        <pt x="325" y="699" on="1"/>
        <pt x="483" y="758" on="1"/>
        <pt x="483" y="692" on="1"/>
        <pt x="324" y="633" on="1"/>
        <pt x="167" y="692" on="1"/>
      </contour>
    </TTGlyph>
    <TTGlyph name="Ccedilla" xMin="54" yMin="-220" xMax="581" yMax="751">
      <contour>
        <pt x="329" y="-220" on="1"/>
        <pt x="309" y="-220" on="0"/>
        <pt x="257" y="-213" on="0"/>
        <pt x="234" y="-208" on="1"/>
        <pt x="234" y="-146" on="1"/>
        <pt x="265" y="-157" on="0"/>
        <pt x="307" y="-157" on="1"/>
        <pt x="349" y="-157" on="0"/>
        <pt x="383" y="-131" on="0"/>
        <pt x="383" y="-99" on="1"/>
        <pt x="383" y="-79" on="0"/>
        <pt x="367" y="-38" on="0"/>
        <pt x="347" y="-6" on="1"/>
        <pt x="201" y="8" on="0"/>
        <pt x="54" y="196" on="0"/>
        <pt x="54" y="368" on="1"/>
        <pt x="54" y="558" on="0"/>
        <pt x="228" y="751" on="0"/>
        <pt x="399" y="751" on="1"/>
        <pt x="436" y="751" on="0"/>
        <pt x="533" y="740" on="0"/>
        <pt x="581" y="731" on="1"/>
        <pt x="581" y="652" on="1"/>
        <pt x="523" y="662" on="0"/>
        <pt x="440" y="671" on="0"/>
        <pt x="408" y="671" on="1"/>
        <pt x="276" y="671" on="0"/>
        <pt x="149" y="522" on="0"/>
        <pt x="149" y="369" on="1"/>
        <pt x="149" y="217" on="0"/>
        <pt x="272" y="70" on="0"/>
        <pt x="400" y="70" on="1"/>
        <pt x="418" y="70" on="0"/>
        <pt x="467" y="74" on="0"/>
        <pt x="518" y="80" on="0"/>
        <pt x="565" y="88" on="0"/>
        <pt x="581" y="92" on="1"/>
        <pt x="581" y="14" on="1"/>
        <pt x="546" y="5" on="0"/>
        <pt x="454" y="-7" on="0"/>
        <pt x="416" y="-9" on="1"/>
        <pt x="438" y="-44" on="0"/>
        <pt x="453" y="-84" on="0"/>
        <pt x="453" y="-106" on="1"/>
        <pt x="453" y="-160" on="0"/>
        <pt x="388" y="-220" on="0"/>
      </contour>
    </TTGlyph>
    <TTGlyph name="Ccedilla.sc" xMin="54" yMin="-172" xMax="519" yMax="586">
      <contour>
        <pt x="299" y="-172" on="1"/>
        <pt x="282" y="-172" on="0"/>
        <pt x="237" y="-167" on="0"/>
        <pt x="214" y="-162" on="1"/>
        <pt x="214" y="-106" on="1"/>
        <pt x="229" y="-110" on="0"/>
        <pt x="262" y="-115" on="0"/>
        <pt x="281" y="-115" on="1"/>
        <pt x="317" y="-115" on="0"/>
        <pt x="343" y="-93" on="0"/>
        <pt x="343" y="-69" on="1"/>
        <pt x="343" y="-58" on="0"/>
        <pt x="332" y="-32" on="0"/>
        <pt x="316" y="-7" on="1"/>
        <pt x="185" y="1" on="0"/>
        <pt x="54" y="150" on="0"/>
        <pt x="54" y="287" on="1"/>
        <pt x="54" y="436" on="0"/>
        <pt x="207" y="586" on="0"/>
        <pt x="358" y="586" on="1"/>
        <pt x="390" y="586" on="0"/>
        <pt x="474" y="579" on="0"/>
        <pt x="519" y="571" on="1"/>
        <pt x="519" y="496" on="1"/>
        <pt x="465" y="504" on="0"/>
        <pt x="394" y="511" on="0"/>
        <pt x="367" y="511" on="1"/>
        <pt x="253" y="511" on="0"/>
        <pt x="146" y="403" on="0"/>
        <pt x="146" y="288" on="1"/>
        <pt x="146" y="174" on="0"/>
        <pt x="249" y="68" on="0"/>
        <pt x="360" y="68" on="1"/>
        <pt x="376" y="68" on="0"/>
        <pt x="419" y="71" on="0"/>
        <pt x="464" y="75" on="0"/>
        <pt x="505" y="81" on="0"/>
        <pt x="519" y="84" on="1"/>
        <pt x="519" y="10" on="1"/>
        <pt x="490" y="3" on="0"/>
        <pt x="412" y="-6" on="0"/>
        <pt x="380" y="-8" on="1"/>
        <pt x="396" y="-34" on="0"/>
        <pt x="408" y="-65" on="0"/>
        <pt x="408" y="-81" on="1"/>
        <pt x="408" y="-125" on="0"/>
        <pt x="351" y="-172" on="0"/>
      </contour>
    </TTGlyph>
    <TTGlyph name="Ccircumflex" xMin="54" yMin="-9" xMax="581" yMax="961">
      <contour>
        <pt x="400" y="-9" on="1"/>
        <pt x="228" y="-9" on="0"/>
        <pt x="54" y="181" on="0"/>
        <pt x="54" y="368" on="1"/>
        <pt x="54" y="558" on="0"/>
        <pt x="228" y="751" on="0"/>
        <pt x="399" y="751" on="1"/>
        <pt x="436" y="751" on="0"/>
        <pt x="533" y="740" on="0"/>
        <pt x="581" y="731" on="1"/>
        <pt x="581" y="652" on="1"/>
        <pt x="523" y="662" on="0"/>
        <pt x="440" y="671" on="0"/>
        <pt x="408" y="671" on="1"/>
        <pt x="276" y="671" on="0"/>
        <pt x="149" y="522" on="0"/>
        <pt x="149" y="369" on="1"/>
        <pt x="149" y="217" on="0"/>
        <pt x="272" y="70" on="0"/>
        <pt x="400" y="70" on="1"/>
        <pt x="418" y="70" on="0"/>
        <pt x="467" y="74" on="0"/>
        <pt x="518" y="80" on="0"/>
        <pt x="565" y="88" on="0"/>
        <pt x="581" y="92" on="1"/>
        <pt x="581" y="14" on="1"/>
        <pt x="562" y="9" on="0"/>
        <pt x="515" y="1" on="0"/>
        <pt x="466" y="-5" on="0"/>
        <pt x="419" y="-9" on="0"/>
      </contour>
      <contour>
        <pt x="186" y="886" on="1"/>
        <pt x="362" y="961" on="1"/>
        <pt x="538" y="886" on="1"/>
        <pt x="538" y="812" on="1"/>
        <pt x="362" y="887" on="1"/>
        <pt x="186" y="812" on="1"/>
      </contour>
    </TTGlyph>
    <TTGlyph name="Ccircumflex.sc" xMin="54" yMin="-8" xMax="519" yMax="758">
      <contour>
        <pt x="360" y="-8" on="1"/>
        <pt x="207" y="-8" on="0"/>
        <pt x="54" y="141" on="0"/>
        <pt x="54" y="287" on="1"/>
        <pt x="54" y="436" on="0"/>
        <pt x="207" y="586" on="0"/>
        <pt x="358" y="586" on="1"/>
        <pt x="390" y="586" on="0"/>
        <pt x="474" y="579" on="0"/>
        <pt x="519" y="571" on="1"/>
        <pt x="519" y="496" on="1"/>
        <pt x="465" y="504" on="0"/>
        <pt x="394" y="511" on="0"/>
        <pt x="366" y="511" on="1"/>
        <pt x="253" y="511" on="0"/>
        <pt x="146" y="403" on="0"/>
        <pt x="146" y="288" on="1"/>
        <pt x="146" y="174" on="0"/>
        <pt x="249" y="68" on="0"/>
        <pt x="360" y="68" on="1"/>
        <pt x="375" y="68" on="0"/>
        <pt x="419" y="71" on="0"/>
        <pt x="464" y="75" on="0"/>
        <pt x="505" y="81" on="0"/>
        <pt x="519" y="84" on="1"/>
        <pt x="519" y="10" on="1"/>
        <pt x="502" y="6" on="0"/>
        <pt x="460" y="0" on="0"/>
        <pt x="417" y="-5" on="0"/>
        <pt x="376" y="-8" on="0"/>
      </contour>
      <contour>
        <pt x="166" y="698" on="1"/>
        <pt x="324" y="758" on="1"/>
        <pt x="483" y="698" on="1"/>
        <pt x="483" y="632" on="1"/>
        <pt x="325" y="691" on="1"/>
        <pt x="166" y="632" on="1"/>
      </contour>
    </TTGlyph>
    <TTGlyph name="Cdotaccent" xMin="54" yMin="-9" xMax="581" yMax="934">
      <contour>
        <pt x="371" y="818" on="1"/>
        <pt x="341" y="818" on="0"/>
        <pt x="311" y="845" on="0"/>
        <pt x="311" y="876" on="1"/>
        <pt x="311" y="907" on="0"/>
        <pt x="341" y="934" on="0"/>
        <pt x="371" y="934" on="1"/>
        <pt x="400" y="934" on="0"/>
        <pt x="431" y="907" on="0"/>
        <pt x="431" y="876" on="1"/>
        <pt x="431" y="818" on="0"/>
      </contour>
      <contour>
        <pt x="400" y="-9" on="1"/>
        <pt x="228" y="-9" on="0"/>
        <pt x="54" y="181" on="0"/>
        <pt x="54" y="368" on="1"/>
        <pt x="54" y="558" on="0"/>
        <pt x="228" y="751" on="0"/>
        <pt x="399" y="751" on="1"/>
        <pt x="436" y="751" on="0"/>
        <pt x="533" y="740" on="0"/>
        <pt x="581" y="731" on="1"/>
        <pt x="581" y="652" on="1"/>
        <pt x="523" y="662" on="0"/>
        <pt x="440" y="671" on="0"/>
        <pt x="408" y="671" on="1"/>
        <pt x="276" y="671" on="0"/>
        <pt x="149" y="522" on="0"/>
        <pt x="149" y="369" on="1"/>
        <pt x="149" y="217" on="0"/>
        <pt x="272" y="70" on="0"/>
        <pt x="400" y="70" on="1"/>
        <pt x="418" y="70" on="0"/>
        <pt x="467" y="74" on="0"/>
        <pt x="518" y="80" on="0"/>
        <pt x="565" y="88" on="0"/>
        <pt x="581" y="92" on="1"/>
        <pt x="581" y="14" on="1"/>
        <pt x="562" y="9" on="0"/>
        <pt x="515" y="1" on="0"/>
        <pt x="466" y="-5" on="0"/>
        <pt x="419" y="-9" on="0"/>
      </contour>
    </TTGlyph>
    <TTGlyph name="Cdotaccent.sc" xMin="54" yMin="-8" xMax="519" yMax="741">
      <contour>
        <pt x="360" y="-8" on="1"/>
        <pt x="207" y="-8" on="0"/>
        <pt x="54" y="141" on="0"/>
        <pt x="54" y="287" on="1"/>
        <pt x="54" y="436" on="0"/>
        <pt x="207" y="586" on="0"/>
        <pt x="358" y="586" on="1"/>
        <pt x="390" y="586" on="0"/>
        <pt x="474" y="579" on="0"/>
        <pt x="519" y="571" on="1"/>
        <pt x="519" y="496" on="1"/>
        <pt x="465" y="504" on="0"/>
        <pt x="394" y="511" on="0"/>
        <pt x="366" y="511" on="1"/>
        <pt x="253" y="511" on="0"/>
        <pt x="146" y="403" on="0"/>
        <pt x="146" y="288" on="1"/>
        <pt x="146" y="174" on="0"/>
        <pt x="249" y="68" on="0"/>
        <pt x="360" y="68" on="1"/>
        <pt x="375" y="68" on="0"/>
        <pt x="419" y="71" on="0"/>
        <pt x="464" y="75" on="0"/>
        <pt x="505" y="81" on="0"/>
        <pt x="519" y="84" on="1"/>
        <pt x="519" y="10" on="1"/>
        <pt x="502" y="6" on="0"/>
        <pt x="460" y="0" on="0"/>
        <pt x="417" y="-5" on="0"/>
        <pt x="376" y="-8" on="0"/>
      </contour>
      <contour>
        <pt x="334" y="636" on="1"/>
        <pt x="305" y="636" on="0"/>
        <pt x="278" y="660" on="0"/>
        <pt x="278" y="689" on="1"/>
        <pt x="278" y="717" on="0"/>
        <pt x="305" y="741" on="0"/>
        <pt x="334" y="741" on="1"/>
        <pt x="389" y="741" on="0"/>
        <pt x="389" y="689" on="1"/>
        <pt x="389" y="636" on="0"/>
      </contour>
    </TTGlyph>
    <TTGlyph name="D" xMin="94" yMin="-9" xMax="722" yMax="749">
      <contour>
        <pt x="302" y="-9" on="1"/>
        <pt x="268" y="-9" on="0"/>
        <pt x="204" y="-7" on="0"/>
        <pt x="149" y="-3" on="0"/>
        <pt x="106" y="3" on="0"/>
        <pt x="94" y="7" on="1"/>
        <pt x="94" y="739" on="1"/>
        <pt x="120" y="741" on="0"/>
        <pt x="182" y="744" on="0"/>
        <pt x="243" y="747" on="0"/>
        <pt x="299" y="749" on="0"/>
        <pt x="319" y="749" on="1"/>
        <pt x="527" y="749" on="0"/>
        <pt x="722" y="566" on="0"/>
        <pt x="722" y="370" on="1"/>
        <pt x="722" y="271" on="0"/>
        <pt x="673" y="128" on="0"/>
        <pt x="571" y="35" on="0"/>
        <pt x="412" y="-9" on="0"/>
      </contour>
      <contour>
        <pt x="331" y="68" on="1"/>
        <pt x="486" y="68" on="0"/>
        <pt x="627" y="212" on="0"/>
        <pt x="627" y="370" on="1"/>
        <pt x="627" y="527" on="0"/>
        <pt x="485" y="670" on="0"/>
        <pt x="329" y="670" on="1"/>
        <pt x="301" y="670" on="0"/>
        <pt x="221" y="666" on="0"/>
        <pt x="187" y="663" on="1"/>
        <pt x="187" y="79" on="1"/>
        <pt x="228" y="73" on="0"/>
        <pt x="291" y="68" on="0"/>
      </contour>
    </TTGlyph>
    <TTGlyph name="D.sc" xMin="88" yMin="-7" xMax="646" yMax="584">
      <contour>
        <pt x="291" y="-7" on="1"/>
        <pt x="259" y="-7" on="0"/>
        <pt x="198" y="-5" on="0"/>
        <pt x="144" y="-2" on="0"/>
        <pt x="101" y="3" on="0"/>
        <pt x="88" y="6" on="1"/>
        <pt x="88" y="576" on="1"/>
        <pt x="112" y="578" on="0"/>
        <pt x="167" y="581" on="0"/>
        <pt x="222" y="583" on="0"/>
        <pt x="272" y="584" on="0"/>
        <pt x="291" y="584" on="1"/>
        <pt x="474" y="584" on="0"/>
        <pt x="646" y="441" on="0"/>
        <pt x="646" y="288" on="1"/>
        <pt x="646" y="136" on="0"/>
        <pt x="474" y="-7" on="0"/>
      </contour>
      <contour>
        <pt x="304" y="66" on="1"/>
        <pt x="436" y="66" on="0"/>
        <pt x="555" y="172" on="0"/>
        <pt x="555" y="288" on="1"/>
        <pt x="555" y="405" on="0"/>
        <pt x="435" y="510" on="0"/>
        <pt x="301" y="510" on="1"/>
        <pt x="277" y="510" on="0"/>
        <pt x="207" y="507" on="0"/>
        <pt x="178" y="505" on="1"/>
        <pt x="178" y="74" on="1"/>
        <pt x="213" y="69" on="0"/>
        <pt x="268" y="66" on="0"/>
      </contour>
    </TTGlyph>
    <TTGlyph name="Dcaron" xMin="94" yMin="-9" xMax="722" yMax="961">
      <contour>
        <pt x="187" y="961" on="1"/>
        <pt x="363" y="886" on="1"/>
        <pt x="539" y="961" on="1"/>
        <pt x="539" y="887" on="1"/>
        <pt x="362" y="812" on="1"/>
        <pt x="187" y="887" on="1"/>
      </contour>
      <contour>
        <pt x="302" y="-9" on="1"/>
        <pt x="268" y="-9" on="0"/>
        <pt x="204" y="-7" on="0"/>
        <pt x="149" y="-3" on="0"/>
        <pt x="106" y="3" on="0"/>
        <pt x="94" y="7" on="1"/>
        <pt x="94" y="739" on="1"/>
        <pt x="120" y="741" on="0"/>
        <pt x="182" y="744" on="0"/>
        <pt x="243" y="747" on="0"/>
        <pt x="299" y="749" on="0"/>
        <pt x="319" y="749" on="1"/>
        <pt x="527" y="749" on="0"/>
        <pt x="722" y="566" on="0"/>
        <pt x="722" y="370" on="1"/>
        <pt x="722" y="271" on="0"/>
        <pt x="673" y="128" on="0"/>
        <pt x="571" y="35" on="0"/>
        <pt x="412" y="-9" on="0"/>
      </contour>
      <contour>
        <pt x="331" y="68" on="1"/>
        <pt x="486" y="68" on="0"/>
        <pt x="627" y="212" on="0"/>
        <pt x="627" y="370" on="1"/>
        <pt x="627" y="527" on="0"/>
        <pt x="485" y="670" on="0"/>
        <pt x="329" y="670" on="1"/>
        <pt x="301" y="670" on="0"/>
        <pt x="221" y="666" on="0"/>
        <pt x="187" y="663" on="1"/>
        <pt x="187" y="79" on="1"/>
        <pt x="228" y="73" on="0"/>
        <pt x="291" y="68" on="0"/>
      </contour>
    </TTGlyph>
    <TTGlyph name="Dcaron.sc" xMin="88" yMin="-7" xMax="646" yMax="758">
      <contour>
        <pt x="291" y="-7" on="1"/>
        <pt x="259" y="-7" on="0"/>
        <pt x="198" y="-5" on="0"/>
        <pt x="144" y="-2" on="0"/>
        <pt x="101" y="3" on="0"/>
        <pt x="88" y="6" on="1"/>
        <pt x="88" y="576" on="1"/>
        <pt x="112" y="578" on="0"/>
        <pt x="167" y="581" on="0"/>
        <pt x="222" y="583" on="0"/>
        <pt x="272" y="584" on="0"/>
        <pt x="291" y="584" on="1"/>
        <pt x="474" y="584" on="0"/>
        <pt x="646" y="441" on="0"/>
        <pt x="646" y="288" on="1"/>
        <pt x="646" y="136" on="0"/>
        <pt x="474" y="-7" on="0"/>
      </contour>
      <contour>
        <pt x="304" y="66" on="1"/>
        <pt x="436" y="66" on="0"/>
        <pt x="555" y="172" on="0"/>
        <pt x="555" y="288" on="1"/>
        <pt x="555" y="405" on="0"/>
        <pt x="435" y="510" on="0"/>
        <pt x="301" y="510" on="1"/>
        <pt x="277" y="510" on="0"/>
        <pt x="207" y="507" on="0"/>
        <pt x="178" y="505" on="1"/>
        <pt x="178" y="74" on="1"/>
        <pt x="213" y="69" on="0"/>
        <pt x="268" y="66" on="0"/>
      </contour>
      <contour>
        <pt x="172" y="692" on="1"/>
        <pt x="172" y="758" on="1"/>
        <pt x="330" y="699" on="1"/>
        <pt x="488" y="758" on="1"/>
        <pt x="488" y="692" on="1"/>
        <pt x="329" y="633" on="1"/>
      </contour>
    </TTGlyph>
    <TTGlyph name="Dcroat" xMin="6" yMin="-9" xMax="733" yMax="749">
      <contour>
        <pt x="6" y="408" on="1"/>
        <pt x="105" y="408" on="1"/>
        <pt x="105" y="739" on="1"/>
        <pt x="131" y="741" on="0"/>
        <pt x="193" y="744" on="0"/>
        <pt x="254" y="747" on="0"/>
        <pt x="310" y="749" on="0"/>
        <pt x="330" y="749" on="1"/>
        <pt x="538" y="749" on="0"/>
        <pt x="733" y="566" on="0"/>
        <pt x="733" y="370" on="1"/>
        <pt x="733" y="271" on="0"/>
        <pt x="684" y="128" on="0"/>
        <pt x="582" y="35" on="0"/>
        <pt x="423" y="-9" on="0"/>
        <pt x="313" y="-9" on="1"/>
        <pt x="279" y="-9" on="0"/>
        <pt x="215" y="-7" on="0"/>
        <pt x="160" y="-3" on="0"/>
        <pt x="117" y="3" on="0"/>
        <pt x="105" y="7" on="1"/>
        <pt x="105" y="332" on="1"/>
        <pt x="6" y="332" on="1"/>
      </contour>
      <contour>
        <pt x="342" y="68" on="1"/>
        <pt x="497" y="68" on="0"/>
        <pt x="638" y="212" on="0"/>
        <pt x="638" y="370" on="1"/>
        <pt x="638" y="527" on="0"/>
        <pt x="496" y="670" on="0"/>
        <pt x="340" y="670" on="1"/>
        <pt x="312" y="670" on="0"/>
        <pt x="232" y="666" on="0"/>
        <pt x="198" y="663" on="1"/>
        <pt x="198" y="408" on="1"/>
        <pt x="393" y="408" on="1"/>
        <pt x="393" y="332" on="1"/>
        <pt x="198" y="332" on="1"/>
        <pt x="198" y="79" on="1"/>
        <pt x="239" y="73" on="0"/>
        <pt x="302" y="68" on="0"/>
      </contour>
    </TTGlyph>
    <TTGlyph name="Dcroat.sc" xMin="16" yMin="-7" xMax="659" yMax="584">
      <contour>
        <pt x="16" y="325" on="1"/>
        <pt x="101" y="325" on="1"/>
        <pt x="101" y="576" on="1"/>
        <pt x="125" y="578" on="0"/>
        <pt x="181" y="581" on="0"/>
        <pt x="236" y="583" on="0"/>
        <pt x="285" y="584" on="0"/>
        <pt x="303" y="584" on="1"/>
        <pt x="487" y="584" on="0"/>
        <pt x="659" y="441" on="0"/>
        <pt x="659" y="288" on="1"/>
        <pt x="659" y="211" on="0"/>
        <pt x="616" y="99" on="0"/>
        <pt x="525" y="27" on="0"/>
        <pt x="384" y="-7" on="0"/>
        <pt x="286" y="-7" on="1"/>
        <pt x="226" y="-7" on="0"/>
        <pt x="123" y="0" on="0"/>
        <pt x="101" y="6" on="1"/>
        <pt x="101" y="253" on="1"/>
        <pt x="16" y="253" on="1"/>
      </contour>
      <contour>
        <pt x="316" y="66" on="1"/>
        <pt x="449" y="66" on="0"/>
        <pt x="567" y="171" on="0"/>
        <pt x="567" y="288" on="1"/>
        <pt x="567" y="405" on="0"/>
        <pt x="447" y="510" on="0"/>
        <pt x="313" y="510" on="1"/>
        <pt x="290" y="510" on="0"/>
        <pt x="221" y="507" on="0"/>
        <pt x="191" y="505" on="1"/>
        <pt x="191" y="325" on="1"/>
        <pt x="356" y="325" on="1"/>
        <pt x="356" y="253" on="1"/>
        <pt x="191" y="253" on="1"/>
        <pt x="191" y="74" on="1"/>
        <pt x="226" y="69" on="0"/>
        <pt x="281" y="66" on="0"/>
      </contour>
    </TTGlyph>
    <TTGlyph name="Ddotbelow" xMin="94" yMin="-185" xMax="722" yMax="749">
      <contour>
        <pt x="371" y="-185" on="1"/>
        <pt x="345" y="-185" on="0"/>
        <pt x="318" y="-161" on="0"/>
        <pt x="318" y="-133" on="1"/>
        <pt x="318" y="-80" on="0"/>
        <pt x="371" y="-80" on="1"/>
        <pt x="425" y="-80" on="0"/>
        <pt x="425" y="-133" on="1"/>
        <pt x="425" y="-161" on="0"/>
        <pt x="398" y="-185" on="0"/>
      </contour>
      <contour>
        <pt x="302" y="-9" on="1"/>
        <pt x="268" y="-9" on="0"/>
        <pt x="204" y="-7" on="0"/>
        <pt x="149" y="-3" on="0"/>
        <pt x="106" y="3" on="0"/>
        <pt x="94" y="7" on="1"/>
        <pt x="94" y="739" on="1"/>
        <pt x="120" y="741" on="0"/>
        <pt x="182" y="744" on="0"/>
        <pt x="243" y="747" on="0"/>
        <pt x="299" y="749" on="0"/>
        <pt x="319" y="749" on="1"/>
        <pt x="527" y="749" on="0"/>
        <pt x="722" y="566" on="0"/>
        <pt x="722" y="370" on="1"/>
        <pt x="722" y="271" on="0"/>
        <pt x="673" y="128" on="0"/>
        <pt x="571" y="35" on="0"/>
        <pt x="412" y="-9" on="0"/>
      </contour>
      <contour>
        <pt x="331" y="68" on="1"/>
        <pt x="486" y="68" on="0"/>
        <pt x="627" y="212" on="0"/>
        <pt x="627" y="370" on="1"/>
        <pt x="627" y="527" on="0"/>
        <pt x="485" y="670" on="0"/>
        <pt x="329" y="670" on="1"/>
        <pt x="301" y="670" on="0"/>
        <pt x="221" y="666" on="0"/>
        <pt x="187" y="663" on="1"/>
        <pt x="187" y="79" on="1"/>
        <pt x="228" y="73" on="0"/>
        <pt x="291" y="68" on="0"/>
      </contour>
    </TTGlyph>
    <TTGlyph name="Ddotbelow.sc" xMin="88" yMin="-149" xMax="646" yMax="584">
      <contour>
        <pt x="291" y="-7" on="1"/>
        <pt x="259" y="-7" on="0"/>
        <pt x="198" y="-5" on="0"/>
        <pt x="144" y="-2" on="0"/>
        <pt x="101" y="3" on="0"/>
        <pt x="88" y="6" on="1"/>
        <pt x="88" y="576" on="1"/>
        <pt x="112" y="578" on="0"/>
        <pt x="167" y="581" on="0"/>
        <pt x="222" y="583" on="0"/>
        <pt x="272" y="584" on="0"/>
        <pt x="291" y="584" on="1"/>
        <pt x="474" y="584" on="0"/>
        <pt x="646" y="441" on="0"/>
        <pt x="646" y="288" on="1"/>
        <pt x="646" y="136" on="0"/>
        <pt x="474" y="-7" on="0"/>
      </contour>
      <contour>
        <pt x="304" y="66" on="1"/>
        <pt x="436" y="66" on="0"/>
        <pt x="555" y="172" on="0"/>
        <pt x="555" y="288" on="1"/>
        <pt x="555" y="405" on="0"/>
        <pt x="435" y="510" on="0"/>
        <pt x="301" y="510" on="1"/>
        <pt x="277" y="510" on="0"/>
        <pt x="207" y="507" on="0"/>
        <pt x="178" y="505" on="1"/>
        <pt x="178" y="74" on="1"/>
        <pt x="213" y="69" on="0"/>
        <pt x="268" y="66" on="0"/>
      </contour>
      <contour>
        <pt x="337" y="-149" on="1"/>
        <pt x="288" y="-149" on="0"/>
        <pt x="288" y="-104" on="1"/>
        <pt x="288" y="-58" on="0"/>
        <pt x="337" y="-58" on="1"/>
        <pt x="385" y="-58" on="0"/>
        <pt x="385" y="-104" on="1"/>
        <pt x="385" y="-149" on="0"/>
      </contour>
    </TTGlyph>
    <TTGlyph name="Delta" xMin="26" yMin="0" xMax="769" yMax="740">
      <contour>
        <pt x="342" y="740" on="1"/>
        <pt x="453" y="740" on="1"/>
        <pt x="769" y="0" on="1"/>
        <pt x="26" y="0" on="1"/>
      </contour>
      <contour>
        <pt x="648" y="75" on="1"/>
        <pt x="398" y="661" on="1"/>
        <pt x="146" y="75" on="1"/>
      </contour>
    </TTGlyph>
    <TTGlyph name="E" xMin="94" yMin="0" xMax="600" yMax="740">
      <contour>
        <pt x="94" y="740" on="1"/>
        <pt x="591" y="740" on="1"/>
        <pt x="591" y="664" on="1"/>
        <pt x="187" y="664" on="1"/>
        <pt x="187" y="414" on="1"/>
        <pt x="568" y="414" on="1"/>
        <pt x="568" y="337" on="1"/>
        <pt x="187" y="337" on="1"/>
        <pt x="187" y="76" on="1"/>
        <pt x="600" y="76" on="1"/>
        <pt x="600" y="0" on="1"/>
        <pt x="94" y="0" on="1"/>
      </contour>
    </TTGlyph>
    <TTGlyph name="E.sc" xMin="89" yMin="0" xMax="539" yMax="577">
      <contour>
        <pt x="89" y="577" on="1"/>
        <pt x="532" y="577" on="1"/>
        <pt x="532" y="508" on="1"/>
        <pt x="179" y="508" on="1"/>
        <pt x="179" y="325" on="1"/>
        <pt x="510" y="325" on="1"/>
        <pt x="510" y="262" on="1"/>
        <pt x="179" y="262" on="1"/>
        <pt x="179" y="69" on="1"/>
        <pt x="539" y="69" on="1"/>
        <pt x="539" y="0" on="1"/>
        <pt x="89" y="0" on="1"/>
      </contour>
    </TTGlyph>
    <TTGlyph name="Eacute" xMin="94" yMin="0" xMax="600" yMax="953">
      <contour>
        <pt x="301" y="812" on="1"/>
        <pt x="375" y="953" on="1"/>
        <pt x="471" y="953" on="1"/>
        <pt x="372" y="805" on="1"/>
      </contour>
      <contour>
        <pt x="94" y="740" on="1"/>
        <pt x="591" y="740" on="1"/>
        <pt x="591" y="664" on="1"/>
        <pt x="187" y="664" on="1"/>
        <pt x="187" y="414" on="1"/>
        <pt x="568" y="414" on="1"/>
        <pt x="568" y="337" on="1"/>
        <pt x="187" y="337" on="1"/>
        <pt x="187" y="76" on="1"/>
        <pt x="600" y="76" on="1"/>
        <pt x="600" y="0" on="1"/>
        <pt x="94" y="0" on="1"/>
      </contour>
    </TTGlyph>
    <TTGlyph name="Eacute.sc" xMin="89" yMin="0" xMax="539" yMax="751">
      <contour>
        <pt x="89" y="577" on="1"/>
        <pt x="532" y="577" on="1"/>
        <pt x="532" y="508" on="1"/>
        <pt x="179" y="508" on="1"/>
        <pt x="179" y="325" on="1"/>
        <pt x="510" y="325" on="1"/>
        <pt x="510" y="262" on="1"/>
        <pt x="179" y="262" on="1"/>
        <pt x="179" y="69" on="1"/>
        <pt x="539" y="69" on="1"/>
        <pt x="539" y="0" on="1"/>
        <pt x="89" y="0" on="1"/>
      </contour>
      <contour>
        <pt x="270" y="635" on="1"/>
        <pt x="333" y="751" on="1"/>
        <pt x="425" y="751" on="1"/>
        <pt x="339" y="629" on="1"/>
      </contour>
    </TTGlyph>
    <TTGlyph name="Ebreve" xMin="94" yMin="0" xMax="600" yMax="965">
      <contour>
        <pt x="341" y="815" on="1"/>
        <pt x="242" y="815" on="0"/>
        <pt x="149" y="898" on="0"/>
        <pt x="149" y="965" on="1"/>
        <pt x="218" y="965" on="1"/>
        <pt x="218" y="920" on="0"/>
        <pt x="279" y="870" on="0"/>
        <pt x="341" y="870" on="1"/>
        <pt x="404" y="870" on="0"/>
        <pt x="465" y="920" on="0"/>
        <pt x="465" y="965" on="1"/>
        <pt x="533" y="965" on="1"/>
        <pt x="533" y="897" on="0"/>
        <pt x="439" y="815" on="0"/>
      </contour>
      <contour>
        <pt x="94" y="740" on="1"/>
        <pt x="591" y="740" on="1"/>
        <pt x="591" y="664" on="1"/>
        <pt x="187" y="664" on="1"/>
        <pt x="187" y="414" on="1"/>
        <pt x="568" y="414" on="1"/>
        <pt x="568" y="337" on="1"/>
        <pt x="187" y="337" on="1"/>
        <pt x="187" y="76" on="1"/>
        <pt x="600" y="76" on="1"/>
        <pt x="600" y="0" on="1"/>
        <pt x="94" y="0" on="1"/>
      </contour>
    </TTGlyph>
    <TTGlyph name="Ebreve.sc" xMin="89" yMin="0" xMax="539" yMax="759">
      <contour>
        <pt x="309" y="635" on="1"/>
        <pt x="219" y="635" on="0"/>
        <pt x="137" y="705" on="0"/>
        <pt x="137" y="759" on="1"/>
        <pt x="201" y="759" on="1"/>
        <pt x="201" y="724" on="0"/>
        <pt x="254" y="685" on="0"/>
        <pt x="309" y="685" on="1"/>
        <pt x="364" y="685" on="0"/>
        <pt x="417" y="724" on="0"/>
        <pt x="417" y="759" on="1"/>
        <pt x="480" y="759" on="1"/>
        <pt x="480" y="704" on="0"/>
        <pt x="398" y="635" on="0"/>
      </contour>
      <contour>
        <pt x="89" y="577" on="1"/>
        <pt x="532" y="577" on="1"/>
        <pt x="532" y="508" on="1"/>
        <pt x="179" y="508" on="1"/>
        <pt x="179" y="325" on="1"/>
        <pt x="510" y="325" on="1"/>
        <pt x="510" y="262" on="1"/>
        <pt x="179" y="262" on="1"/>
        <pt x="179" y="69" on="1"/>
        <pt x="539" y="69" on="1"/>
        <pt x="539" y="0" on="1"/>
        <pt x="89" y="0" on="1"/>
      </contour>
    </TTGlyph>
    <TTGlyph name="Ecaron" xMin="94" yMin="0" xMax="600" yMax="961">
      <contour>
        <pt x="169" y="961" on="1"/>
        <pt x="345" y="886" on="1"/>
        <pt x="521" y="961" on="1"/>
        <pt x="521" y="887" on="1"/>
        <pt x="344" y="812" on="1"/>
        <pt x="169" y="887" on="1"/>
      </contour>
      <contour>
        <pt x="94" y="740" on="1"/>
        <pt x="591" y="740" on="1"/>
        <pt x="591" y="664" on="1"/>
        <pt x="187" y="664" on="1"/>
        <pt x="187" y="414" on="1"/>
        <pt x="568" y="414" on="1"/>
        <pt x="568" y="337" on="1"/>
        <pt x="187" y="337" on="1"/>
        <pt x="187" y="76" on="1"/>
        <pt x="600" y="76" on="1"/>
        <pt x="600" y="0" on="1"/>
        <pt x="94" y="0" on="1"/>
      </contour>
    </TTGlyph>
    <TTGlyph name="Ecaron.sc" xMin="89" yMin="0" xMax="539" yMax="758">
      <contour>
        <pt x="89" y="577" on="1"/>
        <pt x="532" y="577" on="1"/>
        <pt x="532" y="508" on="1"/>
        <pt x="179" y="508" on="1"/>
        <pt x="179" y="325" on="1"/>
        <pt x="510" y="325" on="1"/>
        <pt x="510" y="262" on="1"/>
        <pt x="179" y="262" on="1"/>
        <pt x="179" y="69" on="1"/>
        <pt x="539" y="69" on="1"/>
        <pt x="539" y="0" on="1"/>
        <pt x="89" y="0" on="1"/>
      </contour>
      <contour>
        <pt x="154" y="692" on="1"/>
        <pt x="154" y="758" on="1"/>
        <pt x="312" y="699" on="1"/>
        <pt x="469" y="758" on="1"/>
        <pt x="469" y="692" on="1"/>
        <pt x="311" y="633" on="1"/>
      </contour>
    </TTGlyph>
    <TTGlyph name="Ecircumflex" xMin="94" yMin="0" xMax="600" yMax="961">
      <contour>
        <pt x="94" y="740" on="1"/>
        <pt x="591" y="740" on="1"/>
        <pt x="591" y="664" on="1"/>
        <pt x="187" y="664" on="1"/>
        <pt x="187" y="414" on="1"/>
        <pt x="568" y="414" on="1"/>
        <pt x="568" y="337" on="1"/>
        <pt x="187" y="337" on="1"/>
        <pt x="187" y="76" on="1"/>
        <pt x="600" y="76" on="1"/>
        <pt x="600" y="0" on="1"/>
        <pt x="94" y="0" on="1"/>
      </contour>
      <contour>
        <pt x="175" y="886" on="1"/>
        <pt x="351" y="961" on="1"/>
        <pt x="527" y="886" on="1"/>
        <pt x="527" y="812" on="1"/>
        <pt x="351" y="887" on="1"/>
        <pt x="175" y="812" on="1"/>
      </contour>
    </TTGlyph>
    <TTGlyph name="Ecircumflex.sc" xMin="89" yMin="0" xMax="539" yMax="758">
      <contour>
        <pt x="89" y="577" on="1"/>
        <pt x="532" y="577" on="1"/>
        <pt x="532" y="508" on="1"/>
        <pt x="179" y="508" on="1"/>
        <pt x="179" y="325" on="1"/>
        <pt x="510" y="325" on="1"/>
        <pt x="510" y="262" on="1"/>
        <pt x="179" y="262" on="1"/>
        <pt x="179" y="69" on="1"/>
        <pt x="539" y="69" on="1"/>
        <pt x="539" y="0" on="1"/>
        <pt x="89" y="0" on="1"/>
      </contour>
      <contour>
        <pt x="161" y="698" on="1"/>
        <pt x="318" y="758" on="1"/>
        <pt x="476" y="698" on="1"/>
        <pt x="476" y="632" on="1"/>
        <pt x="319" y="691" on="1"/>
        <pt x="161" y="632" on="1"/>
      </contour>
    </TTGlyph>
    <TTGlyph name="Edblgrave" xMin="94" yMin="0" xMax="600" yMax="946">
      <contour>
        <pt x="94" y="740" on="1"/>
        <pt x="591" y="740" on="1"/>
        <pt x="591" y="664" on="1"/>
        <pt x="187" y="664" on="1"/>
        <pt x="187" y="414" on="1"/>
        <pt x="568" y="414" on="1"/>
        <pt x="568" y="337" on="1"/>
        <pt x="187" y="337" on="1"/>
        <pt x="187" y="76" on="1"/>
        <pt x="600" y="76" on="1"/>
        <pt x="600" y="0" on="1"/>
        <pt x="94" y="0" on="1"/>
      </contour>
      <contour>
        <pt x="226" y="798" on="1"/>
        <pt x="127" y="946" on="1"/>
        <pt x="223" y="946" on="1"/>
        <pt x="296" y="811" on="1"/>
      </contour>
      <contour>
        <pt x="391" y="798" on="1"/>
        <pt x="291" y="946" on="1"/>
        <pt x="386" y="946" on="1"/>
        <pt x="460" y="811" on="1"/>
      </contour>
    </TTGlyph>
    <TTGlyph name="Edblgrave.sc" xMin="89" yMin="0" xMax="539" yMax="746">
      <contour>
        <pt x="89" y="577" on="1"/>
        <pt x="532" y="577" on="1"/>
        <pt x="532" y="508" on="1"/>
        <pt x="179" y="508" on="1"/>
        <pt x="179" y="325" on="1"/>
        <pt x="510" y="325" on="1"/>
        <pt x="510" y="262" on="1"/>
        <pt x="179" y="262" on="1"/>
        <pt x="179" y="69" on="1"/>
        <pt x="539" y="69" on="1"/>
        <pt x="539" y="0" on="1"/>
        <pt x="89" y="0" on="1"/>
      </contour>
      <contour>
        <pt x="116" y="746" on="1"/>
        <pt x="207" y="746" on="1"/>
        <pt x="270" y="634" on="1"/>
        <pt x="202" y="624" on="1"/>
      </contour>
      <contour>
        <pt x="263" y="746" on="1"/>
        <pt x="354" y="746" on="1"/>
        <pt x="418" y="634" on="1"/>
        <pt x="351" y="624" on="1"/>
      </contour>
    </TTGlyph>
    <TTGlyph name="Edieresis" xMin="94" yMin="0" xMax="600" yMax="938">
      <contour>
        <pt x="207" y="822" on="1"/>
        <pt x="148" y="822" on="0"/>
        <pt x="148" y="881" on="1"/>
        <pt x="148" y="911" on="0"/>
        <pt x="178" y="938" on="0"/>
        <pt x="207" y="938" on="1"/>
        <pt x="236" y="938" on="0"/>
        <pt x="266" y="911" on="0"/>
        <pt x="266" y="881" on="1"/>
        <pt x="266" y="822" on="0"/>
      </contour>
      <contour>
        <pt x="489" y="822" on="1"/>
        <pt x="430" y="822" on="0"/>
        <pt x="430" y="881" on="1"/>
        <pt x="430" y="911" on="0"/>
        <pt x="460" y="938" on="0"/>
        <pt x="489" y="938" on="1"/>
        <pt x="518" y="938" on="0"/>
        <pt x="549" y="911" on="0"/>
        <pt x="549" y="881" on="1"/>
        <pt x="549" y="822" on="0"/>
      </contour>
      <contour>
        <pt x="94" y="740" on="1"/>
        <pt x="591" y="740" on="1"/>
        <pt x="591" y="664" on="1"/>
        <pt x="187" y="664" on="1"/>
        <pt x="187" y="414" on="1"/>
        <pt x="568" y="414" on="1"/>
        <pt x="568" y="337" on="1"/>
        <pt x="187" y="337" on="1"/>
        <pt x="187" y="76" on="1"/>
        <pt x="600" y="76" on="1"/>
        <pt x="600" y="0" on="1"/>
        <pt x="94" y="0" on="1"/>
      </contour>
    </TTGlyph>
    <TTGlyph name="Edieresis.sc" xMin="89" yMin="0" xMax="539" yMax="744">
      <contour>
        <pt x="191" y="639" on="1"/>
        <pt x="135" y="639" on="0"/>
        <pt x="135" y="692" on="1"/>
        <pt x="135" y="744" on="0"/>
        <pt x="191" y="744" on="1"/>
        <pt x="247" y="744" on="0"/>
        <pt x="247" y="692" on="1"/>
        <pt x="247" y="639" on="0"/>
      </contour>
      <contour>
        <pt x="442" y="639" on="1"/>
        <pt x="386" y="639" on="0"/>
        <pt x="386" y="692" on="1"/>
        <pt x="386" y="744" on="0"/>
        <pt x="442" y="744" on="1"/>
        <pt x="496" y="744" on="0"/>
        <pt x="496" y="692" on="1"/>
        <pt x="496" y="639" on="0"/>
      </contour>
      <contour>
        <pt x="89" y="577" on="1"/>
        <pt x="532" y="577" on="1"/>
        <pt x="532" y="508" on="1"/>
        <pt x="179" y="508" on="1"/>
        <pt x="179" y="325" on="1"/>
        <pt x="510" y="325" on="1"/>
        <pt x="510" y="262" on="1"/>
        <pt x="179" y="262" on="1"/>
        <pt x="179" y="69" on="1"/>
        <pt x="539" y="69" on="1"/>
        <pt x="539" y="0" on="1"/>
        <pt x="89" y="0" on="1"/>
      </contour>
    </TTGlyph>
    <TTGlyph name="Edotaccent" xMin="94" yMin="0" xMax="600" yMax="934">
      <contour>
        <pt x="343" y="818" on="1"/>
        <pt x="313" y="818" on="0"/>
        <pt x="283" y="845" on="0"/>
        <pt x="283" y="876" on="1"/>
        <pt x="283" y="907" on="0"/>
        <pt x="313" y="934" on="0"/>
        <pt x="343" y="934" on="1"/>
        <pt x="372" y="934" on="0"/>
        <pt x="403" y="907" on="0"/>
        <pt x="403" y="876" on="1"/>
        <pt x="403" y="818" on="0"/>
      </contour>
      <contour>
        <pt x="94" y="740" on="1"/>
        <pt x="591" y="740" on="1"/>
        <pt x="591" y="664" on="1"/>
        <pt x="187" y="664" on="1"/>
        <pt x="187" y="414" on="1"/>
        <pt x="568" y="414" on="1"/>
        <pt x="568" y="337" on="1"/>
        <pt x="187" y="337" on="1"/>
        <pt x="187" y="76" on="1"/>
        <pt x="600" y="76" on="1"/>
        <pt x="600" y="0" on="1"/>
        <pt x="94" y="0" on="1"/>
      </contour>
    </TTGlyph>
    <TTGlyph name="Edotaccent.sc" xMin="89" yMin="0" xMax="539" yMax="741">
      <contour>
        <pt x="310" y="636" on="1"/>
        <pt x="281" y="636" on="0"/>
        <pt x="254" y="660" on="0"/>
        <pt x="254" y="689" on="1"/>
        <pt x="254" y="717" on="0"/>
        <pt x="281" y="741" on="0"/>
        <pt x="310" y="741" on="1"/>
        <pt x="365" y="741" on="0"/>
        <pt x="365" y="689" on="1"/>
        <pt x="365" y="636" on="0"/>
      </contour>
      <contour>
        <pt x="89" y="577" on="1"/>
        <pt x="532" y="577" on="1"/>
        <pt x="532" y="508" on="1"/>
        <pt x="179" y="508" on="1"/>
        <pt x="179" y="325" on="1"/>
        <pt x="510" y="325" on="1"/>
        <pt x="510" y="262" on="1"/>
        <pt x="179" y="262" on="1"/>
        <pt x="179" y="69" on="1"/>
        <pt x="539" y="69" on="1"/>
        <pt x="539" y="0" on="1"/>
        <pt x="89" y="0" on="1"/>
      </contour>
    </TTGlyph>
    <TTGlyph name="Edotbelow" xMin="94" yMin="-185" xMax="600" yMax="740">
      <contour>
        <pt x="94" y="740" on="1"/>
        <pt x="591" y="740" on="1"/>
        <pt x="591" y="664" on="1"/>
        <pt x="187" y="664" on="1"/>
        <pt x="187" y="414" on="1"/>
        <pt x="568" y="414" on="1"/>
        <pt x="568" y="337" on="1"/>
        <pt x="187" y="337" on="1"/>
        <pt x="187" y="76" on="1"/>
        <pt x="600" y="76" on="1"/>
        <pt x="600" y="0" on="1"/>
        <pt x="94" y="0" on="1"/>
      </contour>
      <contour>
        <pt x="364" y="-185" on="1"/>
        <pt x="338" y="-185" on="0"/>
        <pt x="311" y="-161" on="0"/>
        <pt x="311" y="-133" on="1"/>
        <pt x="311" y="-80" on="0"/>
        <pt x="364" y="-80" on="1"/>
        <pt x="418" y="-80" on="0"/>
        <pt x="418" y="-133" on="1"/>
        <pt x="418" y="-161" on="0"/>
        <pt x="391" y="-185" on="0"/>
      </contour>
    </TTGlyph>
    <TTGlyph name="Edotbelow.sc" xMin="89" yMin="-149" xMax="539" yMax="577">
      <contour>
        <pt x="329" y="-149" on="1"/>
        <pt x="280" y="-149" on="0"/>
        <pt x="280" y="-104" on="1"/>
        <pt x="280" y="-58" on="0"/>
        <pt x="329" y="-58" on="1"/>
        <pt x="378" y="-58" on="0"/>
        <pt x="378" y="-104" on="1"/>
        <pt x="378" y="-149" on="0"/>
      </contour>
      <contour>
        <pt x="89" y="577" on="1"/>
        <pt x="532" y="577" on="1"/>
        <pt x="532" y="508" on="1"/>
        <pt x="179" y="508" on="1"/>
        <pt x="179" y="325" on="1"/>
        <pt x="510" y="325" on="1"/>
        <pt x="510" y="262" on="1"/>
        <pt x="179" y="262" on="1"/>
        <pt x="179" y="69" on="1"/>
        <pt x="539" y="69" on="1"/>
        <pt x="539" y="0" on="1"/>
        <pt x="89" y="0" on="1"/>
      </contour>
    </TTGlyph>
    <TTGlyph name="Egrave" xMin="94" yMin="0" xMax="600" yMax="953">
      <contour>
        <pt x="322" y="805" on="1"/>
        <pt x="223" y="953" on="1"/>
        <pt x="319" y="953" on="1"/>
        <pt x="394" y="818" on="1"/>
      </contour>
      <contour>
        <pt x="94" y="740" on="1"/>
        <pt x="591" y="740" on="1"/>
        <pt x="591" y="664" on="1"/>
        <pt x="187" y="664" on="1"/>
        <pt x="187" y="414" on="1"/>
        <pt x="568" y="414" on="1"/>
        <pt x="568" y="337" on="1"/>
        <pt x="187" y="337" on="1"/>
        <pt x="187" y="76" on="1"/>
        <pt x="600" y="76" on="1"/>
        <pt x="600" y="0" on="1"/>
        <pt x="94" y="0" on="1"/>
      </contour>
    </TTGlyph>
    <TTGlyph name="Egrave.sc" xMin="89" yMin="0" xMax="539" yMax="751">
      <contour>
        <pt x="89" y="577" on="1"/>
        <pt x="532" y="577" on="1"/>
        <pt x="532" y="508" on="1"/>
        <pt x="179" y="508" on="1"/>
        <pt x="179" y="325" on="1"/>
        <pt x="510" y="325" on="1"/>
        <pt x="510" y="262" on="1"/>
        <pt x="179" y="262" on="1"/>
        <pt x="179" y="69" on="1"/>
        <pt x="539" y="69" on="1"/>
        <pt x="539" y="0" on="1"/>
        <pt x="89" y="0" on="1"/>
      </contour>
      <contour>
        <pt x="203" y="751" on="1"/>
        <pt x="295" y="751" on="1"/>
        <pt x="358" y="639" on="1"/>
        <pt x="291" y="629" on="1"/>
      </contour>
    </TTGlyph>
    <TTGlyph name="Einvertedbreve" xMin="94" yMin="0" xMax="600" yMax="968">
      <contour>
        <pt x="94" y="740" on="1"/>
        <pt x="591" y="740" on="1"/>
        <pt x="591" y="664" on="1"/>
        <pt x="187" y="664" on="1"/>
        <pt x="187" y="414" on="1"/>
        <pt x="568" y="414" on="1"/>
        <pt x="568" y="337" on="1"/>
        <pt x="187" y="337" on="1"/>
        <pt x="187" y="76" on="1"/>
        <pt x="600" y="76" on="1"/>
        <pt x="600" y="0" on="1"/>
        <pt x="94" y="0" on="1"/>
      </contour>
      <contour>
        <pt x="469" y="818" on="1"/>
        <pt x="469" y="863" on="0"/>
        <pt x="408" y="913" on="0"/>
        <pt x="345" y="913" on="1"/>
        <pt x="283" y="913" on="0"/>
        <pt x="221" y="863" on="0"/>
        <pt x="221" y="818" on="1"/>
        <pt x="153" y="818" on="1"/>
        <pt x="153" y="885" on="0"/>
        <pt x="246" y="968" on="0"/>
        <pt x="345" y="968" on="1"/>
        <pt x="443" y="968" on="0"/>
        <pt x="537" y="886" on="0"/>
        <pt x="537" y="818" on="1"/>
      </contour>
    </TTGlyph>
    <TTGlyph name="Einvertedbreve.sc" xMin="89" yMin="0" xMax="539" yMax="762">
      <contour>
        <pt x="140" y="638" on="1"/>
        <pt x="140" y="691" on="0"/>
        <pt x="223" y="762" on="0"/>
        <pt x="312" y="762" on="1"/>
        <pt x="401" y="762" on="0"/>
        <pt x="484" y="693" on="0"/>
        <pt x="484" y="638" on="1"/>
        <pt x="420" y="638" on="1"/>
        <pt x="420" y="673" on="0"/>
        <pt x="368" y="711" on="0"/>
        <pt x="312" y="711" on="1"/>
        <pt x="257" y="711" on="0"/>
        <pt x="205" y="673" on="0"/>
        <pt x="205" y="638" on="1"/>
      </contour>
      <contour>
        <pt x="89" y="577" on="1"/>
        <pt x="532" y="577" on="1"/>
        <pt x="532" y="508" on="1"/>
        <pt x="179" y="508" on="1"/>
        <pt x="179" y="325" on="1"/>
        <pt x="510" y="325" on="1"/>
        <pt x="510" y="262" on="1"/>
        <pt x="179" y="262" on="1"/>
        <pt x="179" y="69" on="1"/>
        <pt x="539" y="69" on="1"/>
        <pt x="539" y="0" on="1"/>
        <pt x="89" y="0" on="1"/>
      </contour>
    </TTGlyph>
    <TTGlyph name="Emacron" xMin="94" yMin="0" xMax="600" yMax="911">
      <contour>
        <pt x="173" y="911" on="1"/>
        <pt x="520" y="911" on="1"/>
        <pt x="520" y="842" on="1"/>
        <pt x="173" y="842" on="1"/>
      </contour>
      <contour>
        <pt x="94" y="740" on="1"/>
        <pt x="591" y="740" on="1"/>
        <pt x="591" y="664" on="1"/>
        <pt x="187" y="664" on="1"/>
        <pt x="187" y="414" on="1"/>
        <pt x="568" y="414" on="1"/>
        <pt x="568" y="337" on="1"/>
        <pt x="187" y="337" on="1"/>
        <pt x="187" y="76" on="1"/>
        <pt x="600" y="76" on="1"/>
        <pt x="600" y="0" on="1"/>
        <pt x="94" y="0" on="1"/>
      </contour>
    </TTGlyph>
    <TTGlyph name="Emacron.sc" xMin="89" yMin="0" xMax="539" yMax="720">
      <contour>
        <pt x="89" y="577" on="1"/>
        <pt x="532" y="577" on="1"/>
        <pt x="532" y="508" on="1"/>
        <pt x="179" y="508" on="1"/>
        <pt x="179" y="325" on="1"/>
        <pt x="510" y="325" on="1"/>
        <pt x="510" y="262" on="1"/>
        <pt x="179" y="262" on="1"/>
        <pt x="179" y="69" on="1"/>
        <pt x="539" y="69" on="1"/>
        <pt x="539" y="0" on="1"/>
        <pt x="89" y="0" on="1"/>
      </contour>
      <contour>
        <pt x="158" y="720" on="1"/>
        <pt x="470" y="720" on="1"/>
        <pt x="470" y="657" on="1"/>
        <pt x="158" y="657" on="1"/>
      </contour>
    </TTGlyph>
    <TTGlyph name="Eng" xMin="94" yMin="-193" xMax="729" yMax="740">
      <contour>
        <pt x="562" y="-173" on="1"/>
        <pt x="590" y="-122" on="0"/>
        <pt x="627" y="-17" on="0"/>
        <pt x="632" y="24" on="1"/>
        <pt x="249" y="515" on="1"/>
        <pt x="185" y="602" on="1"/>
        <pt x="179" y="602" on="1"/>
        <pt x="179" y="0" on="1"/>
        <pt x="94" y="0" on="1"/>
        <pt x="94" y="740" on="1"/>
        <pt x="170" y="740" on="1"/>
        <pt x="572" y="226" on="1"/>
        <pt x="637" y="136" on="1"/>
        <pt x="644" y="136" on="1"/>
        <pt x="644" y="740" on="1"/>
        <pt x="729" y="740" on="1"/>
        <pt x="729" y="92" on="1"/>
        <pt x="729" y="61" on="0"/>
        <pt x="714" y="-14" on="0"/>
        <pt x="687" y="-91" on="0"/>
        <pt x="650" y="-164" on="0"/>
        <pt x="629" y="-193" on="1"/>
      </contour>
    </TTGlyph>
    <TTGlyph name="Eng.sc" xMin="89" yMin="-155" xMax="643" yMax="577">
      <contour>
        <pt x="495" y="-135" on="1"/>
        <pt x="519" y="-92" on="0"/>
        <pt x="550" y="-13" on="0"/>
        <pt x="555" y="16" on="1"/>
        <pt x="233" y="381" on="1"/>
        <pt x="176" y="451" on="1"/>
        <pt x="170" y="451" on="1"/>
        <pt x="170" y="0" on="1"/>
        <pt x="89" y="0" on="1"/>
        <pt x="89" y="577" on="1"/>
        <pt x="161" y="577" on="1"/>
        <pt x="497" y="195" on="1"/>
        <pt x="555" y="125" on="1"/>
        <pt x="560" y="125" on="1"/>
        <pt x="560" y="577" on="1"/>
        <pt x="643" y="577" on="1"/>
        <pt x="643" y="78" on="1"/>
        <pt x="643" y="52" on="0"/>
        <pt x="630" y="-7" on="0"/>
        <pt x="608" y="-69" on="0"/>
        <pt x="577" y="-129" on="0"/>
        <pt x="558" y="-155" on="1"/>
      </contour>
    </TTGlyph>
    <TTGlyph name="Eogonek" xMin="94" yMin="-220" xMax="600" yMax="740">
      <contour>
        <pt x="94" y="740" on="1"/>
        <pt x="591" y="740" on="1"/>
        <pt x="591" y="664" on="1"/>
        <pt x="187" y="664" on="1"/>
        <pt x="187" y="414" on="1"/>
        <pt x="568" y="414" on="1"/>
        <pt x="568" y="337" on="1"/>
        <pt x="187" y="337" on="1"/>
        <pt x="187" y="76" on="1"/>
        <pt x="600" y="76" on="1"/>
        <pt x="600" y="-18" on="1"/>
        <pt x="534" y="-50" on="0"/>
        <pt x="476" y="-105" on="0"/>
        <pt x="476" y="-132" on="1"/>
        <pt x="476" y="-164" on="0"/>
        <pt x="521" y="-164" on="1"/>
        <pt x="536" y="-164" on="0"/>
        <pt x="579" y="-158" on="0"/>
        <pt x="599" y="-153" on="1"/>
        <pt x="599" y="-208" on="1"/>
        <pt x="584" y="-214" on="0"/>
        <pt x="543" y="-220" on="0"/>
        <pt x="521" y="-220" on="1"/>
        <pt x="410" y="-220" on="0"/>
        <pt x="410" y="-137" on="1"/>
        <pt x="410" y="-99" on="0"/>
        <pt x="461" y="-37" on="0"/>
        <pt x="523" y="0" on="1"/>
        <pt x="94" y="0" on="1"/>
      </contour>
    </TTGlyph>
    <TTGlyph name="Eogonek.sc" xMin="89" yMin="-172" xMax="539" yMax="577">
      <contour>
        <pt x="467" y="-172" on="1"/>
        <pt x="416" y="-172" on="0"/>
        <pt x="369" y="-139" on="0"/>
        <pt x="369" y="-106" on="1"/>
        <pt x="369" y="-75" on="0"/>
        <pt x="410" y="-29" on="0"/>
        <pt x="463" y="0" on="1"/>
        <pt x="89" y="0" on="1"/>
        <pt x="89" y="577" on="1"/>
        <pt x="532" y="577" on="1"/>
        <pt x="532" y="508" on="1"/>
        <pt x="179" y="508" on="1"/>
        <pt x="179" y="325" on="1"/>
        <pt x="510" y="325" on="1"/>
        <pt x="510" y="262" on="1"/>
        <pt x="179" y="262" on="1"/>
        <pt x="179" y="69" on="1"/>
        <pt x="539" y="69" on="1"/>
        <pt x="539" y="-13" on="1"/>
        <pt x="481" y="-36" on="0"/>
        <pt x="430" y="-72" on="0"/>
        <pt x="430" y="-95" on="1"/>
        <pt x="430" y="-110" on="0"/>
        <pt x="451" y="-121" on="0"/>
        <pt x="470" y="-121" on="1"/>
        <pt x="484" y="-121" on="0"/>
        <pt x="524" y="-116" on="0"/>
        <pt x="538" y="-112" on="1"/>
        <pt x="538" y="-162" on="1"/>
        <pt x="523" y="-167" on="0"/>
        <pt x="486" y="-172" on="0"/>
      </contour>
    </TTGlyph>
    <TTGlyph name="Eth" xMin="6" yMin="-9" xMax="733" yMax="749">
      <contour>
        <pt x="6" y="408" on="1"/>
        <pt x="105" y="408" on="1"/>
        <pt x="105" y="739" on="1"/>
        <pt x="131" y="741" on="0"/>
        <pt x="193" y="744" on="0"/>
        <pt x="254" y="747" on="0"/>
        <pt x="310" y="749" on="0"/>
        <pt x="330" y="749" on="1"/>
        <pt x="538" y="749" on="0"/>
        <pt x="733" y="566" on="0"/>
        <pt x="733" y="370" on="1"/>
        <pt x="733" y="271" on="0"/>
        <pt x="684" y="128" on="0"/>
        <pt x="582" y="35" on="0"/>
        <pt x="423" y="-9" on="0"/>
        <pt x="313" y="-9" on="1"/>
        <pt x="279" y="-9" on="0"/>
        <pt x="215" y="-7" on="0"/>
        <pt x="160" y="-3" on="0"/>
        <pt x="117" y="3" on="0"/>
        <pt x="105" y="7" on="1"/>
        <pt x="105" y="332" on="1"/>
        <pt x="6" y="332" on="1"/>
      </contour>
      <contour>
        <pt x="342" y="68" on="1"/>
        <pt x="497" y="68" on="0"/>
        <pt x="638" y="212" on="0"/>
        <pt x="638" y="370" on="1"/>
        <pt x="638" y="527" on="0"/>
        <pt x="496" y="670" on="0"/>
        <pt x="340" y="670" on="1"/>
        <pt x="312" y="670" on="0"/>
        <pt x="232" y="666" on="0"/>
        <pt x="198" y="663" on="1"/>
        <pt x="198" y="408" on="1"/>
        <pt x="393" y="408" on="1"/>
        <pt x="393" y="332" on="1"/>
        <pt x="198" y="332" on="1"/>
        <pt x="198" y="79" on="1"/>
        <pt x="239" y="73" on="0"/>
        <pt x="302" y="68" on="0"/>
      </contour>
    </TTGlyph>
    <TTGlyph name="Eth.sc" xMin="15" yMin="-7" xMax="658" yMax="584">
      <contour>
        <pt x="15" y="322" on="1"/>
        <pt x="100" y="322" on="1"/>
        <pt x="100" y="576" on="1"/>
        <pt x="124" y="578" on="0"/>
        <pt x="180" y="581" on="0"/>
        <pt x="235" y="583" on="0"/>
        <pt x="285" y="584" on="0"/>
        <pt x="303" y="584" on="1"/>
        <pt x="486" y="584" on="0"/>
        <pt x="658" y="441" on="0"/>
        <pt x="658" y="288" on="1"/>
        <pt x="658" y="211" on="0"/>
        <pt x="615" y="99" on="0"/>
        <pt x="524" y="27" on="0"/>
        <pt x="383" y="-7" on="0"/>
        <pt x="285" y="-7" on="1"/>
        <pt x="225" y="-7" on="0"/>
        <pt x="122" y="0" on="0"/>
        <pt x="100" y="6" on="1"/>
        <pt x="100" y="255" on="1"/>
        <pt x="15" y="255" on="1"/>
      </contour>
      <contour>
        <pt x="315" y="66" on="1"/>
        <pt x="448" y="66" on="0"/>
        <pt x="566" y="171" on="0"/>
        <pt x="566" y="288" on="1"/>
        <pt x="566" y="405" on="0"/>
        <pt x="446" y="510" on="0"/>
        <pt x="312" y="510" on="1"/>
        <pt x="289" y="510" on="0"/>
        <pt x="220" y="507" on="0"/>
        <pt x="190" y="505" on="1"/>
        <pt x="190" y="322" on="1"/>
        <pt x="355" y="322" on="1"/>
        <pt x="355" y="255" on="1"/>
        <pt x="190" y="255" on="1"/>
        <pt x="190" y="74" on="1"/>
        <pt x="225" y="69" on="0"/>
        <pt x="280" y="66" on="0"/>
      </contour>
    </TTGlyph>
    <TTGlyph name="Etilde" xMin="94" yMin="0" xMax="600" yMax="943">
      <contour>
        <pt x="135" y="866" on="1"/>
        <pt x="166" y="905" on="0"/>
        <pt x="236" y="943" on="0"/>
        <pt x="270" y="943" on="1"/>
        <pt x="295" y="943" on="0"/>
        <pt x="341" y="930" on="0"/>
        <pt x="384" y="915" on="0"/>
        <pt x="428" y="902" on="0"/>
        <pt x="452" y="902" on="1"/>
        <pt x="478" y="902" on="0"/>
        <pt x="526" y="920" on="0"/>
        <pt x="552" y="940" on="1"/>
        <pt x="575" y="911" on="1"/>
        <pt x="546" y="873" on="0"/>
        <pt x="471" y="834" on="0"/>
        <pt x="434" y="834" on="1"/>
        <pt x="411" y="834" on="0"/>
        <pt x="366" y="846" on="0"/>
        <pt x="321" y="861" on="0"/>
        <pt x="277" y="874" on="0"/>
        <pt x="255" y="874" on="1"/>
        <pt x="231" y="874" on="0"/>
        <pt x="185" y="858" on="0"/>
        <pt x="159" y="838" on="1"/>
      </contour>
      <contour>
        <pt x="94" y="740" on="1"/>
        <pt x="591" y="740" on="1"/>
        <pt x="591" y="664" on="1"/>
        <pt x="187" y="664" on="1"/>
        <pt x="187" y="414" on="1"/>
        <pt x="568" y="414" on="1"/>
        <pt x="568" y="337" on="1"/>
        <pt x="187" y="337" on="1"/>
        <pt x="187" y="76" on="1"/>
        <pt x="600" y="76" on="1"/>
        <pt x="600" y="0" on="1"/>
        <pt x="94" y="0" on="1"/>
      </contour>
    </TTGlyph>
    <TTGlyph name="Etilde.sc" xMin="89" yMin="0" xMax="539" yMax="745">
      <contour>
        <pt x="125" y="676" on="1"/>
        <pt x="153" y="711" on="0"/>
        <pt x="215" y="745" on="0"/>
        <pt x="246" y="745" on="1"/>
        <pt x="268" y="745" on="0"/>
        <pt x="309" y="735" on="0"/>
        <pt x="348" y="724" on="0"/>
        <pt x="388" y="714" on="0"/>
        <pt x="409" y="714" on="1"/>
        <pt x="431" y="714" on="0"/>
        <pt x="474" y="727" on="0"/>
        <pt x="497" y="742" on="1"/>
        <pt x="518" y="719" on="1"/>
        <pt x="491" y="685" on="0"/>
        <pt x="423" y="650" on="0"/>
        <pt x="391" y="650" on="1"/>
        <pt x="370" y="650" on="0"/>
        <pt x="330" y="660" on="0"/>
        <pt x="290" y="671" on="0"/>
        <pt x="250" y="681" on="0"/>
        <pt x="230" y="681" on="1"/>
        <pt x="209" y="681" on="0"/>
        <pt x="168" y="669" on="0"/>
        <pt x="146" y="652" on="1"/>
      </contour>
      <contour>
        <pt x="89" y="577" on="1"/>
        <pt x="532" y="577" on="1"/>
        <pt x="532" y="508" on="1"/>
        <pt x="179" y="508" on="1"/>
        <pt x="179" y="325" on="1"/>
        <pt x="510" y="325" on="1"/>
        <pt x="510" y="262" on="1"/>
        <pt x="179" y="262" on="1"/>
        <pt x="179" y="69" on="1"/>
        <pt x="539" y="69" on="1"/>
        <pt x="539" y="0" on="1"/>
        <pt x="89" y="0" on="1"/>
      </contour>
    </TTGlyph>
    <TTGlyph name="Euro" xMin="46" yMin="-10" xMax="627" yMax="749">
      <contour>
        <pt x="46" y="484" on="1"/>
        <pt x="140" y="484" on="1"/>
        <pt x="152" y="553" on="0"/>
        <pt x="207" y="654" on="0"/>
        <pt x="298" y="718" on="0"/>
        <pt x="428" y="749" on="0"/>
        <pt x="514" y="749" on="1"/>
        <pt x="554" y="749" on="0"/>
        <pt x="606" y="743" on="0"/>
        <pt x="627" y="741" on="1"/>
        <pt x="596" y="663" on="1"/>
        <pt x="588" y="665" on="0"/>
        <pt x="553" y="668" on="0"/>
        <pt x="533" y="668" on="1"/>
        <pt x="462" y="668" on="0"/>
        <pt x="358" y="649" on="0"/>
        <pt x="286" y="605" on="0"/>
        <pt x="244" y="535" on="0"/>
        <pt x="235" y="484" on="1"/>
        <pt x="540" y="484" on="1"/>
        <pt x="523" y="424" on="1"/>
        <pt x="228" y="424" on="1"/>
        <pt x="227" y="411" on="0"/>
        <pt x="226" y="384" on="0"/>
        <pt x="226" y="370" on="1"/>
        <pt x="226" y="356" on="0"/>
        <pt x="227" y="329" on="0"/>
        <pt x="228" y="316" on="1"/>
        <pt x="501" y="316" on="1"/>
        <pt x="484" y="256" on="1"/>
        <pt x="235" y="256" on="1"/>
        <pt x="245" y="206" on="0"/>
        <pt x="288" y="136" on="0"/>
        <pt x="359" y="91" on="0"/>
        <pt x="461" y="71" on="0"/>
        <pt x="530" y="71" on="1"/>
        <pt x="547" y="71" on="0"/>
        <pt x="589" y="74" on="0"/>
        <pt x="613" y="78" on="1"/>
        <pt x="613" y="-3" on="1"/>
        <pt x="585" y="-10" on="0"/>
        <pt x="521" y="-10" on="1"/>
        <pt x="347" y="-9" on="0"/>
        <pt x="164" y="120" on="0"/>
        <pt x="141" y="256" on="1"/>
        <pt x="46" y="256" on="1"/>
        <pt x="46" y="316" on="1"/>
        <pt x="134" y="316" on="1"/>
        <pt x="133" y="329" on="0"/>
        <pt x="132" y="355" on="0"/>
        <pt x="132" y="369" on="1"/>
        <pt x="132" y="383" on="0"/>
        <pt x="133" y="410" on="0"/>
        <pt x="134" y="424" on="1"/>
        <pt x="46" y="424" on="1"/>
      </contour>
    </TTGlyph>
    <TTGlyph name="Euro.tab" xMin="13" yMin="-10" xMax="567" yMax="749">
      <contour>
        <pt x="13" y="484" on="1"/>
        <pt x="103" y="484" on="1"/>
        <pt x="114" y="554" on="0"/>
        <pt x="166" y="654" on="0"/>
        <pt x="253" y="718" on="0"/>
        <pt x="376" y="749" on="0"/>
        <pt x="457" y="749" on="1"/>
        <pt x="495" y="749" on="0"/>
        <pt x="547" y="743" on="0"/>
        <pt x="567" y="741" on="1"/>
        <pt x="538" y="663" on="1"/>
        <pt x="530" y="665" on="0"/>
        <pt x="495" y="668" on="0"/>
        <pt x="476" y="668" on="1"/>
        <pt x="411" y="668" on="0"/>
        <pt x="315" y="648" on="0"/>
        <pt x="248" y="604" on="0"/>
        <pt x="207" y="534" on="0"/>
        <pt x="198" y="484" on="1"/>
        <pt x="484" y="484" on="1"/>
        <pt x="469" y="424" on="1"/>
        <pt x="188" y="424" on="1"/>
        <pt x="187" y="413" on="0"/>
        <pt x="186" y="383" on="0"/>
        <pt x="186" y="370" on="1"/>
        <pt x="186" y="357" on="0"/>
        <pt x="187" y="327" on="0"/>
        <pt x="188" y="316" on="1"/>
        <pt x="448" y="316" on="1"/>
        <pt x="432" y="256" on="1"/>
        <pt x="198" y="256" on="1"/>
        <pt x="218" y="159" on="0"/>
        <pt x="348" y="71" on="0"/>
        <pt x="474" y="71" on="1"/>
        <pt x="491" y="71" on="0"/>
        <pt x="531" y="74" on="0"/>
        <pt x="554" y="78" on="1"/>
        <pt x="554" y="-3" on="1"/>
        <pt x="526" y="-10" on="0"/>
        <pt x="464" y="-10" on="1"/>
        <pt x="300" y="-9" on="0"/>
        <pt x="125" y="119" on="0"/>
        <pt x="103" y="256" on="1"/>
        <pt x="13" y="256" on="1"/>
        <pt x="13" y="316" on="1"/>
        <pt x="95" y="316" on="1"/>
        <pt x="95" y="327" on="0"/>
        <pt x="94" y="357" on="0"/>
        <pt x="94" y="369" on="1"/>
        <pt x="94" y="382" on="0"/>
        <pt x="94" y="413" on="0"/>
        <pt x="95" y="424" on="1"/>
        <pt x="13" y="424" on="1"/>
      </contour>
    </TTGlyph>
    <TTGlyph name="F" xMin="94" yMin="0" xMax="591" yMax="740">
      <contour>
        <pt x="94" y="740" on="1"/>
        <pt x="591" y="740" on="1"/>
        <pt x="591" y="664" on="1"/>
        <pt x="187" y="664" on="1"/>
        <pt x="187" y="405" on="1"/>
        <pt x="553" y="405" on="1"/>
        <pt x="553" y="328" on="1"/>
        <pt x="187" y="328" on="1"/>
        <pt x="187" y="0" on="1"/>
        <pt x="94" y="0" on="1"/>
      </contour>
    </TTGlyph>
    <TTGlyph name="F.sc" xMin="89" yMin="0" xMax="532" yMax="577">
      <contour>
        <pt x="89" y="577" on="1"/>
        <pt x="532" y="577" on="1"/>
        <pt x="532" y="506" on="1"/>
        <pt x="179" y="506" on="1"/>
        <pt x="179" y="315" on="1"/>
        <pt x="498" y="315" on="1"/>
        <pt x="498" y="250" on="1"/>
        <pt x="179" y="250" on="1"/>
        <pt x="179" y="0" on="1"/>
        <pt x="89" y="0" on="1"/>
      </contour>
    </TTGlyph>
    <TTGlyph name="F_B.sc" xMin="89" yMin="-8" xMax="1133" yMax="584">
      <contour>
        <pt x="89" y="577" on="1"/>
        <pt x="532" y="577" on="1"/>
        <pt x="532" y="506" on="1"/>
        <pt x="179" y="506" on="1"/>
        <pt x="179" y="315" on="1"/>
        <pt x="498" y="315" on="1"/>
        <pt x="498" y="250" on="1"/>
        <pt x="179" y="250" on="1"/>
        <pt x="179" y="0" on="1"/>
        <pt x="89" y="0" on="1"/>
      </contour>
      <contour>
        <pt x="868" y="-8" on="1"/>
        <pt x="815" y="-8" on="0"/>
        <pt x="704" y="-2" on="0"/>
        <pt x="637" y="4" on="1"/>
        <pt x="637" y="573" on="1"/>
        <pt x="703" y="578" on="0"/>
        <pt x="807" y="584" on="0"/>
        <pt x="855" y="584" on="1"/>
        <pt x="991" y="584" on="0"/>
        <pt x="1111" y="510" on="0"/>
        <pt x="1111" y="427" on="1"/>
        <pt x="1111" y="376" on="0"/>
        <pt x="1049" y="307" on="0"/>
        <pt x="995" y="296" on="1"/>
        <pt x="995" y="293" on="1"/>
        <pt x="1063" y="281" on="0"/>
        <pt x="1133" y="210" on="0"/>
        <pt x="1133" y="153" on="1"/>
        <pt x="1133" y="-8" on="0"/>
      </contour>
      <contour>
        <pt x="864" y="57" on="1"/>
        <pt x="957" y="57" on="0"/>
        <pt x="1043" y="107" on="0"/>
        <pt x="1043" y="161" on="1"/>
        <pt x="1043" y="213" on="0"/>
        <pt x="965" y="263" on="0"/>
        <pt x="884" y="263" on="1"/>
        <pt x="724" y="263" on="1"/>
        <pt x="724" y="64" on="1"/>
        <pt x="747" y="60" on="0"/>
        <pt x="810" y="57" on="0"/>
      </contour>
      <contour>
        <pt x="876" y="322" on="1"/>
        <pt x="955" y="322" on="0"/>
        <pt x="1023" y="367" on="0"/>
        <pt x="1023" y="421" on="1"/>
        <pt x="1023" y="448" on="0"/>
        <pt x="1005" y="486" on="0"/>
        <pt x="966" y="509" on="0"/>
        <pt x="903" y="519" on="0"/>
        <pt x="857" y="519" on="1"/>
        <pt x="815" y="519" on="0"/>
        <pt x="750" y="517" on="0"/>
        <pt x="724" y="513" on="1"/>
        <pt x="724" y="322" on="1"/>
      </contour>
    </TTGlyph>
    <TTGlyph name="F_F.sc" xMin="89" yMin="0" xMax="1080" yMax="577">
      <contour>
        <pt x="89" y="577" on="1"/>
        <pt x="532" y="577" on="1"/>
        <pt x="532" y="506" on="1"/>
        <pt x="179" y="506" on="1"/>
        <pt x="179" y="315" on="1"/>
        <pt x="498" y="315" on="1"/>
        <pt x="498" y="250" on="1"/>
        <pt x="179" y="250" on="1"/>
        <pt x="179" y="0" on="1"/>
        <pt x="89" y="0" on="1"/>
      </contour>
      <contour>
        <pt x="637" y="577" on="1"/>
        <pt x="1080" y="577" on="1"/>
        <pt x="1080" y="506" on="1"/>
        <pt x="727" y="506" on="1"/>
        <pt x="727" y="315" on="1"/>
        <pt x="1046" y="315" on="1"/>
        <pt x="1046" y="250" on="1"/>
        <pt x="727" y="250" on="1"/>
        <pt x="727" y="0" on="1"/>
        <pt x="637" y="0" on="1"/>
      </contour>
    </TTGlyph>
    <TTGlyph name="F_F_B.sc" xMin="89" yMin="-8" xMax="1681" yMax="584">
      <contour>
        <pt x="89" y="577" on="1"/>
        <pt x="532" y="577" on="1"/>
        <pt x="532" y="506" on="1"/>
        <pt x="179" y="506" on="1"/>
        <pt x="179" y="315" on="1"/>
        <pt x="498" y="315" on="1"/>
        <pt x="498" y="250" on="1"/>
        <pt x="179" y="250" on="1"/>
        <pt x="179" y="0" on="1"/>
        <pt x="89" y="0" on="1"/>
      </contour>
      <contour>
        <pt x="637" y="577" on="1"/>
        <pt x="1080" y="577" on="1"/>
        <pt x="1080" y="506" on="1"/>
        <pt x="727" y="506" on="1"/>
        <pt x="727" y="315" on="1"/>
        <pt x="1046" y="315" on="1"/>
        <pt x="1046" y="250" on="1"/>
        <pt x="727" y="250" on="1"/>
        <pt x="727" y="0" on="1"/>
        <pt x="637" y="0" on="1"/>
      </contour>
      <contour>
        <pt x="1416" y="-8" on="1"/>
        <pt x="1363" y="-8" on="0"/>
        <pt x="1252" y="-2" on="0"/>
        <pt x="1185" y="4" on="1"/>
        <pt x="1185" y="573" on="1"/>
        <pt x="1251" y="578" on="0"/>
        <pt x="1355" y="584" on="0"/>
        <pt x="1403" y="584" on="1"/>
        <pt x="1539" y="584" on="0"/>
        <pt x="1659" y="510" on="0"/>
        <pt x="1659" y="427" on="1"/>
        <pt x="1659" y="376" on="0"/>
        <pt x="1597" y="307" on="0"/>
        <pt x="1543" y="296" on="1"/>
        <pt x="1543" y="293" on="1"/>
        <pt x="1611" y="281" on="0"/>
        <pt x="1681" y="210" on="0"/>
        <pt x="1681" y="153" on="1"/>
        <pt x="1681" y="-8" on="0"/>
      </contour>
      <contour>
        <pt x="1412" y="57" on="1"/>
        <pt x="1505" y="57" on="0"/>
        <pt x="1591" y="107" on="0"/>
        <pt x="1591" y="161" on="1"/>
        <pt x="1591" y="213" on="0"/>
        <pt x="1513" y="263" on="0"/>
        <pt x="1432" y="263" on="1"/>
        <pt x="1272" y="263" on="1"/>
        <pt x="1272" y="64" on="1"/>
        <pt x="1295" y="60" on="0"/>
        <pt x="1358" y="57" on="0"/>
      </contour>
      <contour>
        <pt x="1424" y="322" on="1"/>
        <pt x="1503" y="322" on="0"/>
        <pt x="1571" y="367" on="0"/>
        <pt x="1571" y="421" on="1"/>
        <pt x="1571" y="448" on="0"/>
        <pt x="1553" y="486" on="0"/>
        <pt x="1514" y="509" on="0"/>
        <pt x="1451" y="519" on="0"/>
        <pt x="1405" y="519" on="1"/>
        <pt x="1363" y="519" on="0"/>
        <pt x="1298" y="517" on="0"/>
        <pt x="1272" y="513" on="1"/>
        <pt x="1272" y="322" on="1"/>
      </contour>
    </TTGlyph>
    <TTGlyph name="F_F_H.sc" xMin="89" yMin="0" xMax="1742" yMax="577">
      <contour>
        <pt x="89" y="577" on="1"/>
        <pt x="532" y="577" on="1"/>
        <pt x="532" y="506" on="1"/>
        <pt x="179" y="506" on="1"/>
        <pt x="179" y="315" on="1"/>
        <pt x="498" y="315" on="1"/>
        <pt x="498" y="250" on="1"/>
        <pt x="179" y="250" on="1"/>
        <pt x="179" y="0" on="1"/>
        <pt x="89" y="0" on="1"/>
      </contour>
      <contour>
        <pt x="637" y="577" on="1"/>
        <pt x="1080" y="577" on="1"/>
        <pt x="1080" y="506" on="1"/>
        <pt x="727" y="506" on="1"/>
        <pt x="727" y="315" on="1"/>
        <pt x="1046" y="315" on="1"/>
        <pt x="1046" y="250" on="1"/>
        <pt x="727" y="250" on="1"/>
        <pt x="727" y="0" on="1"/>
        <pt x="637" y="0" on="1"/>
      </contour>
      <contour>
        <pt x="1185" y="577" on="1"/>
        <pt x="1275" y="577" on="1"/>
        <pt x="1275" y="332" on="1"/>
        <pt x="1652" y="332" on="1"/>
        <pt x="1652" y="577" on="1"/>
        <pt x="1742" y="577" on="1"/>
        <pt x="1742" y="0" on="1"/>
        <pt x="1652" y="0" on="1"/>
        <pt x="1652" y="261" on="1"/>
        <pt x="1275" y="261" on="1"/>
        <pt x="1275" y="0" on="1"/>
        <pt x="1185" y="0" on="1"/>
      </contour>
    </TTGlyph>
    <TTGlyph name="F_F_I.sc" xMin="89" yMin="0" xMax="1275" yMax="577">
      <contour>
        <pt x="89" y="577" on="1"/>
        <pt x="532" y="577" on="1"/>
        <pt x="532" y="506" on="1"/>
        <pt x="179" y="506" on="1"/>
        <pt x="179" y="315" on="1"/>
        <pt x="498" y="315" on="1"/>
        <pt x="498" y="250" on="1"/>
        <pt x="179" y="250" on="1"/>
        <pt x="179" y="0" on="1"/>
        <pt x="89" y="0" on="1"/>
      </contour>
      <contour>
        <pt x="637" y="577" on="1"/>
        <pt x="1080" y="577" on="1"/>
        <pt x="1080" y="506" on="1"/>
        <pt x="727" y="506" on="1"/>
        <pt x="727" y="315" on="1"/>
        <pt x="1046" y="315" on="1"/>
        <pt x="1046" y="250" on="1"/>
        <pt x="727" y="250" on="1"/>
        <pt x="727" y="0" on="1"/>
        <pt x="637" y="0" on="1"/>
      </contour>
      <contour>
        <pt x="1185" y="577" on="1"/>
        <pt x="1275" y="577" on="1"/>
        <pt x="1275" y="0" on="1"/>
        <pt x="1185" y="0" on="1"/>
      </contour>
    </TTGlyph>
    <TTGlyph name="F_F_J.sc" xMin="89" yMin="-152" xMax="1285" yMax="577">
      <contour>
        <pt x="89" y="577" on="1"/>
        <pt x="532" y="577" on="1"/>
        <pt x="532" y="506" on="1"/>
        <pt x="179" y="506" on="1"/>
        <pt x="179" y="315" on="1"/>
        <pt x="498" y="315" on="1"/>
        <pt x="498" y="250" on="1"/>
        <pt x="179" y="250" on="1"/>
        <pt x="179" y="0" on="1"/>
        <pt x="89" y="0" on="1"/>
      </contour>
      <contour>
        <pt x="637" y="577" on="1"/>
        <pt x="1080" y="577" on="1"/>
        <pt x="1080" y="506" on="1"/>
        <pt x="727" y="506" on="1"/>
        <pt x="727" y="315" on="1"/>
        <pt x="1046" y="315" on="1"/>
        <pt x="1046" y="250" on="1"/>
        <pt x="727" y="250" on="1"/>
        <pt x="727" y="0" on="1"/>
        <pt x="637" y="0" on="1"/>
      </contour>
      <contour>
        <pt x="1128" y="-124" on="1"/>
        <pt x="1147" y="-87" on="0"/>
        <pt x="1173" y="-23" on="0"/>
        <pt x="1188" y="40" on="0"/>
        <pt x="1195" y="107" on="0"/>
        <pt x="1195" y="147" on="1"/>
        <pt x="1195" y="577" on="1"/>
        <pt x="1285" y="577" on="1"/>
        <pt x="1285" y="142" on="1"/>
        <pt x="1285" y="102" on="0"/>
        <pt x="1276" y="34" on="0"/>
        <pt x="1254" y="-34" on="0"/>
        <pt x="1217" y="-107" on="0"/>
        <pt x="1190" y="-152" on="1"/>
      </contour>
    </TTGlyph>
    <TTGlyph name="F_F_K.sc" xMin="89" yMin="0" xMax="1721" yMax="577">
      <contour>
        <pt x="89" y="577" on="1"/>
        <pt x="532" y="577" on="1"/>
        <pt x="532" y="506" on="1"/>
        <pt x="179" y="506" on="1"/>
        <pt x="179" y="315" on="1"/>
        <pt x="498" y="315" on="1"/>
        <pt x="498" y="250" on="1"/>
        <pt x="179" y="250" on="1"/>
        <pt x="179" y="0" on="1"/>
        <pt x="89" y="0" on="1"/>
      </contour>
      <contour>
        <pt x="637" y="577" on="1"/>
        <pt x="1080" y="577" on="1"/>
        <pt x="1080" y="506" on="1"/>
        <pt x="727" y="506" on="1"/>
        <pt x="727" y="315" on="1"/>
        <pt x="1046" y="315" on="1"/>
        <pt x="1046" y="250" on="1"/>
        <pt x="727" y="250" on="1"/>
        <pt x="727" y="0" on="1"/>
        <pt x="637" y="0" on="1"/>
      </contour>
      <contour>
        <pt x="1185" y="577" on="1"/>
        <pt x="1275" y="577" on="1"/>
        <pt x="1275" y="328" on="1"/>
        <pt x="1412" y="328" on="1"/>
        <pt x="1604" y="577" on="1"/>
        <pt x="1706" y="577" on="1"/>
        <pt x="1506" y="322" on="1"/>
        <pt x="1475" y="303" on="1"/>
        <pt x="1475" y="297" on="1"/>
        <pt x="1508" y="277" on="1"/>
        <pt x="1721" y="0" on="1"/>
        <pt x="1618" y="0" on="1"/>
        <pt x="1421" y="257" on="1"/>
        <pt x="1275" y="257" on="1"/>
        <pt x="1275" y="0" on="1"/>
        <pt x="1185" y="0" on="1"/>
      </contour>
    </TTGlyph>
    <TTGlyph name="F_F_L.sc" xMin="89" yMin="0" xMax="1595" yMax="577">
      <contour>
        <pt x="1185" y="577" on="1"/>
        <pt x="1275" y="577" on="1"/>
        <pt x="1275" y="71" on="1"/>
        <pt x="1595" y="71" on="1"/>
        <pt x="1595" y="0" on="1"/>
        <pt x="1185" y="0" on="1"/>
      </contour>
      <contour>
        <pt x="89" y="577" on="1"/>
        <pt x="532" y="577" on="1"/>
        <pt x="532" y="506" on="1"/>
        <pt x="179" y="506" on="1"/>
        <pt x="179" y="315" on="1"/>
        <pt x="498" y="315" on="1"/>
        <pt x="498" y="250" on="1"/>
        <pt x="179" y="250" on="1"/>
        <pt x="179" y="0" on="1"/>
        <pt x="89" y="0" on="1"/>
      </contour>
      <contour>
        <pt x="637" y="577" on="1"/>
        <pt x="1080" y="577" on="1"/>
        <pt x="1080" y="506" on="1"/>
        <pt x="727" y="506" on="1"/>
        <pt x="727" y="315" on="1"/>
        <pt x="1046" y="315" on="1"/>
        <pt x="1046" y="250" on="1"/>
        <pt x="727" y="250" on="1"/>
        <pt x="727" y="0" on="1"/>
        <pt x="637" y="0" on="1"/>
      </contour>
    </TTGlyph>
    <TTGlyph name="F_F_T.sc" xMin="89" yMin="0" xMax="1644" yMax="577">
      <contour>
        <pt x="1332" y="506" on="1"/>
        <pt x="1110" y="506" on="1"/>
        <pt x="1110" y="577" on="1"/>
        <pt x="1644" y="577" on="1"/>
        <pt x="1644" y="506" on="1"/>
        <pt x="1422" y="506" on="1"/>
        <pt x="1422" y="0" on="1"/>
        <pt x="1332" y="0" on="1"/>
      </contour>
      <contour>
        <pt x="89" y="577" on="1"/>
        <pt x="532" y="577" on="1"/>
        <pt x="532" y="506" on="1"/>
        <pt x="179" y="506" on="1"/>
        <pt x="179" y="315" on="1"/>
        <pt x="498" y="315" on="1"/>
        <pt x="498" y="250" on="1"/>
        <pt x="179" y="250" on="1"/>
        <pt x="179" y="0" on="1"/>
        <pt x="89" y="0" on="1"/>
      </contour>
      <contour>
        <pt x="637" y="577" on="1"/>
        <pt x="1080" y="577" on="1"/>
        <pt x="1080" y="506" on="1"/>
        <pt x="727" y="506" on="1"/>
        <pt x="727" y="315" on="1"/>
        <pt x="1046" y="315" on="1"/>
        <pt x="1046" y="250" on="1"/>
        <pt x="727" y="250" on="1"/>
        <pt x="727" y="0" on="1"/>
        <pt x="637" y="0" on="1"/>
      </contour>
    </TTGlyph>
    <TTGlyph name="F_H.sc" xMin="89" yMin="0" xMax="1194" yMax="577">
      <contour>
        <pt x="89" y="577" on="1"/>
        <pt x="532" y="577" on="1"/>
        <pt x="532" y="506" on="1"/>
        <pt x="179" y="506" on="1"/>
        <pt x="179" y="315" on="1"/>
        <pt x="498" y="315" on="1"/>
        <pt x="498" y="250" on="1"/>
        <pt x="179" y="250" on="1"/>
        <pt x="179" y="0" on="1"/>
        <pt x="89" y="0" on="1"/>
      </contour>
      <contour>
        <pt x="637" y="577" on="1"/>
        <pt x="727" y="577" on="1"/>
        <pt x="727" y="332" on="1"/>
        <pt x="1104" y="332" on="1"/>
        <pt x="1104" y="577" on="1"/>
        <pt x="1194" y="577" on="1"/>
        <pt x="1194" y="0" on="1"/>
        <pt x="1104" y="0" on="1"/>
        <pt x="1104" y="261" on="1"/>
        <pt x="727" y="261" on="1"/>
        <pt x="727" y="0" on="1"/>
        <pt x="637" y="0" on="1"/>
      </contour>
    </TTGlyph>
    <TTGlyph name="F_I.sc" xMin="89" yMin="0" xMax="727" yMax="577">
      <contour>
        <pt x="89" y="577" on="1"/>
        <pt x="532" y="577" on="1"/>
        <pt x="532" y="506" on="1"/>
        <pt x="179" y="506" on="1"/>
        <pt x="179" y="315" on="1"/>
        <pt x="498" y="315" on="1"/>
        <pt x="498" y="250" on="1"/>
        <pt x="179" y="250" on="1"/>
        <pt x="179" y="0" on="1"/>
        <pt x="89" y="0" on="1"/>
      </contour>
      <contour>
        <pt x="637" y="577" on="1"/>
        <pt x="727" y="577" on="1"/>
        <pt x="727" y="0" on="1"/>
        <pt x="637" y="0" on="1"/>
      </contour>
    </TTGlyph>
    <TTGlyph name="F_J.sc" xMin="89" yMin="-152" xMax="736" yMax="577">
      <contour>
        <pt x="89" y="577" on="1"/>
        <pt x="532" y="577" on="1"/>
        <pt x="532" y="506" on="1"/>
        <pt x="179" y="506" on="1"/>
        <pt x="179" y="315" on="1"/>
        <pt x="498" y="315" on="1"/>
        <pt x="498" y="250" on="1"/>
        <pt x="179" y="250" on="1"/>
        <pt x="179" y="0" on="1"/>
        <pt x="89" y="0" on="1"/>
      </contour>
      <contour>
        <pt x="579" y="-124" on="1"/>
        <pt x="598" y="-87" on="0"/>
        <pt x="624" y="-23" on="0"/>
        <pt x="639" y="40" on="0"/>
        <pt x="646" y="107" on="0"/>
        <pt x="646" y="147" on="1"/>
        <pt x="646" y="577" on="1"/>
        <pt x="736" y="577" on="1"/>
        <pt x="736" y="142" on="1"/>
        <pt x="736" y="102" on="0"/>
        <pt x="727" y="34" on="0"/>
        <pt x="705" y="-34" on="0"/>
        <pt x="668" y="-107" on="0"/>
        <pt x="641" y="-152" on="1"/>
      </contour>
    </TTGlyph>
    <TTGlyph name="F_K.sc" xMin="89" yMin="0" xMax="1173" yMax="577">
      <contour>
        <pt x="89" y="577" on="1"/>
        <pt x="532" y="577" on="1"/>
        <pt x="532" y="506" on="1"/>
        <pt x="179" y="506" on="1"/>
        <pt x="179" y="315" on="1"/>
        <pt x="498" y="315" on="1"/>
        <pt x="498" y="250" on="1"/>
        <pt x="179" y="250" on="1"/>
        <pt x="179" y="0" on="1"/>
        <pt x="89" y="0" on="1"/>
      </contour>
      <contour>
        <pt x="637" y="577" on="1"/>
        <pt x="727" y="577" on="1"/>
        <pt x="727" y="328" on="1"/>
        <pt x="864" y="328" on="1"/>
        <pt x="1056" y="577" on="1"/>
        <pt x="1158" y="577" on="1"/>
        <pt x="958" y="322" on="1"/>
        <pt x="927" y="303" on="1"/>
        <pt x="927" y="297" on="1"/>
        <pt x="960" y="277" on="1"/>
        <pt x="1173" y="0" on="1"/>
        <pt x="1070" y="0" on="1"/>
        <pt x="873" y="257" on="1"/>
        <pt x="727" y="257" on="1"/>
        <pt x="727" y="0" on="1"/>
        <pt x="637" y="0" on="1"/>
      </contour>
    </TTGlyph>
    <TTGlyph name="F_L.sc" xMin="89" yMin="0" xMax="1047" yMax="577">
      <contour>
        <pt x="637" y="577" on="1"/>
        <pt x="727" y="577" on="1"/>
        <pt x="727" y="71" on="1"/>
        <pt x="1047" y="71" on="1"/>
        <pt x="1047" y="0" on="1"/>
        <pt x="637" y="0" on="1"/>
      </contour>
      <contour>
        <pt x="89" y="577" on="1"/>
        <pt x="532" y="577" on="1"/>
        <pt x="532" y="506" on="1"/>
        <pt x="179" y="506" on="1"/>
        <pt x="179" y="315" on="1"/>
        <pt x="498" y="315" on="1"/>
        <pt x="498" y="250" on="1"/>
        <pt x="179" y="250" on="1"/>
        <pt x="179" y="0" on="1"/>
        <pt x="89" y="0" on="1"/>
      </contour>
    </TTGlyph>
    <TTGlyph name="F_T.sc" xMin="89" yMin="0" xMax="1097" yMax="577">
      <contour>
        <pt x="785" y="506" on="1"/>
        <pt x="563" y="506" on="1"/>
        <pt x="563" y="577" on="1"/>
        <pt x="1097" y="577" on="1"/>
        <pt x="1097" y="506" on="1"/>
        <pt x="875" y="506" on="1"/>
        <pt x="875" y="0" on="1"/>
        <pt x="785" y="0" on="1"/>
      </contour>
      <contour>
        <pt x="89" y="577" on="1"/>
        <pt x="532" y="577" on="1"/>
        <pt x="532" y="506" on="1"/>
        <pt x="179" y="506" on="1"/>
        <pt x="179" y="315" on="1"/>
        <pt x="498" y="315" on="1"/>
        <pt x="498" y="250" on="1"/>
        <pt x="179" y="250" on="1"/>
        <pt x="179" y="0" on="1"/>
        <pt x="89" y="0" on="1"/>
      </contour>
    </TTGlyph>
    <TTGlyph name="G" xMin="54" yMin="-9" xMax="630" yMax="751">
      <contour>
        <pt x="410" y="-9" on="1"/>
        <pt x="233" y="-9" on="0"/>
        <pt x="54" y="181" on="0"/>
        <pt x="54" y="368" on="1"/>
        <pt x="54" y="557" on="0"/>
        <pt x="238" y="751" on="0"/>
        <pt x="420" y="751" on="1"/>
        <pt x="469" y="751" on="0"/>
        <pt x="571" y="738" on="0"/>
        <pt x="622" y="724" on="1"/>
        <pt x="622" y="645" on="1"/>
        <pt x="589" y="652" on="0"/>
        <pt x="535" y="662" on="0"/>
        <pt x="489" y="668" on="0"/>
        <pt x="447" y="671" on="0"/>
        <pt x="426" y="671" on="1"/>
        <pt x="284" y="671" on="0"/>
        <pt x="149" y="522" on="0"/>
        <pt x="149" y="369" on="1"/>
        <pt x="149" y="217" on="0"/>
        <pt x="277" y="70" on="0"/>
        <pt x="410" y="70" on="1"/>
        <pt x="436" y="70" on="0"/>
        <pt x="510" y="78" on="0"/>
        <pt x="542" y="83" on="1"/>
        <pt x="542" y="376" on="1"/>
        <pt x="630" y="376" on="1"/>
        <pt x="630" y="28" on="1"/>
        <pt x="606" y="20" on="0"/>
        <pt x="548" y="6" on="0"/>
        <pt x="489" y="-4" on="0"/>
        <pt x="432" y="-9" on="0"/>
      </contour>
    </TTGlyph>
    <TTGlyph name="G.sc" xMin="54" yMin="-8" xMax="565" yMax="586">
      <contour>
        <pt x="368" y="-8" on="1"/>
        <pt x="212" y="-8" on="0"/>
        <pt x="54" y="141" on="0"/>
        <pt x="54" y="287" on="1"/>
        <pt x="54" y="435" on="0"/>
        <pt x="216" y="586" on="0"/>
        <pt x="377" y="586" on="1"/>
        <pt x="421" y="586" on="0"/>
        <pt x="513" y="576" on="0"/>
        <pt x="557" y="565" on="1"/>
        <pt x="557" y="492" on="1"/>
        <pt x="497" y="503" on="0"/>
        <pt x="420" y="511" on="0"/>
        <pt x="383" y="511" on="1"/>
        <pt x="259" y="511" on="0"/>
        <pt x="146" y="401" on="0"/>
        <pt x="146" y="288" on="1"/>
        <pt x="146" y="175" on="0"/>
        <pt x="252" y="68" on="0"/>
        <pt x="369" y="68" on="1"/>
        <pt x="379" y="68" on="0"/>
        <pt x="408" y="70" on="0"/>
        <pt x="440" y="73" on="0"/>
        <pt x="470" y="77" on="0"/>
        <pt x="480" y="80" on="1"/>
        <pt x="480" y="293" on="1"/>
        <pt x="565" y="293" on="1"/>
        <pt x="565" y="23" on="1"/>
        <pt x="543" y="16" on="0"/>
        <pt x="491" y="5" on="0"/>
        <pt x="438" y="-3" on="0"/>
        <pt x="388" y="-8" on="0"/>
      </contour>
    </TTGlyph>
    <TTGlyph name="Gacute" xMin="54" yMin="-9" xMax="630" yMax="953">
      <contour>
        <pt x="329" y="812" on="1"/>
        <pt x="403" y="953" on="1"/>
        <pt x="499" y="953" on="1"/>
        <pt x="400" y="805" on="1"/>
      </contour>
      <contour>
        <pt x="410" y="-9" on="1"/>
        <pt x="233" y="-9" on="0"/>
        <pt x="54" y="181" on="0"/>
        <pt x="54" y="368" on="1"/>
        <pt x="54" y="557" on="0"/>
        <pt x="238" y="751" on="0"/>
        <pt x="420" y="751" on="1"/>
        <pt x="469" y="751" on="0"/>
        <pt x="571" y="738" on="0"/>
        <pt x="622" y="724" on="1"/>
        <pt x="622" y="645" on="1"/>
        <pt x="589" y="652" on="0"/>
        <pt x="535" y="662" on="0"/>
        <pt x="489" y="668" on="0"/>
        <pt x="447" y="671" on="0"/>
        <pt x="426" y="671" on="1"/>
        <pt x="284" y="671" on="0"/>
        <pt x="149" y="522" on="0"/>
        <pt x="149" y="369" on="1"/>
        <pt x="149" y="217" on="0"/>
        <pt x="277" y="70" on="0"/>
        <pt x="410" y="70" on="1"/>
        <pt x="436" y="70" on="0"/>
        <pt x="510" y="78" on="0"/>
        <pt x="542" y="83" on="1"/>
        <pt x="542" y="376" on="1"/>
        <pt x="630" y="376" on="1"/>
        <pt x="630" y="28" on="1"/>
        <pt x="606" y="20" on="0"/>
        <pt x="548" y="6" on="0"/>
        <pt x="489" y="-4" on="0"/>
        <pt x="432" y="-9" on="0"/>
      </contour>
    </TTGlyph>
    <TTGlyph name="Gacute.sc" xMin="54" yMin="-8" xMax="565" yMax="751">
      <contour>
        <pt x="368" y="-8" on="1"/>
        <pt x="212" y="-8" on="0"/>
        <pt x="54" y="140" on="0"/>
        <pt x="54" y="287" on="1"/>
        <pt x="54" y="436" on="0"/>
        <pt x="216" y="586" on="0"/>
        <pt x="377" y="586" on="1"/>
        <pt x="422" y="586" on="0"/>
        <pt x="513" y="576" on="0"/>
        <pt x="557" y="565" on="1"/>
        <pt x="557" y="490" on="1"/>
        <pt x="527" y="496" on="0"/>
        <pt x="479" y="504" on="0"/>
        <pt x="438" y="509" on="0"/>
        <pt x="401" y="511" on="0"/>
        <pt x="383" y="511" on="1"/>
        <pt x="261" y="511" on="0"/>
        <pt x="146" y="403" on="0"/>
        <pt x="146" y="288" on="1"/>
        <pt x="146" y="174" on="0"/>
        <pt x="254" y="68" on="0"/>
        <pt x="369" y="68" on="1"/>
        <pt x="379" y="68" on="0"/>
        <pt x="408" y="70" on="0"/>
        <pt x="440" y="73" on="0"/>
        <pt x="470" y="77" on="0"/>
        <pt x="480" y="80" on="1"/>
        <pt x="480" y="293" on="1"/>
        <pt x="565" y="293" on="1"/>
        <pt x="565" y="23" on="1"/>
        <pt x="543" y="16" on="0"/>
        <pt x="491" y="5" on="0"/>
        <pt x="439" y="-3" on="0"/>
        <pt x="388" y="-8" on="0"/>
      </contour>
      <contour>
        <pt x="294" y="635" on="1"/>
        <pt x="356" y="751" on="1"/>
        <pt x="449" y="751" on="1"/>
        <pt x="362" y="629" on="1"/>
      </contour>
    </TTGlyph>
    <TTGlyph name="Gbreve" xMin="54" yMin="-9" xMax="630" yMax="965">
      <contour>
        <pt x="376" y="815" on="1"/>
        <pt x="277" y="815" on="0"/>
        <pt x="184" y="898" on="0"/>
        <pt x="184" y="965" on="1"/>
        <pt x="253" y="965" on="1"/>
        <pt x="253" y="920" on="0"/>
        <pt x="314" y="870" on="0"/>
        <pt x="376" y="870" on="1"/>
        <pt x="439" y="870" on="0"/>
        <pt x="500" y="920" on="0"/>
        <pt x="500" y="965" on="1"/>
        <pt x="568" y="965" on="1"/>
        <pt x="568" y="897" on="0"/>
        <pt x="474" y="815" on="0"/>
      </contour>
      <contour>
        <pt x="410" y="-9" on="1"/>
        <pt x="233" y="-9" on="0"/>
        <pt x="54" y="181" on="0"/>
        <pt x="54" y="368" on="1"/>
        <pt x="54" y="557" on="0"/>
        <pt x="238" y="751" on="0"/>
        <pt x="420" y="751" on="1"/>
        <pt x="469" y="751" on="0"/>
        <pt x="571" y="738" on="0"/>
        <pt x="622" y="724" on="1"/>
        <pt x="622" y="645" on="1"/>
        <pt x="589" y="652" on="0"/>
        <pt x="535" y="662" on="0"/>
        <pt x="489" y="668" on="0"/>
        <pt x="447" y="671" on="0"/>
        <pt x="426" y="671" on="1"/>
        <pt x="284" y="671" on="0"/>
        <pt x="149" y="522" on="0"/>
        <pt x="149" y="369" on="1"/>
        <pt x="149" y="217" on="0"/>
        <pt x="277" y="70" on="0"/>
        <pt x="410" y="70" on="1"/>
        <pt x="436" y="70" on="0"/>
        <pt x="510" y="78" on="0"/>
        <pt x="542" y="83" on="1"/>
        <pt x="542" y="376" on="1"/>
        <pt x="630" y="376" on="1"/>
        <pt x="630" y="28" on="1"/>
        <pt x="606" y="20" on="0"/>
        <pt x="548" y="6" on="0"/>
        <pt x="489" y="-4" on="0"/>
        <pt x="432" y="-9" on="0"/>
      </contour>
    </TTGlyph>
    <TTGlyph name="Gbreve.sc" xMin="54" yMin="-8" xMax="565" yMax="759">
      <contour>
        <pt x="368" y="-8" on="1"/>
        <pt x="212" y="-8" on="0"/>
        <pt x="54" y="140" on="0"/>
        <pt x="54" y="287" on="1"/>
        <pt x="54" y="436" on="0"/>
        <pt x="216" y="586" on="0"/>
        <pt x="377" y="586" on="1"/>
        <pt x="422" y="586" on="0"/>
        <pt x="513" y="576" on="0"/>
        <pt x="557" y="565" on="1"/>
        <pt x="557" y="490" on="1"/>
        <pt x="527" y="496" on="0"/>
        <pt x="479" y="504" on="0"/>
        <pt x="438" y="509" on="0"/>
        <pt x="401" y="511" on="0"/>
        <pt x="383" y="511" on="1"/>
        <pt x="261" y="511" on="0"/>
        <pt x="146" y="403" on="0"/>
        <pt x="146" y="288" on="1"/>
        <pt x="146" y="174" on="0"/>
        <pt x="254" y="68" on="0"/>
        <pt x="369" y="68" on="1"/>
        <pt x="379" y="68" on="0"/>
        <pt x="408" y="70" on="0"/>
        <pt x="440" y="73" on="0"/>
        <pt x="470" y="77" on="0"/>
        <pt x="480" y="80" on="1"/>
        <pt x="480" y="293" on="1"/>
        <pt x="565" y="293" on="1"/>
        <pt x="565" y="23" on="1"/>
        <pt x="543" y="16" on="0"/>
        <pt x="491" y="5" on="0"/>
        <pt x="439" y="-3" on="0"/>
        <pt x="388" y="-8" on="0"/>
      </contour>
      <contour>
        <pt x="339" y="635" on="1"/>
        <pt x="249" y="635" on="0"/>
        <pt x="167" y="705" on="0"/>
        <pt x="167" y="759" on="1"/>
        <pt x="231" y="759" on="1"/>
        <pt x="231" y="724" on="0"/>
        <pt x="284" y="685" on="0"/>
        <pt x="339" y="685" on="1"/>
        <pt x="394" y="685" on="0"/>
        <pt x="446" y="724" on="0"/>
        <pt x="446" y="759" on="1"/>
        <pt x="510" y="759" on="1"/>
        <pt x="510" y="704" on="0"/>
        <pt x="428" y="635" on="0"/>
      </contour>
    </TTGlyph>
    <TTGlyph name="Gcircumflex" xMin="54" yMin="-9" xMax="630" yMax="961">
      <contour>
        <pt x="410" y="-9" on="1"/>
        <pt x="233" y="-9" on="0"/>
        <pt x="54" y="181" on="0"/>
        <pt x="54" y="368" on="1"/>
        <pt x="54" y="557" on="0"/>
        <pt x="238" y="751" on="0"/>
        <pt x="420" y="751" on="1"/>
        <pt x="469" y="751" on="0"/>
        <pt x="571" y="738" on="0"/>
        <pt x="622" y="724" on="1"/>
        <pt x="622" y="645" on="1"/>
        <pt x="589" y="652" on="0"/>
        <pt x="535" y="662" on="0"/>
        <pt x="489" y="668" on="0"/>
        <pt x="447" y="671" on="0"/>
        <pt x="426" y="671" on="1"/>
        <pt x="284" y="671" on="0"/>
        <pt x="149" y="522" on="0"/>
        <pt x="149" y="369" on="1"/>
        <pt x="149" y="217" on="0"/>
        <pt x="277" y="70" on="0"/>
        <pt x="410" y="70" on="1"/>
        <pt x="436" y="70" on="0"/>
        <pt x="510" y="78" on="0"/>
        <pt x="542" y="83" on="1"/>
        <pt x="542" y="376" on="1"/>
        <pt x="630" y="376" on="1"/>
        <pt x="630" y="28" on="1"/>
        <pt x="606" y="20" on="0"/>
        <pt x="548" y="6" on="0"/>
        <pt x="489" y="-4" on="0"/>
        <pt x="432" y="-9" on="0"/>
      </contour>
      <contour>
        <pt x="196" y="886" on="1"/>
        <pt x="372" y="961" on="1"/>
        <pt x="548" y="886" on="1"/>
        <pt x="548" y="812" on="1"/>
        <pt x="372" y="887" on="1"/>
        <pt x="196" y="812" on="1"/>
      </contour>
    </TTGlyph>
    <TTGlyph name="Gcircumflex.sc" xMin="54" yMin="-8" xMax="565" yMax="758">
      <contour>
        <pt x="368" y="-8" on="1"/>
        <pt x="212" y="-8" on="0"/>
        <pt x="54" y="140" on="0"/>
        <pt x="54" y="287" on="1"/>
        <pt x="54" y="436" on="0"/>
        <pt x="216" y="586" on="0"/>
        <pt x="377" y="586" on="1"/>
        <pt x="422" y="586" on="0"/>
        <pt x="513" y="576" on="0"/>
        <pt x="557" y="565" on="1"/>
        <pt x="557" y="490" on="1"/>
        <pt x="527" y="496" on="0"/>
        <pt x="479" y="504" on="0"/>
        <pt x="438" y="509" on="0"/>
        <pt x="401" y="511" on="0"/>
        <pt x="383" y="511" on="1"/>
        <pt x="261" y="511" on="0"/>
        <pt x="146" y="403" on="0"/>
        <pt x="146" y="288" on="1"/>
        <pt x="146" y="174" on="0"/>
        <pt x="254" y="68" on="0"/>
        <pt x="369" y="68" on="1"/>
        <pt x="379" y="68" on="0"/>
        <pt x="408" y="70" on="0"/>
        <pt x="440" y="73" on="0"/>
        <pt x="470" y="77" on="0"/>
        <pt x="480" y="80" on="1"/>
        <pt x="480" y="293" on="1"/>
        <pt x="565" y="293" on="1"/>
        <pt x="565" y="23" on="1"/>
        <pt x="543" y="16" on="0"/>
        <pt x="491" y="5" on="0"/>
        <pt x="439" y="-3" on="0"/>
        <pt x="388" y="-8" on="0"/>
      </contour>
      <contour>
        <pt x="176" y="698" on="1"/>
        <pt x="333" y="758" on="1"/>
        <pt x="491" y="698" on="1"/>
        <pt x="491" y="632" on="1"/>
        <pt x="334" y="691" on="1"/>
        <pt x="176" y="632" on="1"/>
      </contour>
    </TTGlyph>
    <TTGlyph name="Gcommaaccent" xMin="54" yMin="-220" xMax="630" yMax="751">
      <contour>
        <pt x="334" y="-70" on="1"/>
        <pt x="430" y="-70" on="1"/>
        <pt x="362" y="-220" on="1"/>
        <pt x="286" y="-220" on="1"/>
      </contour>
      <contour>
        <pt x="410" y="-9" on="1"/>
        <pt x="233" y="-9" on="0"/>
        <pt x="54" y="181" on="0"/>
        <pt x="54" y="368" on="1"/>
        <pt x="54" y="557" on="0"/>
        <pt x="238" y="751" on="0"/>
        <pt x="420" y="751" on="1"/>
        <pt x="469" y="751" on="0"/>
        <pt x="571" y="738" on="0"/>
        <pt x="622" y="724" on="1"/>
        <pt x="622" y="645" on="1"/>
        <pt x="589" y="652" on="0"/>
        <pt x="535" y="662" on="0"/>
        <pt x="489" y="668" on="0"/>
        <pt x="447" y="671" on="0"/>
        <pt x="426" y="671" on="1"/>
        <pt x="284" y="671" on="0"/>
        <pt x="149" y="522" on="0"/>
        <pt x="149" y="369" on="1"/>
        <pt x="149" y="217" on="0"/>
        <pt x="277" y="70" on="0"/>
        <pt x="410" y="70" on="1"/>
        <pt x="436" y="70" on="0"/>
        <pt x="510" y="78" on="0"/>
        <pt x="542" y="83" on="1"/>
        <pt x="542" y="376" on="1"/>
        <pt x="630" y="376" on="1"/>
        <pt x="630" y="28" on="1"/>
        <pt x="606" y="20" on="0"/>
        <pt x="548" y="6" on="0"/>
        <pt x="489" y="-4" on="0"/>
        <pt x="432" y="-9" on="0"/>
      </contour>
    </TTGlyph>
    <TTGlyph name="Gcommaaccent.sc" xMin="54" yMin="-172" xMax="565" yMax="586">
      <contour>
        <pt x="368" y="-8" on="1"/>
        <pt x="212" y="-8" on="0"/>
        <pt x="54" y="140" on="0"/>
        <pt x="54" y="287" on="1"/>
        <pt x="54" y="436" on="0"/>
        <pt x="216" y="586" on="0"/>
        <pt x="377" y="586" on="1"/>
        <pt x="422" y="586" on="0"/>
        <pt x="513" y="576" on="0"/>
        <pt x="557" y="565" on="1"/>
        <pt x="557" y="490" on="1"/>
        <pt x="527" y="496" on="0"/>
        <pt x="479" y="504" on="0"/>
        <pt x="438" y="509" on="0"/>
        <pt x="401" y="511" on="0"/>
        <pt x="383" y="511" on="1"/>
        <pt x="261" y="511" on="0"/>
        <pt x="146" y="403" on="0"/>
        <pt x="146" y="288" on="1"/>
        <pt x="146" y="174" on="0"/>
        <pt x="254" y="68" on="0"/>
        <pt x="369" y="68" on="1"/>
        <pt x="379" y="68" on="0"/>
        <pt x="408" y="70" on="0"/>
        <pt x="440" y="73" on="0"/>
        <pt x="470" y="77" on="0"/>
        <pt x="480" y="80" on="1"/>
        <pt x="480" y="293" on="1"/>
        <pt x="565" y="293" on="1"/>
        <pt x="565" y="23" on="1"/>
        <pt x="543" y="16" on="0"/>
        <pt x="491" y="5" on="0"/>
        <pt x="439" y="-3" on="0"/>
        <pt x="388" y="-8" on="0"/>
      </contour>
      <contour>
        <pt x="296" y="-55" on="1"/>
        <pt x="389" y="-55" on="1"/>
        <pt x="328" y="-172" on="1"/>
        <pt x="256" y="-172" on="1"/>
      </contour>
    </TTGlyph>
    <TTGlyph name="Gdotaccent" xMin="54" yMin="-9" xMax="630" yMax="934">
      <contour>
        <pt x="379" y="818" on="1"/>
        <pt x="349" y="818" on="0"/>
        <pt x="319" y="845" on="0"/>
        <pt x="319" y="876" on="1"/>
        <pt x="319" y="907" on="0"/>
        <pt x="349" y="934" on="0"/>
        <pt x="379" y="934" on="1"/>
        <pt x="408" y="934" on="0"/>
        <pt x="439" y="907" on="0"/>
        <pt x="439" y="876" on="1"/>
        <pt x="439" y="818" on="0"/>
      </contour>
      <contour>
        <pt x="410" y="-9" on="1"/>
        <pt x="233" y="-9" on="0"/>
        <pt x="54" y="181" on="0"/>
        <pt x="54" y="368" on="1"/>
        <pt x="54" y="557" on="0"/>
        <pt x="238" y="751" on="0"/>
        <pt x="420" y="751" on="1"/>
        <pt x="469" y="751" on="0"/>
        <pt x="571" y="738" on="0"/>
        <pt x="622" y="724" on="1"/>
        <pt x="622" y="645" on="1"/>
        <pt x="589" y="652" on="0"/>
        <pt x="535" y="662" on="0"/>
        <pt x="489" y="668" on="0"/>
        <pt x="447" y="671" on="0"/>
        <pt x="426" y="671" on="1"/>
        <pt x="284" y="671" on="0"/>
        <pt x="149" y="522" on="0"/>
        <pt x="149" y="369" on="1"/>
        <pt x="149" y="217" on="0"/>
        <pt x="277" y="70" on="0"/>
        <pt x="410" y="70" on="1"/>
        <pt x="436" y="70" on="0"/>
        <pt x="510" y="78" on="0"/>
        <pt x="542" y="83" on="1"/>
        <pt x="542" y="376" on="1"/>
        <pt x="630" y="376" on="1"/>
        <pt x="630" y="28" on="1"/>
        <pt x="606" y="20" on="0"/>
        <pt x="548" y="6" on="0"/>
        <pt x="489" y="-4" on="0"/>
        <pt x="432" y="-9" on="0"/>
      </contour>
    </TTGlyph>
    <TTGlyph name="Gdotaccent.sc" xMin="54" yMin="-8" xMax="565" yMax="741">
      <contour>
        <pt x="368" y="-8" on="1"/>
        <pt x="212" y="-8" on="0"/>
        <pt x="54" y="140" on="0"/>
        <pt x="54" y="287" on="1"/>
        <pt x="54" y="436" on="0"/>
        <pt x="216" y="586" on="0"/>
        <pt x="377" y="586" on="1"/>
        <pt x="422" y="586" on="0"/>
        <pt x="513" y="576" on="0"/>
        <pt x="557" y="565" on="1"/>
        <pt x="557" y="490" on="1"/>
        <pt x="527" y="496" on="0"/>
        <pt x="479" y="504" on="0"/>
        <pt x="438" y="509" on="0"/>
        <pt x="401" y="511" on="0"/>
        <pt x="383" y="511" on="1"/>
        <pt x="261" y="511" on="0"/>
        <pt x="146" y="403" on="0"/>
        <pt x="146" y="288" on="1"/>
        <pt x="146" y="174" on="0"/>
        <pt x="254" y="68" on="0"/>
        <pt x="369" y="68" on="1"/>
        <pt x="379" y="68" on="0"/>
        <pt x="408" y="70" on="0"/>
        <pt x="440" y="73" on="0"/>
        <pt x="470" y="77" on="0"/>
        <pt x="480" y="80" on="1"/>
        <pt x="480" y="293" on="1"/>
        <pt x="565" y="293" on="1"/>
        <pt x="565" y="23" on="1"/>
        <pt x="543" y="16" on="0"/>
        <pt x="491" y="5" on="0"/>
        <pt x="439" y="-3" on="0"/>
        <pt x="388" y="-8" on="0"/>
      </contour>
      <contour>
        <pt x="341" y="636" on="1"/>
        <pt x="313" y="636" on="0"/>
        <pt x="285" y="660" on="0"/>
        <pt x="285" y="689" on="1"/>
        <pt x="285" y="717" on="0"/>
        <pt x="313" y="741" on="0"/>
        <pt x="341" y="741" on="1"/>
        <pt x="396" y="741" on="0"/>
        <pt x="396" y="689" on="1"/>
        <pt x="396" y="636" on="0"/>
      </contour>
    </TTGlyph>
    <TTGlyph name="H" xMin="94" yMin="0" xMax="720" yMax="740">
      <contour>
        <pt x="94" y="740" on="1"/>
        <pt x="187" y="740" on="1"/>
        <pt x="187" y="418" on="1"/>
        <pt x="627" y="418" on="1"/>
        <pt x="627" y="740" on="1"/>
        <pt x="720" y="740" on="1"/>
        <pt x="720" y="0" on="1"/>
        <pt x="627" y="0" on="1"/>
        <pt x="627" y="342" on="1"/>
        <pt x="187" y="342" on="1"/>
        <pt x="187" y="0" on="1"/>
        <pt x="94" y="0" on="1"/>
      </contour>
    </TTGlyph>
    <TTGlyph name="H.sc" xMin="89" yMin="0" xMax="646" yMax="577">
      <contour>
        <pt x="89" y="577" on="1"/>
        <pt x="179" y="577" on="1"/>
        <pt x="179" y="332" on="1"/>
        <pt x="556" y="332" on="1"/>
        <pt x="556" y="577" on="1"/>
        <pt x="646" y="577" on="1"/>
        <pt x="646" y="0" on="1"/>
        <pt x="556" y="0" on="1"/>
        <pt x="556" y="261" on="1"/>
        <pt x="179" y="261" on="1"/>
        <pt x="179" y="0" on="1"/>
        <pt x="89" y="0" on="1"/>
      </contour>
    </TTGlyph>
    <TTGlyph name="Hbar" xMin="9" yMin="0" xMax="816" yMax="740">
      <contour>
        <pt x="9" y="600" on="1"/>
        <pt x="99" y="600" on="1"/>
        <pt x="99" y="740" on="1"/>
        <pt x="192" y="740" on="1"/>
        <pt x="192" y="600" on="1"/>
        <pt x="632" y="600" on="1"/>
        <pt x="632" y="740" on="1"/>
        <pt x="725" y="740" on="1"/>
        <pt x="725" y="600" on="1"/>
        <pt x="816" y="600" on="1"/>
        <pt x="816" y="545" on="1"/>
        <pt x="725" y="545" on="1"/>
        <pt x="725" y="0" on="1"/>
        <pt x="632" y="0" on="1"/>
        <pt x="632" y="342" on="1"/>
        <pt x="192" y="342" on="1"/>
        <pt x="192" y="0" on="1"/>
        <pt x="99" y="0" on="1"/>
        <pt x="99" y="545" on="1"/>
        <pt x="9" y="545" on="1"/>
      </contour>
      <contour>
        <pt x="632" y="418" on="1"/>
        <pt x="632" y="545" on="1"/>
        <pt x="192" y="545" on="1"/>
        <pt x="192" y="418" on="1"/>
      </contour>
    </TTGlyph>
    <TTGlyph name="Hbar.sc" xMin="17" yMin="0" xMax="728" yMax="577">
      <contour>
        <pt x="17" y="473" on="1"/>
        <pt x="94" y="473" on="1"/>
        <pt x="94" y="577" on="1"/>
        <pt x="183" y="577" on="1"/>
        <pt x="183" y="473" on="1"/>
        <pt x="561" y="473" on="1"/>
        <pt x="561" y="577" on="1"/>
        <pt x="650" y="577" on="1"/>
        <pt x="650" y="473" on="1"/>
        <pt x="728" y="473" on="1"/>
        <pt x="728" y="424" on="1"/>
        <pt x="650" y="424" on="1"/>
        <pt x="650" y="0" on="1"/>
        <pt x="561" y="0" on="1"/>
        <pt x="561" y="255" on="1"/>
        <pt x="183" y="255" on="1"/>
        <pt x="183" y="0" on="1"/>
        <pt x="94" y="0" on="1"/>
        <pt x="94" y="424" on="1"/>
        <pt x="17" y="424" on="1"/>
      </contour>
      <contour>
        <pt x="561" y="326" on="1"/>
        <pt x="561" y="424" on="1"/>
        <pt x="183" y="424" on="1"/>
        <pt x="183" y="326" on="1"/>
      </contour>
    </TTGlyph>
    <TTGlyph name="Hcircumflex" xMin="94" yMin="0" xMax="720" yMax="961">
      <contour>
        <pt x="94" y="740" on="1"/>
        <pt x="187" y="740" on="1"/>
        <pt x="187" y="418" on="1"/>
        <pt x="627" y="418" on="1"/>
        <pt x="627" y="740" on="1"/>
        <pt x="720" y="740" on="1"/>
        <pt x="720" y="0" on="1"/>
        <pt x="627" y="0" on="1"/>
        <pt x="627" y="342" on="1"/>
        <pt x="187" y="342" on="1"/>
        <pt x="187" y="0" on="1"/>
        <pt x="94" y="0" on="1"/>
      </contour>
      <contour>
        <pt x="226" y="886" on="1"/>
        <pt x="402" y="961" on="1"/>
        <pt x="578" y="886" on="1"/>
        <pt x="578" y="812" on="1"/>
        <pt x="402" y="887" on="1"/>
        <pt x="226" y="812" on="1"/>
      </contour>
    </TTGlyph>
    <TTGlyph name="Hcircumflex.sc" xMin="89" yMin="0" xMax="646" yMax="758">
      <contour>
        <pt x="89" y="577" on="1"/>
        <pt x="179" y="577" on="1"/>
        <pt x="179" y="332" on="1"/>
        <pt x="556" y="332" on="1"/>
        <pt x="556" y="577" on="1"/>
        <pt x="646" y="577" on="1"/>
        <pt x="646" y="0" on="1"/>
        <pt x="556" y="0" on="1"/>
        <pt x="556" y="261" on="1"/>
        <pt x="179" y="261" on="1"/>
        <pt x="179" y="0" on="1"/>
        <pt x="89" y="0" on="1"/>
      </contour>
      <contour>
        <pt x="206" y="698" on="1"/>
        <pt x="363" y="758" on="1"/>
        <pt x="521" y="698" on="1"/>
        <pt x="521" y="632" on="1"/>
        <pt x="364" y="691" on="1"/>
        <pt x="206" y="632" on="1"/>
      </contour>
    </TTGlyph>
    <TTGlyph name="Hdotbelow" xMin="94" yMin="-185" xMax="720" yMax="740">
      <contour>
        <pt x="94" y="740" on="1"/>
        <pt x="187" y="740" on="1"/>
        <pt x="187" y="418" on="1"/>
        <pt x="627" y="418" on="1"/>
        <pt x="627" y="740" on="1"/>
        <pt x="720" y="740" on="1"/>
        <pt x="720" y="0" on="1"/>
        <pt x="627" y="0" on="1"/>
        <pt x="627" y="342" on="1"/>
        <pt x="187" y="342" on="1"/>
        <pt x="187" y="0" on="1"/>
        <pt x="94" y="0" on="1"/>
      </contour>
      <contour>
        <pt x="415" y="-185" on="1"/>
        <pt x="389" y="-185" on="0"/>
        <pt x="362" y="-161" on="0"/>
        <pt x="362" y="-133" on="1"/>
        <pt x="362" y="-80" on="0"/>
        <pt x="415" y="-80" on="1"/>
        <pt x="469" y="-80" on="0"/>
        <pt x="469" y="-133" on="1"/>
        <pt x="469" y="-161" on="0"/>
        <pt x="442" y="-185" on="0"/>
      </contour>
    </TTGlyph>
    <TTGlyph name="Hdotbelow.sc" xMin="89" yMin="-149" xMax="646" yMax="577">
      <contour>
        <pt x="89" y="577" on="1"/>
        <pt x="179" y="577" on="1"/>
        <pt x="179" y="332" on="1"/>
        <pt x="556" y="332" on="1"/>
        <pt x="556" y="577" on="1"/>
        <pt x="646" y="577" on="1"/>
        <pt x="646" y="0" on="1"/>
        <pt x="556" y="0" on="1"/>
        <pt x="556" y="261" on="1"/>
        <pt x="179" y="261" on="1"/>
        <pt x="179" y="0" on="1"/>
        <pt x="89" y="0" on="1"/>
      </contour>
      <contour>
        <pt x="374" y="-149" on="1"/>
        <pt x="326" y="-149" on="0"/>
        <pt x="326" y="-104" on="1"/>
        <pt x="326" y="-58" on="0"/>
        <pt x="374" y="-58" on="1"/>
        <pt x="423" y="-58" on="0"/>
        <pt x="423" y="-104" on="1"/>
        <pt x="423" y="-149" on="0"/>
      </contour>
    </TTGlyph>
    <TTGlyph name="I" xMin="94" yMin="0" xMax="187" yMax="740">
      <contour>
        <pt x="94" y="740" on="1"/>
        <pt x="187" y="740" on="1"/>
        <pt x="187" y="0" on="1"/>
        <pt x="94" y="0" on="1"/>
      </contour>
    </TTGlyph>
    <TTGlyph name="I.sc" xMin="89" yMin="0" xMax="179" yMax="577">
      <contour>
        <pt x="89" y="577" on="1"/>
        <pt x="179" y="577" on="1"/>
        <pt x="179" y="0" on="1"/>
        <pt x="89" y="0" on="1"/>
      </contour>
    </TTGlyph>
    <TTGlyph name="IJ" xMin="94" yMin="-190" xMax="471" yMax="740">
      <contour>
        <pt x="94" y="740" on="1"/>
        <pt x="187" y="740" on="1"/>
        <pt x="187" y="0" on="1"/>
        <pt x="94" y="0" on="1"/>
      </contour>
      <contour>
        <pt x="300" y="-160" on="1"/>
        <pt x="322" y="-113" on="0"/>
        <pt x="352" y="-31" on="0"/>
        <pt x="370" y="50" on="0"/>
        <pt x="378" y="136" on="0"/>
        <pt x="378" y="187" on="1"/>
        <pt x="378" y="740" on="1"/>
        <pt x="471" y="740" on="1"/>
        <pt x="471" y="181" on="1"/>
        <pt x="471" y="130" on="0"/>
        <pt x="461" y="45" on="0"/>
        <pt x="436" y="-41" on="0"/>
        <pt x="395" y="-133" on="0"/>
        <pt x="365" y="-190" on="1"/>
      </contour>
    </TTGlyph>
    <TTGlyph name="Iacute" xMin="94" yMin="0" xMax="270" yMax="953">
      <contour>
        <pt x="94" y="740" on="1"/>
        <pt x="187" y="740" on="1"/>
        <pt x="187" y="0" on="1"/>
        <pt x="94" y="0" on="1"/>
      </contour>
      <contour>
        <pt x="100" y="812" on="1"/>
        <pt x="174" y="953" on="1"/>
        <pt x="270" y="953" on="1"/>
        <pt x="171" y="805" on="1"/>
      </contour>
    </TTGlyph>
    <TTGlyph name="Iacute.sc" xMin="89" yMin="0" xMax="250" yMax="751">
      <contour>
        <pt x="89" y="577" on="1"/>
        <pt x="179" y="577" on="1"/>
        <pt x="179" y="0" on="1"/>
        <pt x="89" y="0" on="1"/>
      </contour>
      <contour>
        <pt x="95" y="635" on="1"/>
        <pt x="159" y="751" on="1"/>
        <pt x="250" y="751" on="1"/>
        <pt x="163" y="629" on="1"/>
      </contour>
    </TTGlyph>
    <TTGlyph name="Ibreve" xMin="-52" yMin="0" xMax="332" yMax="965">
      <contour>
        <pt x="94" y="740" on="1"/>
        <pt x="187" y="740" on="1"/>
        <pt x="187" y="0" on="1"/>
        <pt x="94" y="0" on="1"/>
      </contour>
      <contour>
        <pt x="140" y="815" on="1"/>
        <pt x="41" y="815" on="0"/>
        <pt x="-52" y="898" on="0"/>
        <pt x="-52" y="965" on="1"/>
        <pt x="17" y="965" on="1"/>
        <pt x="17" y="920" on="0"/>
        <pt x="78" y="870" on="0"/>
        <pt x="140" y="870" on="1"/>
        <pt x="203" y="870" on="0"/>
        <pt x="264" y="920" on="0"/>
        <pt x="264" y="965" on="1"/>
        <pt x="332" y="965" on="1"/>
        <pt x="332" y="897" on="0"/>
        <pt x="238" y="815" on="0"/>
      </contour>
    </TTGlyph>
    <TTGlyph name="Ibreve.sc" xMin="-38" yMin="0" xMax="305" yMax="759">
      <contour>
        <pt x="89" y="577" on="1"/>
        <pt x="179" y="577" on="1"/>
        <pt x="179" y="0" on="1"/>
        <pt x="89" y="0" on="1"/>
      </contour>
      <contour>
        <pt x="134" y="635" on="1"/>
        <pt x="44" y="635" on="0"/>
        <pt x="-38" y="705" on="0"/>
        <pt x="-38" y="759" on="1"/>
        <pt x="26" y="759" on="1"/>
        <pt x="26" y="724" on="0"/>
        <pt x="79" y="685" on="0"/>
        <pt x="134" y="685" on="1"/>
        <pt x="189" y="685" on="0"/>
        <pt x="242" y="724" on="0"/>
        <pt x="242" y="759" on="1"/>
        <pt x="305" y="759" on="1"/>
        <pt x="305" y="704" on="0"/>
        <pt x="223" y="635" on="0"/>
      </contour>
    </TTGlyph>
    <TTGlyph name="Icircumflex" xMin="-34" yMin="0" xMax="318" yMax="961">
      <contour>
        <pt x="94" y="740" on="1"/>
        <pt x="187" y="740" on="1"/>
        <pt x="187" y="0" on="1"/>
        <pt x="94" y="0" on="1"/>
      </contour>
      <contour>
        <pt x="-34" y="886" on="1"/>
        <pt x="142" y="961" on="1"/>
        <pt x="318" y="886" on="1"/>
        <pt x="318" y="812" on="1"/>
        <pt x="142" y="887" on="1"/>
        <pt x="-34" y="812" on="1"/>
      </contour>
    </TTGlyph>
    <TTGlyph name="Icircumflex.sc" xMin="-22" yMin="0" xMax="292" yMax="758">
      <contour>
        <pt x="89" y="577" on="1"/>
        <pt x="179" y="577" on="1"/>
        <pt x="179" y="0" on="1"/>
        <pt x="89" y="0" on="1"/>
      </contour>
      <contour>
        <pt x="-22" y="698" on="1"/>
        <pt x="135" y="758" on="1"/>
        <pt x="292" y="698" on="1"/>
        <pt x="292" y="632" on="1"/>
        <pt x="136" y="691" on="1"/>
        <pt x="-22" y="632" on="1"/>
      </contour>
    </TTGlyph>
    <TTGlyph name="Idblgrave" xMin="-69" yMin="0" xMax="264" yMax="946">
      <contour>
        <pt x="94" y="740" on="1"/>
        <pt x="187" y="740" on="1"/>
        <pt x="187" y="0" on="1"/>
        <pt x="94" y="0" on="1"/>
      </contour>
      <contour>
        <pt x="30" y="798" on="1"/>
        <pt x="-69" y="946" on="1"/>
        <pt x="27" y="946" on="1"/>
        <pt x="100" y="811" on="1"/>
      </contour>
      <contour>
        <pt x="195" y="798" on="1"/>
        <pt x="95" y="946" on="1"/>
        <pt x="190" y="946" on="1"/>
        <pt x="264" y="811" on="1"/>
      </contour>
    </TTGlyph>
    <TTGlyph name="Idblgrave.sc" xMin="-55" yMin="0" xMax="248" yMax="746">
      <contour>
        <pt x="89" y="577" on="1"/>
        <pt x="179" y="577" on="1"/>
        <pt x="179" y="0" on="1"/>
        <pt x="89" y="0" on="1"/>
      </contour>
      <contour>
        <pt x="33" y="624" on="1"/>
        <pt x="-55" y="746" on="1"/>
        <pt x="37" y="746" on="1"/>
        <pt x="100" y="634" on="1"/>
      </contour>
      <contour>
        <pt x="182" y="624" on="1"/>
        <pt x="94" y="746" on="1"/>
        <pt x="185" y="746" on="1"/>
        <pt x="248" y="634" on="1"/>
      </contour>
    </TTGlyph>
    <TTGlyph name="Idieresis" xMin="-58" yMin="0" xMax="343" yMax="938">
      <contour>
        <pt x="94" y="740" on="1"/>
        <pt x="187" y="740" on="1"/>
        <pt x="187" y="0" on="1"/>
        <pt x="94" y="0" on="1"/>
      </contour>
      <contour>
        <pt x="1" y="822" on="1"/>
        <pt x="-58" y="822" on="0"/>
        <pt x="-58" y="881" on="1"/>
        <pt x="-58" y="911" on="0"/>
        <pt x="-28" y="938" on="0"/>
        <pt x="1" y="938" on="1"/>
        <pt x="30" y="938" on="0"/>
        <pt x="60" y="911" on="0"/>
        <pt x="60" y="881" on="1"/>
        <pt x="60" y="822" on="0"/>
      </contour>
      <contour>
        <pt x="283" y="822" on="1"/>
        <pt x="224" y="822" on="0"/>
        <pt x="224" y="881" on="1"/>
        <pt x="224" y="911" on="0"/>
        <pt x="254" y="938" on="0"/>
        <pt x="283" y="938" on="1"/>
        <pt x="312" y="938" on="0"/>
        <pt x="343" y="911" on="0"/>
        <pt x="343" y="881" on="1"/>
        <pt x="343" y="822" on="0"/>
      </contour>
    </TTGlyph>
    <TTGlyph name="Idieresis.sc" xMin="-45" yMin="0" xMax="316" yMax="744">
      <contour>
        <pt x="89" y="577" on="1"/>
        <pt x="179" y="577" on="1"/>
        <pt x="179" y="0" on="1"/>
        <pt x="89" y="0" on="1"/>
      </contour>
      <contour>
        <pt x="11" y="639" on="1"/>
        <pt x="-45" y="639" on="0"/>
        <pt x="-45" y="692" on="1"/>
        <pt x="-45" y="744" on="0"/>
        <pt x="11" y="744" on="1"/>
        <pt x="67" y="744" on="0"/>
        <pt x="67" y="692" on="1"/>
        <pt x="67" y="639" on="0"/>
      </contour>
      <contour>
        <pt x="261" y="639" on="1"/>
        <pt x="206" y="639" on="0"/>
        <pt x="206" y="692" on="1"/>
        <pt x="206" y="744" on="0"/>
        <pt x="261" y="744" on="1"/>
        <pt x="316" y="744" on="0"/>
        <pt x="316" y="692" on="1"/>
        <pt x="316" y="639" on="0"/>
      </contour>
    </TTGlyph>
    <TTGlyph name="Idotaccent" xMin="82" yMin="0" xMax="202" yMax="934">
      <contour>
        <pt x="94" y="740" on="1"/>
        <pt x="187" y="740" on="1"/>
        <pt x="187" y="0" on="1"/>
        <pt x="94" y="0" on="1"/>
      </contour>
      <contour>
        <pt x="142" y="818" on="1"/>
        <pt x="112" y="818" on="0"/>
        <pt x="82" y="845" on="0"/>
        <pt x="82" y="876" on="1"/>
        <pt x="82" y="907" on="0"/>
        <pt x="112" y="934" on="0"/>
        <pt x="142" y="934" on="1"/>
        <pt x="171" y="934" on="0"/>
        <pt x="202" y="907" on="0"/>
        <pt x="202" y="876" on="1"/>
        <pt x="202" y="818" on="0"/>
      </contour>
    </TTGlyph>
    <TTGlyph name="Idotaccent.sc" xMin="79" yMin="0" xMax="190" yMax="741">
      <contour>
        <pt x="89" y="577" on="1"/>
        <pt x="179" y="577" on="1"/>
        <pt x="179" y="0" on="1"/>
        <pt x="89" y="0" on="1"/>
      </contour>
      <contour>
        <pt x="135" y="636" on="1"/>
        <pt x="106" y="636" on="0"/>
        <pt x="79" y="660" on="0"/>
        <pt x="79" y="689" on="1"/>
        <pt x="79" y="717" on="0"/>
        <pt x="106" y="741" on="0"/>
        <pt x="135" y="741" on="1"/>
        <pt x="190" y="741" on="0"/>
        <pt x="190" y="689" on="1"/>
        <pt x="190" y="636" on="0"/>
      </contour>
    </TTGlyph>
    <TTGlyph name="Idotbelow" xMin="88" yMin="-185" xMax="195" yMax="740">
      <contour>
        <pt x="94" y="740" on="1"/>
        <pt x="187" y="740" on="1"/>
        <pt x="187" y="0" on="1"/>
        <pt x="94" y="0" on="1"/>
      </contour>
      <contour>
        <pt x="141" y="-185" on="1"/>
        <pt x="115" y="-185" on="0"/>
        <pt x="88" y="-161" on="0"/>
        <pt x="88" y="-133" on="1"/>
        <pt x="88" y="-80" on="0"/>
        <pt x="141" y="-80" on="1"/>
        <pt x="195" y="-80" on="0"/>
        <pt x="195" y="-133" on="1"/>
        <pt x="195" y="-161" on="0"/>
        <pt x="168" y="-185" on="0"/>
      </contour>
    </TTGlyph>
    <TTGlyph name="Idotbelow.sc" xMin="87" yMin="-149" xMax="184" yMax="577">
      <contour>
        <pt x="89" y="577" on="1"/>
        <pt x="179" y="577" on="1"/>
        <pt x="179" y="0" on="1"/>
        <pt x="89" y="0" on="1"/>
      </contour>
      <contour>
        <pt x="135" y="-149" on="1"/>
        <pt x="87" y="-149" on="0"/>
        <pt x="87" y="-104" on="1"/>
        <pt x="87" y="-58" on="0"/>
        <pt x="135" y="-58" on="1"/>
        <pt x="184" y="-58" on="0"/>
        <pt x="184" y="-104" on="1"/>
        <pt x="184" y="-149" on="0"/>
      </contour>
    </TTGlyph>
    <TTGlyph name="Igrave" xMin="16" yMin="0" xMax="187" yMax="953">
      <contour>
        <pt x="94" y="740" on="1"/>
        <pt x="187" y="740" on="1"/>
        <pt x="187" y="0" on="1"/>
        <pt x="94" y="0" on="1"/>
      </contour>
      <contour>
        <pt x="115" y="805" on="1"/>
        <pt x="16" y="953" on="1"/>
        <pt x="112" y="953" on="1"/>
        <pt x="187" y="818" on="1"/>
      </contour>
    </TTGlyph>
    <TTGlyph name="Igrave.sc" xMin="22" yMin="0" xMax="179" yMax="751">
      <contour>
        <pt x="89" y="577" on="1"/>
        <pt x="179" y="577" on="1"/>
        <pt x="179" y="0" on="1"/>
        <pt x="89" y="0" on="1"/>
      </contour>
      <contour>
        <pt x="110" y="629" on="1"/>
        <pt x="22" y="751" on="1"/>
        <pt x="114" y="751" on="1"/>
        <pt x="177" y="639" on="1"/>
      </contour>
    </TTGlyph>
    <TTGlyph name="Iinvertedbreve" xMin="-50" yMin="0" xMax="334" yMax="968">
      <contour>
        <pt x="94" y="740" on="1"/>
        <pt x="187" y="740" on="1"/>
        <pt x="187" y="0" on="1"/>
        <pt x="94" y="0" on="1"/>
      </contour>
      <contour>
        <pt x="266" y="818" on="1"/>
        <pt x="266" y="863" on="0"/>
        <pt x="205" y="913" on="0"/>
        <pt x="142" y="913" on="1"/>
        <pt x="80" y="913" on="0"/>
        <pt x="18" y="863" on="0"/>
        <pt x="18" y="818" on="1"/>
        <pt x="-50" y="818" on="1"/>
        <pt x="-50" y="885" on="0"/>
        <pt x="43" y="968" on="0"/>
        <pt x="142" y="968" on="1"/>
        <pt x="240" y="968" on="0"/>
        <pt x="334" y="886" on="0"/>
        <pt x="334" y="818" on="1"/>
      </contour>
    </TTGlyph>
    <TTGlyph name="Iinvertedbreve.sc" xMin="-37" yMin="0" xMax="307" yMax="762">
      <contour>
        <pt x="89" y="577" on="1"/>
        <pt x="179" y="577" on="1"/>
        <pt x="179" y="0" on="1"/>
        <pt x="89" y="0" on="1"/>
      </contour>
      <contour>
        <pt x="243" y="638" on="1"/>
        <pt x="243" y="673" on="0"/>
        <pt x="191" y="711" on="0"/>
        <pt x="136" y="711" on="1"/>
        <pt x="81" y="711" on="0"/>
        <pt x="28" y="673" on="0"/>
        <pt x="28" y="638" on="1"/>
        <pt x="-37" y="638" on="1"/>
        <pt x="-37" y="691" on="0"/>
        <pt x="46" y="762" on="0"/>
        <pt x="136" y="762" on="1"/>
        <pt x="225" y="762" on="0"/>
        <pt x="307" y="693" on="0"/>
        <pt x="307" y="638" on="1"/>
      </contour>
    </TTGlyph>
    <TTGlyph name="Imacron" xMin="-30" yMin="0" xMax="317" yMax="911">
      <contour>
        <pt x="94" y="740" on="1"/>
        <pt x="187" y="740" on="1"/>
        <pt x="187" y="0" on="1"/>
        <pt x="94" y="0" on="1"/>
      </contour>
      <contour>
        <pt x="-30" y="911" on="1"/>
        <pt x="317" y="911" on="1"/>
        <pt x="317" y="842" on="1"/>
        <pt x="-30" y="842" on="1"/>
      </contour>
    </TTGlyph>
    <TTGlyph name="Imacron.sc" xMin="-19" yMin="0" xMax="293" yMax="720">
      <contour>
        <pt x="89" y="577" on="1"/>
        <pt x="179" y="577" on="1"/>
        <pt x="179" y="0" on="1"/>
        <pt x="89" y="0" on="1"/>
      </contour>
      <contour>
        <pt x="-19" y="720" on="1"/>
        <pt x="293" y="720" on="1"/>
        <pt x="293" y="657" on="1"/>
        <pt x="-19" y="657" on="1"/>
      </contour>
    </TTGlyph>
    <TTGlyph name="Iogonek" xMin="-3" yMin="-220" xMax="187" yMax="740">
      <contour>
        <pt x="94" y="740" on="1"/>
        <pt x="187" y="740" on="1"/>
        <pt x="187" y="-18" on="1"/>
        <pt x="121" y="-50" on="0"/>
        <pt x="63" y="-105" on="0"/>
        <pt x="63" y="-132" on="1"/>
        <pt x="63" y="-164" on="0"/>
        <pt x="108" y="-164" on="1"/>
        <pt x="123" y="-164" on="0"/>
        <pt x="166" y="-158" on="0"/>
        <pt x="186" y="-153" on="1"/>
        <pt x="186" y="-208" on="1"/>
        <pt x="171" y="-214" on="0"/>
        <pt x="130" y="-220" on="0"/>
        <pt x="108" y="-220" on="1"/>
        <pt x="-3" y="-220" on="0"/>
        <pt x="-3" y="-137" on="1"/>
        <pt x="-3" y="-99" on="0"/>
        <pt x="48" y="-37" on="0"/>
        <pt x="110" y="0" on="1"/>
        <pt x="94" y="0" on="1"/>
      </contour>
    </TTGlyph>
    <TTGlyph name="Iogonek.sc" xMin="8" yMin="-172" xMax="179" yMax="577">
      <contour>
        <pt x="89" y="577" on="1"/>
        <pt x="179" y="577" on="1"/>
        <pt x="179" y="-13" on="1"/>
        <pt x="121" y="-36" on="0"/>
        <pt x="70" y="-72" on="0"/>
        <pt x="70" y="-95" on="1"/>
        <pt x="70" y="-110" on="0"/>
        <pt x="90" y="-121" on="0"/>
        <pt x="110" y="-121" on="1"/>
        <pt x="124" y="-121" on="0"/>
        <pt x="163" y="-116" on="0"/>
        <pt x="178" y="-112" on="1"/>
        <pt x="178" y="-162" on="1"/>
        <pt x="163" y="-167" on="0"/>
        <pt x="125" y="-172" on="0"/>
        <pt x="106" y="-172" on="1"/>
        <pt x="8" y="-172" on="0"/>
        <pt x="8" y="-106" on="1"/>
        <pt x="8" y="-91" on="0"/>
        <pt x="18" y="-65" on="0"/>
        <pt x="40" y="-40" on="0"/>
        <pt x="76" y="-14" on="0"/>
        <pt x="102" y="0" on="1"/>
        <pt x="89" y="0" on="1"/>
      </contour>
    </TTGlyph>
    <TTGlyph name="Itilde" xMin="-68" yMin="0" xMax="372" yMax="943">
      <contour>
        <pt x="94" y="740" on="1"/>
        <pt x="187" y="740" on="1"/>
        <pt x="187" y="0" on="1"/>
        <pt x="94" y="0" on="1"/>
      </contour>
      <contour>
        <pt x="-68" y="866" on="1"/>
        <pt x="-37" y="905" on="0"/>
        <pt x="33" y="943" on="0"/>
        <pt x="67" y="943" on="1"/>
        <pt x="92" y="943" on="0"/>
        <pt x="138" y="930" on="0"/>
        <pt x="181" y="915" on="0"/>
        <pt x="225" y="902" on="0"/>
        <pt x="249" y="902" on="1"/>
        <pt x="275" y="902" on="0"/>
        <pt x="323" y="920" on="0"/>
        <pt x="349" y="940" on="1"/>
        <pt x="372" y="911" on="1"/>
        <pt x="343" y="873" on="0"/>
        <pt x="268" y="834" on="0"/>
        <pt x="231" y="834" on="1"/>
        <pt x="208" y="834" on="0"/>
        <pt x="163" y="846" on="0"/>
        <pt x="118" y="861" on="0"/>
        <pt x="74" y="874" on="0"/>
        <pt x="52" y="874" on="1"/>
        <pt x="28" y="874" on="0"/>
        <pt x="-18" y="858" on="0"/>
        <pt x="-44" y="838" on="1"/>
      </contour>
    </TTGlyph>
    <TTGlyph name="Itilde.sc" xMin="-53" yMin="0" xMax="338" yMax="745">
      <contour>
        <pt x="89" y="577" on="1"/>
        <pt x="179" y="577" on="1"/>
        <pt x="179" y="0" on="1"/>
        <pt x="89" y="0" on="1"/>
      </contour>
      <contour>
        <pt x="-53" y="676" on="1"/>
        <pt x="-25" y="711" on="0"/>
        <pt x="37" y="745" on="0"/>
        <pt x="68" y="745" on="1"/>
        <pt x="90" y="745" on="0"/>
        <pt x="131" y="735" on="0"/>
        <pt x="170" y="724" on="0"/>
        <pt x="210" y="714" on="0"/>
        <pt x="231" y="714" on="1"/>
        <pt x="254" y="714" on="0"/>
        <pt x="295" y="727" on="0"/>
        <pt x="318" y="742" on="1"/>
        <pt x="338" y="719" on="1"/>
        <pt x="312" y="685" on="0"/>
        <pt x="245" y="650" on="0"/>
        <pt x="213" y="650" on="1"/>
        <pt x="192" y="650" on="0"/>
        <pt x="152" y="660" on="0"/>
        <pt x="112" y="671" on="0"/>
        <pt x="72" y="681" on="0"/>
        <pt x="52" y="681" on="1"/>
        <pt x="31" y="681" on="0"/>
        <pt x="-10" y="669" on="0"/>
        <pt x="-33" y="652" on="1"/>
      </contour>
    </TTGlyph>
    <TTGlyph name="J" xMin="18" yMin="-190" xMax="189" yMax="740">
      <contour>
        <pt x="18" y="-160" on="1"/>
        <pt x="40" y="-113" on="0"/>
        <pt x="70" y="-31" on="0"/>
        <pt x="88" y="50" on="0"/>
        <pt x="96" y="136" on="0"/>
        <pt x="96" y="187" on="1"/>
        <pt x="96" y="740" on="1"/>
        <pt x="189" y="740" on="1"/>
        <pt x="189" y="181" on="1"/>
        <pt x="189" y="130" on="0"/>
        <pt x="179" y="45" on="0"/>
        <pt x="154" y="-41" on="0"/>
        <pt x="113" y="-133" on="0"/>
        <pt x="83" y="-190" on="1"/>
      </contour>
    </TTGlyph>
    <TTGlyph name="J.sc" xMin="24" yMin="-152" xMax="181" yMax="577">
      <contour>
        <pt x="24" y="-124" on="1"/>
        <pt x="43" y="-87" on="0"/>
        <pt x="69" y="-23" on="0"/>
        <pt x="84" y="40" on="0"/>
        <pt x="91" y="107" on="0"/>
        <pt x="91" y="147" on="1"/>
        <pt x="91" y="577" on="1"/>
        <pt x="181" y="577" on="1"/>
        <pt x="181" y="142" on="1"/>
        <pt x="181" y="102" on="0"/>
        <pt x="172" y="34" on="0"/>
        <pt x="150" y="-34" on="0"/>
        <pt x="113" y="-107" on="0"/>
        <pt x="86" y="-152" on="1"/>
      </contour>
    </TTGlyph>
    <TTGlyph name="Jcircumflex" xMin="-31" yMin="-190" xMax="321" yMax="961">
      <contour>
        <pt x="18" y="-160" on="1"/>
        <pt x="40" y="-113" on="0"/>
        <pt x="70" y="-31" on="0"/>
        <pt x="88" y="50" on="0"/>
        <pt x="96" y="136" on="0"/>
        <pt x="96" y="187" on="1"/>
        <pt x="96" y="740" on="1"/>
        <pt x="189" y="740" on="1"/>
        <pt x="189" y="181" on="1"/>
        <pt x="189" y="130" on="0"/>
        <pt x="179" y="45" on="0"/>
        <pt x="154" y="-41" on="0"/>
        <pt x="113" y="-133" on="0"/>
        <pt x="83" y="-190" on="1"/>
      </contour>
      <contour>
        <pt x="-31" y="886" on="1"/>
        <pt x="145" y="961" on="1"/>
        <pt x="321" y="886" on="1"/>
        <pt x="321" y="812" on="1"/>
        <pt x="145" y="887" on="1"/>
        <pt x="-31" y="812" on="1"/>
      </contour>
    </TTGlyph>
    <TTGlyph name="Jcircumflex.sc" xMin="-20" yMin="-152" xMax="295" yMax="758">
      <contour>
        <pt x="23" y="-124" on="1"/>
        <pt x="42" y="-87" on="0"/>
        <pt x="68" y="-23" on="0"/>
        <pt x="83" y="40" on="0"/>
        <pt x="90" y="107" on="0"/>
        <pt x="90" y="147" on="1"/>
        <pt x="90" y="577" on="1"/>
        <pt x="180" y="577" on="1"/>
        <pt x="180" y="142" on="1"/>
        <pt x="180" y="102" on="0"/>
        <pt x="171" y="34" on="0"/>
        <pt x="149" y="-34" on="0"/>
        <pt x="112" y="-107" on="0"/>
        <pt x="85" y="-152" on="1"/>
      </contour>
      <contour>
        <pt x="-20" y="698" on="1"/>
        <pt x="137" y="758" on="1"/>
        <pt x="295" y="698" on="1"/>
        <pt x="295" y="632" on="1"/>
        <pt x="138" y="691" on="1"/>
        <pt x="-20" y="632" on="1"/>
      </contour>
    </TTGlyph>
    <TTGlyph name="K" xMin="94" yMin="0" xMax="697" yMax="740">
      <contour>
        <pt x="94" y="740" on="1"/>
        <pt x="187" y="740" on="1"/>
        <pt x="187" y="415" on="1"/>
        <pt x="348" y="415" on="1"/>
        <pt x="574" y="740" on="1"/>
        <pt x="680" y="740" on="1"/>
        <pt x="446" y="411" on="1"/>
        <pt x="412" y="386" on="1"/>
        <pt x="412" y="379" on="1"/>
        <pt x="449" y="354" on="1"/>
        <pt x="697" y="0" on="1"/>
        <pt x="591" y="0" on="1"/>
        <pt x="358" y="338" on="1"/>
        <pt x="187" y="338" on="1"/>
        <pt x="187" y="0" on="1"/>
        <pt x="94" y="0" on="1"/>
      </contour>
    </TTGlyph>
    <TTGlyph name="K.sc" xMin="89" yMin="0" xMax="625" yMax="577">
      <contour>
        <pt x="89" y="577" on="1"/>
        <pt x="179" y="577" on="1"/>
        <pt x="179" y="328" on="1"/>
        <pt x="316" y="328" on="1"/>
        <pt x="508" y="577" on="1"/>
        <pt x="610" y="577" on="1"/>
        <pt x="410" y="322" on="1"/>
        <pt x="379" y="303" on="1"/>
        <pt x="379" y="297" on="1"/>
        <pt x="412" y="277" on="1"/>
        <pt x="625" y="0" on="1"/>
        <pt x="522" y="0" on="1"/>
        <pt x="325" y="257" on="1"/>
        <pt x="179" y="257" on="1"/>
        <pt x="179" y="0" on="1"/>
        <pt x="89" y="0" on="1"/>
      </contour>
    </TTGlyph>
    <TTGlyph name="Kcommaaccent" xMin="94" yMin="-220" xMax="697" yMax="740">
      <contour>
        <pt x="314" y="-70" on="1"/>
        <pt x="410" y="-70" on="1"/>
        <pt x="342" y="-220" on="1"/>
        <pt x="266" y="-220" on="1"/>
      </contour>
      <contour>
        <pt x="94" y="740" on="1"/>
        <pt x="187" y="740" on="1"/>
        <pt x="187" y="415" on="1"/>
        <pt x="348" y="415" on="1"/>
        <pt x="574" y="740" on="1"/>
        <pt x="680" y="740" on="1"/>
        <pt x="446" y="411" on="1"/>
        <pt x="412" y="386" on="1"/>
        <pt x="412" y="379" on="1"/>
        <pt x="449" y="354" on="1"/>
        <pt x="697" y="0" on="1"/>
        <pt x="591" y="0" on="1"/>
        <pt x="358" y="338" on="1"/>
        <pt x="187" y="338" on="1"/>
        <pt x="187" y="0" on="1"/>
        <pt x="94" y="0" on="1"/>
      </contour>
    </TTGlyph>
    <TTGlyph name="Kcommaaccent.sc" xMin="89" yMin="-172" xMax="625" yMax="577">
      <contour>
        <pt x="89" y="577" on="1"/>
        <pt x="179" y="577" on="1"/>
        <pt x="179" y="328" on="1"/>
        <pt x="316" y="328" on="1"/>
        <pt x="508" y="577" on="1"/>
        <pt x="610" y="577" on="1"/>
        <pt x="410" y="322" on="1"/>
        <pt x="379" y="303" on="1"/>
        <pt x="379" y="297" on="1"/>
        <pt x="412" y="277" on="1"/>
        <pt x="625" y="0" on="1"/>
        <pt x="522" y="0" on="1"/>
        <pt x="325" y="257" on="1"/>
        <pt x="179" y="257" on="1"/>
        <pt x="179" y="0" on="1"/>
        <pt x="89" y="0" on="1"/>
      </contour>
      <contour>
        <pt x="293" y="-55" on="1"/>
        <pt x="386" y="-55" on="1"/>
        <pt x="325" y="-172" on="1"/>
        <pt x="253" y="-172" on="1"/>
      </contour>
    </TTGlyph>
    <TTGlyph name="L" xMin="94" yMin="0" xMax="555" yMax="740">
      <contour>
        <pt x="94" y="740" on="1"/>
        <pt x="187" y="740" on="1"/>
        <pt x="187" y="75" on="1"/>
        <pt x="555" y="75" on="1"/>
        <pt x="555" y="0" on="1"/>
        <pt x="94" y="0" on="1"/>
      </contour>
    </TTGlyph>
    <TTGlyph name="L.sc" xMin="89" yMin="0" xMax="499" yMax="577">
      <contour>
        <pt x="89" y="577" on="1"/>
        <pt x="179" y="577" on="1"/>
        <pt x="179" y="71" on="1"/>
        <pt x="499" y="71" on="1"/>
        <pt x="499" y="0" on="1"/>
        <pt x="89" y="0" on="1"/>
      </contour>
    </TTGlyph>
    <TTGlyph name="Lacute" xMin="94" yMin="0" xMax="555" yMax="953">
      <contour>
        <pt x="103" y="812" on="1"/>
        <pt x="177" y="953" on="1"/>
        <pt x="273" y="953" on="1"/>
        <pt x="174" y="805" on="1"/>
      </contour>
      <contour>
        <pt x="94" y="740" on="1"/>
        <pt x="187" y="740" on="1"/>
        <pt x="187" y="75" on="1"/>
        <pt x="555" y="75" on="1"/>
        <pt x="555" y="0" on="1"/>
        <pt x="94" y="0" on="1"/>
      </contour>
    </TTGlyph>
    <TTGlyph name="Lacute.sc" xMin="89" yMin="0" xMax="500" yMax="751">
      <contour>
        <pt x="89" y="577" on="1"/>
        <pt x="179" y="577" on="1"/>
        <pt x="179" y="71" on="1"/>
        <pt x="500" y="71" on="1"/>
        <pt x="500" y="0" on="1"/>
        <pt x="89" y="0" on="1"/>
      </contour>
      <contour>
        <pt x="99" y="635" on="1"/>
        <pt x="162" y="751" on="1"/>
        <pt x="254" y="751" on="1"/>
        <pt x="166" y="629" on="1"/>
      </contour>
    </TTGlyph>
    <TTGlyph name="Lcaron" xMin="94" yMin="0" xMax="555" yMax="760">
      <contour>
        <pt x="417" y="760" on="1"/>
        <pt x="494" y="760" on="1"/>
        <pt x="464" y="532" on="1"/>
        <pt x="417" y="532" on="1"/>
      </contour>
      <contour>
        <pt x="94" y="740" on="1"/>
        <pt x="187" y="740" on="1"/>
        <pt x="187" y="75" on="1"/>
        <pt x="555" y="75" on="1"/>
        <pt x="555" y="0" on="1"/>
        <pt x="94" y="0" on="1"/>
      </contour>
    </TTGlyph>
    <TTGlyph name="Lcaron.sc" xMin="89" yMin="0" xMax="499" yMax="599">
      <contour>
        <pt x="89" y="577" on="1"/>
        <pt x="179" y="577" on="1"/>
        <pt x="179" y="71" on="1"/>
        <pt x="499" y="71" on="1"/>
        <pt x="499" y="0" on="1"/>
        <pt x="89" y="0" on="1"/>
      </contour>
      <contour>
        <pt x="374" y="599" on="1"/>
        <pt x="446" y="599" on="1"/>
        <pt x="419" y="421" on="1"/>
        <pt x="374" y="421" on="1"/>
      </contour>
    </TTGlyph>
    <TTGlyph name="Lcommaaccent" xMin="94" yMin="-220" xMax="555" yMax="740">
      <contour>
        <pt x="275" y="-70" on="1"/>
        <pt x="371" y="-70" on="1"/>
        <pt x="303" y="-220" on="1"/>
        <pt x="227" y="-220" on="1"/>
      </contour>
      <contour>
        <pt x="94" y="740" on="1"/>
        <pt x="187" y="740" on="1"/>
        <pt x="187" y="75" on="1"/>
        <pt x="555" y="75" on="1"/>
        <pt x="555" y="0" on="1"/>
        <pt x="94" y="0" on="1"/>
      </contour>
    </TTGlyph>
    <TTGlyph name="Lcommaaccent.sc" xMin="89" yMin="-172" xMax="499" yMax="577">
      <contour>
        <pt x="89" y="577" on="1"/>
        <pt x="179" y="577" on="1"/>
        <pt x="179" y="71" on="1"/>
        <pt x="499" y="71" on="1"/>
        <pt x="499" y="0" on="1"/>
        <pt x="89" y="0" on="1"/>
      </contour>
      <contour>
        <pt x="245" y="-55" on="1"/>
        <pt x="338" y="-55" on="1"/>
        <pt x="276" y="-172" on="1"/>
        <pt x="204" y="-172" on="1"/>
      </contour>
    </TTGlyph>
    <TTGlyph name="Ldot" xMin="94" yMin="0" xMax="555" yMax="740">
      <contour>
        <pt x="94" y="740" on="1"/>
        <pt x="187" y="740" on="1"/>
        <pt x="187" y="75" on="1"/>
        <pt x="555" y="75" on="1"/>
        <pt x="555" y="0" on="1"/>
        <pt x="94" y="0" on="1"/>
      </contour>
      <contour>
        <pt x="472" y="322" on="1"/>
        <pt x="442" y="322" on="0"/>
        <pt x="412" y="349" on="0"/>
        <pt x="412" y="380" on="1"/>
        <pt x="412" y="439" on="0"/>
        <pt x="472" y="439" on="1"/>
        <pt x="531" y="439" on="0"/>
        <pt x="531" y="380" on="1"/>
        <pt x="531" y="322" on="0"/>
      </contour>
    </TTGlyph>
    <TTGlyph name="Ldot.sc" xMin="89" yMin="0" xMax="499" yMax="577">
      <contour>
        <pt x="89" y="577" on="1"/>
        <pt x="179" y="577" on="1"/>
        <pt x="179" y="71" on="1"/>
        <pt x="499" y="71" on="1"/>
        <pt x="499" y="0" on="1"/>
        <pt x="89" y="0" on="1"/>
      </contour>
      <contour>
        <pt x="428" y="247" on="1"/>
        <pt x="372" y="247" on="0"/>
        <pt x="372" y="300" on="1"/>
        <pt x="372" y="353" on="0"/>
        <pt x="428" y="353" on="1"/>
        <pt x="483" y="353" on="0"/>
        <pt x="483" y="300" on="1"/>
        <pt x="483" y="247" on="0"/>
      </contour>
    </TTGlyph>
    <TTGlyph name="Lslash" xMin="16" yMin="0" xMax="576" yMax="740">
      <contour>
        <pt x="16" y="301" on="1"/>
        <pt x="115" y="357" on="1"/>
        <pt x="115" y="740" on="1"/>
        <pt x="208" y="740" on="1"/>
        <pt x="208" y="410" on="1"/>
        <pt x="387" y="513" on="1"/>
        <pt x="387" y="437" on="1"/>
        <pt x="208" y="334" on="1"/>
        <pt x="208" y="75" on="1"/>
        <pt x="576" y="75" on="1"/>
        <pt x="576" y="0" on="1"/>
        <pt x="115" y="0" on="1"/>
        <pt x="115" y="281" on="1"/>
        <pt x="16" y="225" on="1"/>
      </contour>
    </TTGlyph>
    <TTGlyph name="Lslash.sc" xMin="22" yMin="0" xMax="518" yMax="577">
      <contour>
        <pt x="22" y="246" on="1"/>
        <pt x="107" y="290" on="1"/>
        <pt x="107" y="577" on="1"/>
        <pt x="196" y="577" on="1"/>
        <pt x="196" y="325" on="1"/>
        <pt x="353" y="408" on="1"/>
        <pt x="353" y="338" on="1"/>
        <pt x="196" y="257" on="1"/>
        <pt x="196" y="71" on="1"/>
        <pt x="518" y="71" on="1"/>
        <pt x="518" y="0" on="1"/>
        <pt x="107" y="0" on="1"/>
        <pt x="107" y="220" on="1"/>
        <pt x="22" y="176" on="1"/>
      </contour>
    </TTGlyph>
    <TTGlyph name="M" xMin="94" yMin="0" xMax="881" yMax="740">
      <contour>
        <pt x="94" y="740" on="1"/>
        <pt x="222" y="740" on="1"/>
        <pt x="412" y="307" on="1"/>
        <pt x="484" y="129" on="1"/>
        <pt x="491" y="129" on="1"/>
        <pt x="563" y="307" on="1"/>
        <pt x="752" y="740" on="1"/>
        <pt x="881" y="740" on="1"/>
        <pt x="881" y="0" on="1"/>
        <pt x="796" y="0" on="1"/>
        <pt x="796" y="630" on="1"/>
        <pt x="789" y="630" on="1"/>
        <pt x="691" y="388" on="1"/>
        <pt x="529" y="29" on="1"/>
        <pt x="446" y="29" on="1"/>
        <pt x="285" y="388" on="1"/>
        <pt x="185" y="630" on="1"/>
        <pt x="179" y="630" on="1"/>
        <pt x="179" y="0" on="1"/>
        <pt x="94" y="0" on="1"/>
      </contour>
    </TTGlyph>
    <TTGlyph name="M.sc" xMin="89" yMin="0" xMax="786" yMax="577">
      <contour>
        <pt x="89" y="577" on="1"/>
        <pt x="207" y="577" on="1"/>
        <pt x="371" y="258" on="1"/>
        <pt x="434" y="120" on="1"/>
        <pt x="441" y="120" on="1"/>
        <pt x="505" y="258" on="1"/>
        <pt x="668" y="577" on="1"/>
        <pt x="786" y="577" on="1"/>
        <pt x="786" y="0" on="1"/>
        <pt x="705" y="0" on="1"/>
        <pt x="705" y="478" on="1"/>
        <pt x="699" y="478" on="1"/>
        <pt x="609" y="284" on="1"/>
        <pt x="476" y="22" on="1"/>
        <pt x="399" y="22" on="1"/>
        <pt x="266" y="284" on="1"/>
        <pt x="176" y="478" on="1"/>
        <pt x="170" y="478" on="1"/>
        <pt x="170" y="0" on="1"/>
        <pt x="89" y="0" on="1"/>
      </contour>
    </TTGlyph>
    <TTGlyph name="N" xMin="94" yMin="0" xMax="729" yMax="740">
      <contour>
        <pt x="94" y="740" on="1"/>
        <pt x="173" y="740" on="1"/>
        <pt x="575" y="226" on="1"/>
        <pt x="638" y="136" on="1"/>
        <pt x="645" y="136" on="1"/>
        <pt x="645" y="740" on="1"/>
        <pt x="729" y="740" on="1"/>
        <pt x="729" y="0" on="1"/>
        <pt x="650" y="0" on="1"/>
        <pt x="246" y="515" on="1"/>
        <pt x="184" y="602" on="1"/>
        <pt x="178" y="602" on="1"/>
        <pt x="178" y="0" on="1"/>
        <pt x="94" y="0" on="1"/>
      </contour>
    </TTGlyph>
    <TTGlyph name="N.sc" xMin="89" yMin="0" xMax="643" yMax="577">
      <contour>
        <pt x="89" y="577" on="1"/>
        <pt x="161" y="577" on="1"/>
        <pt x="497" y="195" on="1"/>
        <pt x="555" y="125" on="1"/>
        <pt x="560" y="125" on="1"/>
        <pt x="560" y="577" on="1"/>
        <pt x="643" y="577" on="1"/>
        <pt x="643" y="0" on="1"/>
        <pt x="570" y="0" on="1"/>
        <pt x="233" y="381" on="1"/>
        <pt x="176" y="451" on="1"/>
        <pt x="170" y="451" on="1"/>
        <pt x="170" y="0" on="1"/>
        <pt x="89" y="0" on="1"/>
      </contour>
    </TTGlyph>
    <TTGlyph name="Nacute" xMin="94" yMin="0" xMax="729" yMax="953">
      <contour>
        <pt x="360" y="812" on="1"/>
        <pt x="434" y="953" on="1"/>
        <pt x="530" y="953" on="1"/>
        <pt x="431" y="805" on="1"/>
      </contour>
      <contour>
        <pt x="94" y="740" on="1"/>
        <pt x="173" y="740" on="1"/>
        <pt x="575" y="226" on="1"/>
        <pt x="638" y="136" on="1"/>
        <pt x="645" y="136" on="1"/>
        <pt x="645" y="740" on="1"/>
        <pt x="729" y="740" on="1"/>
        <pt x="729" y="0" on="1"/>
        <pt x="650" y="0" on="1"/>
        <pt x="246" y="515" on="1"/>
        <pt x="184" y="602" on="1"/>
        <pt x="178" y="602" on="1"/>
        <pt x="178" y="0" on="1"/>
        <pt x="94" y="0" on="1"/>
      </contour>
    </TTGlyph>
    <TTGlyph name="Nacute.sc" xMin="89" yMin="0" xMax="643" yMax="751">
      <contour>
        <pt x="89" y="577" on="1"/>
        <pt x="161" y="577" on="1"/>
        <pt x="497" y="195" on="1"/>
        <pt x="555" y="125" on="1"/>
        <pt x="560" y="125" on="1"/>
        <pt x="560" y="577" on="1"/>
        <pt x="643" y="577" on="1"/>
        <pt x="643" y="0" on="1"/>
        <pt x="570" y="0" on="1"/>
        <pt x="233" y="381" on="1"/>
        <pt x="176" y="451" on="1"/>
        <pt x="170" y="451" on="1"/>
        <pt x="170" y="0" on="1"/>
        <pt x="89" y="0" on="1"/>
      </contour>
      <contour>
        <pt x="317" y="635" on="1"/>
        <pt x="380" y="751" on="1"/>
        <pt x="472" y="751" on="1"/>
        <pt x="385" y="629" on="1"/>
      </contour>
    </TTGlyph>
    <TTGlyph name="Ncaron" xMin="94" yMin="0" xMax="729" yMax="961">
      <contour>
        <pt x="236" y="961" on="1"/>
        <pt x="412" y="886" on="1"/>
        <pt x="588" y="961" on="1"/>
        <pt x="588" y="887" on="1"/>
        <pt x="411" y="812" on="1"/>
        <pt x="236" y="887" on="1"/>
      </contour>
      <contour>
        <pt x="94" y="740" on="1"/>
        <pt x="173" y="740" on="1"/>
        <pt x="575" y="226" on="1"/>
        <pt x="638" y="136" on="1"/>
        <pt x="645" y="136" on="1"/>
        <pt x="645" y="740" on="1"/>
        <pt x="729" y="740" on="1"/>
        <pt x="729" y="0" on="1"/>
        <pt x="650" y="0" on="1"/>
        <pt x="246" y="515" on="1"/>
        <pt x="184" y="602" on="1"/>
        <pt x="178" y="602" on="1"/>
        <pt x="178" y="0" on="1"/>
        <pt x="94" y="0" on="1"/>
      </contour>
    </TTGlyph>
    <TTGlyph name="Ncaron.sc" xMin="89" yMin="0" xMax="643" yMax="758">
      <contour>
        <pt x="89" y="577" on="1"/>
        <pt x="161" y="577" on="1"/>
        <pt x="497" y="195" on="1"/>
        <pt x="555" y="125" on="1"/>
        <pt x="560" y="125" on="1"/>
        <pt x="560" y="577" on="1"/>
        <pt x="643" y="577" on="1"/>
        <pt x="643" y="0" on="1"/>
        <pt x="570" y="0" on="1"/>
        <pt x="233" y="381" on="1"/>
        <pt x="176" y="451" on="1"/>
        <pt x="170" y="451" on="1"/>
        <pt x="170" y="0" on="1"/>
        <pt x="89" y="0" on="1"/>
      </contour>
      <contour>
        <pt x="208" y="692" on="1"/>
        <pt x="208" y="758" on="1"/>
        <pt x="366" y="699" on="1"/>
        <pt x="523" y="758" on="1"/>
        <pt x="523" y="692" on="1"/>
        <pt x="365" y="633" on="1"/>
      </contour>
    </TTGlyph>
    <TTGlyph name="Ncommaaccent" xMin="94" yMin="-220" xMax="729" yMax="740">
      <contour>
        <pt x="376" y="-70" on="1"/>
        <pt x="472" y="-70" on="1"/>
        <pt x="404" y="-220" on="1"/>
        <pt x="328" y="-220" on="1"/>
      </contour>
      <contour>
        <pt x="94" y="740" on="1"/>
        <pt x="173" y="740" on="1"/>
        <pt x="575" y="226" on="1"/>
        <pt x="638" y="136" on="1"/>
        <pt x="645" y="136" on="1"/>
        <pt x="645" y="740" on="1"/>
        <pt x="729" y="740" on="1"/>
        <pt x="729" y="0" on="1"/>
        <pt x="650" y="0" on="1"/>
        <pt x="246" y="515" on="1"/>
        <pt x="184" y="602" on="1"/>
        <pt x="178" y="602" on="1"/>
        <pt x="178" y="0" on="1"/>
        <pt x="94" y="0" on="1"/>
      </contour>
    </TTGlyph>
    <TTGlyph name="Ncommaaccent.sc" xMin="89" yMin="-172" xMax="643" yMax="577">
      <contour>
        <pt x="89" y="577" on="1"/>
        <pt x="161" y="577" on="1"/>
        <pt x="497" y="195" on="1"/>
        <pt x="555" y="125" on="1"/>
        <pt x="560" y="125" on="1"/>
        <pt x="560" y="577" on="1"/>
        <pt x="643" y="577" on="1"/>
        <pt x="643" y="0" on="1"/>
        <pt x="570" y="0" on="1"/>
        <pt x="233" y="381" on="1"/>
        <pt x="176" y="451" on="1"/>
        <pt x="170" y="451" on="1"/>
        <pt x="170" y="0" on="1"/>
        <pt x="89" y="0" on="1"/>
      </contour>
      <contour>
        <pt x="329" y="-55" on="1"/>
        <pt x="422" y="-55" on="1"/>
        <pt x="360" y="-172" on="1"/>
        <pt x="289" y="-172" on="1"/>
      </contour>
    </TTGlyph>
    <TTGlyph name="Ndotaccent" xMin="94" yMin="0" xMax="729" yMax="934">
      <contour>
        <pt x="412" y="818" on="1"/>
        <pt x="382" y="818" on="0"/>
        <pt x="352" y="845" on="0"/>
        <pt x="352" y="876" on="1"/>
        <pt x="352" y="907" on="0"/>
        <pt x="382" y="934" on="0"/>
        <pt x="412" y="934" on="1"/>
        <pt x="441" y="934" on="0"/>
        <pt x="472" y="907" on="0"/>
        <pt x="472" y="876" on="1"/>
        <pt x="472" y="818" on="0"/>
      </contour>
      <contour>
        <pt x="94" y="740" on="1"/>
        <pt x="173" y="740" on="1"/>
        <pt x="575" y="226" on="1"/>
        <pt x="638" y="136" on="1"/>
        <pt x="645" y="136" on="1"/>
        <pt x="645" y="740" on="1"/>
        <pt x="729" y="740" on="1"/>
        <pt x="729" y="0" on="1"/>
        <pt x="650" y="0" on="1"/>
        <pt x="246" y="515" on="1"/>
        <pt x="184" y="602" on="1"/>
        <pt x="178" y="602" on="1"/>
        <pt x="178" y="0" on="1"/>
        <pt x="94" y="0" on="1"/>
      </contour>
    </TTGlyph>
    <TTGlyph name="Ndotaccent.sc" xMin="89" yMin="0" xMax="643" yMax="741">
      <contour>
        <pt x="89" y="577" on="1"/>
        <pt x="161" y="577" on="1"/>
        <pt x="497" y="195" on="1"/>
        <pt x="555" y="125" on="1"/>
        <pt x="560" y="125" on="1"/>
        <pt x="560" y="577" on="1"/>
        <pt x="643" y="577" on="1"/>
        <pt x="643" y="0" on="1"/>
        <pt x="570" y="0" on="1"/>
        <pt x="233" y="381" on="1"/>
        <pt x="176" y="451" on="1"/>
        <pt x="170" y="451" on="1"/>
        <pt x="170" y="0" on="1"/>
        <pt x="89" y="0" on="1"/>
      </contour>
      <contour>
        <pt x="367" y="636" on="1"/>
        <pt x="338" y="636" on="0"/>
        <pt x="311" y="660" on="0"/>
        <pt x="311" y="689" on="1"/>
        <pt x="311" y="717" on="0"/>
        <pt x="338" y="741" on="0"/>
        <pt x="367" y="741" on="1"/>
        <pt x="422" y="741" on="0"/>
        <pt x="422" y="689" on="1"/>
        <pt x="422" y="636" on="0"/>
      </contour>
    </TTGlyph>
    <TTGlyph name="Ntilde" xMin="94" yMin="0" xMax="729" yMax="943">
      <contour>
        <pt x="202" y="866" on="1"/>
        <pt x="233" y="905" on="0"/>
        <pt x="303" y="943" on="0"/>
        <pt x="337" y="943" on="1"/>
        <pt x="362" y="943" on="0"/>
        <pt x="408" y="930" on="0"/>
        <pt x="451" y="915" on="0"/>
        <pt x="495" y="902" on="0"/>
        <pt x="519" y="902" on="1"/>
        <pt x="545" y="902" on="0"/>
        <pt x="593" y="920" on="0"/>
        <pt x="619" y="940" on="1"/>
        <pt x="642" y="911" on="1"/>
        <pt x="613" y="873" on="0"/>
        <pt x="538" y="834" on="0"/>
        <pt x="501" y="834" on="1"/>
        <pt x="478" y="834" on="0"/>
        <pt x="433" y="846" on="0"/>
        <pt x="388" y="861" on="0"/>
        <pt x="344" y="874" on="0"/>
        <pt x="322" y="874" on="1"/>
        <pt x="298" y="874" on="0"/>
        <pt x="252" y="858" on="0"/>
        <pt x="226" y="838" on="1"/>
      </contour>
      <contour>
        <pt x="94" y="740" on="1"/>
        <pt x="173" y="740" on="1"/>
        <pt x="575" y="226" on="1"/>
        <pt x="638" y="136" on="1"/>
        <pt x="645" y="136" on="1"/>
        <pt x="645" y="740" on="1"/>
        <pt x="729" y="740" on="1"/>
        <pt x="729" y="0" on="1"/>
        <pt x="650" y="0" on="1"/>
        <pt x="246" y="515" on="1"/>
        <pt x="184" y="602" on="1"/>
        <pt x="178" y="602" on="1"/>
        <pt x="178" y="0" on="1"/>
        <pt x="94" y="0" on="1"/>
      </contour>
    </TTGlyph>
    <TTGlyph name="Ntilde.sc" xMin="89" yMin="0" xMax="643" yMax="745">
      <contour>
        <pt x="179" y="676" on="1"/>
        <pt x="206" y="711" on="0"/>
        <pt x="269" y="745" on="0"/>
        <pt x="300" y="745" on="1"/>
        <pt x="322" y="745" on="0"/>
        <pt x="363" y="735" on="0"/>
        <pt x="402" y="724" on="0"/>
        <pt x="442" y="714" on="0"/>
        <pt x="463" y="714" on="1"/>
        <pt x="485" y="714" on="0"/>
        <pt x="527" y="727" on="0"/>
        <pt x="551" y="742" on="1"/>
        <pt x="571" y="719" on="1"/>
        <pt x="544" y="685" on="0"/>
        <pt x="477" y="650" on="0"/>
        <pt x="445" y="650" on="1"/>
        <pt x="424" y="650" on="0"/>
        <pt x="384" y="660" on="0"/>
        <pt x="343" y="671" on="0"/>
        <pt x="303" y="681" on="0"/>
        <pt x="284" y="681" on="1"/>
        <pt x="262" y="681" on="0"/>
        <pt x="222" y="669" on="0"/>
        <pt x="199" y="652" on="1"/>
      </contour>
      <contour>
        <pt x="89" y="577" on="1"/>
        <pt x="161" y="577" on="1"/>
        <pt x="497" y="195" on="1"/>
        <pt x="555" y="125" on="1"/>
        <pt x="560" y="125" on="1"/>
        <pt x="560" y="577" on="1"/>
        <pt x="643" y="577" on="1"/>
        <pt x="643" y="0" on="1"/>
        <pt x="570" y="0" on="1"/>
        <pt x="233" y="381" on="1"/>
        <pt x="176" y="451" on="1"/>
        <pt x="170" y="451" on="1"/>
        <pt x="170" y="0" on="1"/>
        <pt x="89" y="0" on="1"/>
      </contour>
    </TTGlyph>
    <TTGlyph name="O" xMin="54" yMin="-10" xMax="737" yMax="750">
      <contour>
        <pt x="396" y="-10" on="1"/>
        <pt x="232" y="-10" on="0"/>
        <pt x="54" y="183" on="0"/>
        <pt x="54" y="369" on="1"/>
        <pt x="54" y="555" on="0"/>
        <pt x="232" y="750" on="0"/>
        <pt x="396" y="750" on="1"/>
        <pt x="559" y="750" on="0"/>
        <pt x="737" y="555" on="0"/>
        <pt x="737" y="369" on="1"/>
        <pt x="737" y="183" on="0"/>
        <pt x="559" y="-10" on="0"/>
      </contour>
      <contour>
        <pt x="396" y="68" on="1"/>
        <pt x="642" y="68" on="0"/>
        <pt x="642" y="369" on="1"/>
        <pt x="642" y="521" on="0"/>
        <pt x="518" y="672" on="0"/>
        <pt x="396" y="672" on="1"/>
        <pt x="149" y="672" on="0"/>
        <pt x="149" y="369" on="1"/>
        <pt x="149" y="68" on="0"/>
      </contour>
    </TTGlyph>
    <TTGlyph name="O.sc" xMin="53" yMin="-8" xMax="658" yMax="585">
      <contour>
        <pt x="357" y="-8" on="1"/>
        <pt x="212" y="-8" on="0"/>
        <pt x="53" y="142" on="0"/>
        <pt x="53" y="288" on="1"/>
        <pt x="53" y="433" on="0"/>
        <pt x="211" y="585" on="0"/>
        <pt x="357" y="585" on="1"/>
        <pt x="500" y="585" on="0"/>
        <pt x="658" y="433" on="0"/>
        <pt x="658" y="288" on="1"/>
        <pt x="658" y="143" on="0"/>
        <pt x="500" y="-8" on="0"/>
      </contour>
      <contour>
        <pt x="357" y="65" on="1"/>
        <pt x="465" y="65" on="0"/>
        <pt x="568" y="176" on="0"/>
        <pt x="568" y="288" on="1"/>
        <pt x="568" y="512" on="0"/>
        <pt x="357" y="512" on="1"/>
        <pt x="145" y="512" on="0"/>
        <pt x="145" y="288" on="1"/>
        <pt x="145" y="176" on="0"/>
        <pt x="248" y="65" on="0"/>
      </contour>
    </TTGlyph>
    <TTGlyph name="OE" xMin="53" yMin="-10" xMax="995" yMax="750">
      <contour>
        <pt x="399" y="-10" on="1"/>
        <pt x="234" y="-10" on="0"/>
        <pt x="53" y="183" on="0"/>
        <pt x="53" y="369" on="1"/>
        <pt x="53" y="555" on="0"/>
        <pt x="234" y="750" on="0"/>
        <pt x="399" y="750" on="1"/>
        <pt x="431" y="750" on="0"/>
        <pt x="484" y="746" on="0"/>
        <pt x="510" y="740" on="1"/>
        <pt x="986" y="740" on="1"/>
        <pt x="986" y="664" on="1"/>
        <pt x="603" y="664" on="1"/>
        <pt x="603" y="414" on="1"/>
        <pt x="962" y="414" on="1"/>
        <pt x="962" y="337" on="1"/>
        <pt x="603" y="337" on="1"/>
        <pt x="603" y="76" on="1"/>
        <pt x="995" y="76" on="1"/>
        <pt x="995" y="0" on="1"/>
        <pt x="510" y="0" on="1"/>
        <pt x="484" y="-5" on="0"/>
        <pt x="430" y="-10" on="0"/>
      </contour>
      <contour>
        <pt x="399" y="68" on="1"/>
        <pt x="431" y="68" on="0"/>
        <pt x="486" y="72" on="0"/>
        <pt x="510" y="79" on="1"/>
        <pt x="510" y="661" on="1"/>
        <pt x="485" y="668" on="0"/>
        <pt x="432" y="672" on="0"/>
        <pt x="399" y="672" on="1"/>
        <pt x="274" y="672" on="0"/>
        <pt x="148" y="521" on="0"/>
        <pt x="148" y="369" on="1"/>
        <pt x="148" y="218" on="0"/>
        <pt x="274" y="68" on="0"/>
      </contour>
    </TTGlyph>
</ttFont>
